<?xml version="1.0" encoding="UTF-8"?>
<svg width="300px" height="222px" viewBox="0 0 300 222" version="1.1" xmlns="http://www.w3.org/2000/svg" xmlns:xlink="http://www.w3.org/1999/xlink">
    <!-- Generator: Sketch 51.3 (57544) - http://www.bohemiancoding.com/sketch -->
    <title>Group</title>
    <desc>Created with Sketch.</desc>
    <defs></defs>
    <g id="Page-1" stroke="none" stroke-width="1" fill="none" fill-rule="evenodd">
        <g id="Desktop-HD-Copy-12" transform="translate(-1073.000000, -508.000000)">
            <g id="Group" transform="translate(1073.000000, 508.000000)">
                <path d="M246.440194,221.063226 C244.670339,221.063226 242.890315,220.990282 241.090678,220.81246 C234.214286,220.133468 227.244189,219.79379 220.4023,218.824113 C204.699153,216.599516 188.989831,216.467419 173.172639,216.467419 C166.893341,216.467419 160.614407,216.405363 154.336562,216.405363 C145.193826,216.405363 136.053995,216.537097 126.929056,217.183427 C112.697579,218.191573 98.4439467,218.352702 84.1866828,218.352702 C82.033293,218.352702 79.877724,218.349073 77.7239709,218.343992 C77.5845036,218.343629 77.4457627,218.343629 77.3059322,218.343629 C69.4118644,218.343629 61.5479419,218.858226 53.6658596,219.222218 C45.7470944,219.587661 38.0466102,220.18754 30.1743341,220.18754 C29.4639225,220.18754 28.7520581,220.182823 28.0383777,220.172298 C20.1719128,220.057984 8.1940678,217.631613 2.58159806,211.448468 C-0.750363196,207.774798 -0.298547215,198.936653 3.03849879,195.394355 C4.49600484,193.846935 6.84624697,192.634839 8.76610169,191.897782 C14.2343826,189.797298 19.7996368,189.792218 25.5141646,189.748669 C25.5842615,189.748306 25.6547215,189.747944 25.7251816,189.747944 C29.6680387,189.747944 33.7674334,190.589516 37.5457627,191.758065 C40.9841404,192.821371 44.4969734,193.194073 47.9938257,193.856371 C50.8554479,194.397823 53.9175545,194.657298 56.9451574,194.657298 C58.9154964,194.657298 60.8713075,194.547339 62.7479419,194.333952 C67.8250605,193.756573 72.9384988,193.488024 78.0305085,193.032944 C84.353753,192.467903 90.5418886,191.242742 96.8433414,190.58625 C99.9976998,190.257823 103.079056,189.442742 106.226513,189.071855 C114.573487,188.089113 122.935714,187.876452 131.297942,187.84996 C131.968402,187.847782 132.638499,187.847056 133.308959,187.847056 C137.297215,187.847056 141.286199,187.878629 145.272276,187.878629 C148.50908,187.878629 151.742978,187.868468 154.977966,187.868468 C166.045642,187.868468 177.104964,187.988589 188.142857,189.050806 C191.563438,189.380323 194.961501,189.181089 198.334504,189.964597 C201.720944,190.751371 205.139709,191.469194 208.609322,191.609274 C211.577724,191.729032 214.555206,191.768589 217.535593,191.768589 C222.83753,191.768589 228.14891,191.64375 233.433414,191.623065 C233.962228,191.62125 234.6977,191.617621 235.610412,191.617621 C247.434988,191.617621 288.6454,192.192097 285.689346,203.831855 C284.553632,208.304274 277.950363,214.125242 274.246489,215.998911 C269.567433,218.366129 264.450726,219.76621 259.300242,220.238347 C254.958959,220.636089 250.726998,221.063226 246.440194,221.063226" id="Fill-4" fill="#F6EAEA"></path>
                <polyline id="Fill-5" fill="#B97262" points="64.1044794 70.9976613 63.4641646 66.6765726 65.3004843 66.322379 66.3947942 69.1845968 67.1854722 68.6144758 67.2824455 72.378871 65.4232446 73.0041532 64.1044794 70.9976613"></polyline>
                <polyline id="Fill-6" fill="#8CABEF" points="91.8831719 93.4493952 75.3403148 89.148629 67.6772397 71.0931048 64.0514528 72.5225806 68.3705811 95.8434677 87.4267554 105.65129 91.8831719 93.4493952"></polyline>
                <polyline id="Fill-7" fill="#D67086" points="233.743584 91.5684677 218.069128 102.997379 204.400242 97.0965726 202.394673 100.781129 212.746852 107.826169 218.549637 109.993427 233.743584 102.684194 233.743584 91.5684677"></polyline>
                <path d="M244.539225,20.1313306 L292.543947,24.1178226 C296.987288,24.4868952 300.289831,28.3852016 299.92046,32.8249597 L297.348668,63.7432258 C296.981114,68.1652016 293.108354,71.46 288.680993,71.1181452 L280.963075,70.5218952 L271.142615,82.1206452 C270.85569,82.4595968 270.302179,82.2353226 270.332324,81.7925806 L271.156416,69.7075403 L240.613438,67.0989919 C236.17845,66.720121 232.887167,62.8258065 233.255448,58.3933065 L235.825424,27.5022581 C236.194431,23.0625 240.095884,19.762621 244.539225,20.1313306" id="Fill-8" fill="#5D66D3"></path>
                <polyline id="Fill-9" fill="#FFFFEE" points="244.81816 31.1291129 283.160048 34.3970565 283.29661 32.8006452 244.954358 29.5327016 244.81816 31.1291129"></polyline>
                <polyline id="Fill-10" fill="#FFFFEE" points="243.779056 43.3005242 289.509806 47.1984677 289.646005 45.6024194 243.915617 41.7044758 243.779056 43.3005242"></polyline>
                <polyline id="Fill-11" fill="#FFFFEE" points="242.740315 55.4722984 288.470702 59.3702419 288.606901 57.7738306 242.876513 53.8758871 242.740315 55.4722984"></polyline>
                <polyline id="Fill-12" fill="#AEAEAF" points="208.930387 145.578629 209.850363 166.897742 207.153632 203.147056 203.118523 203.43375 198.216102 170.510806 191.433777 142.651089 208.930387 145.578629"></polyline>
                <polyline id="Fill-13" fill="#3B3387" points="203.262349 205.132137 207.781235 207.002177 209.807869 204.667621 207.471065 202.642621 203.107627 202.952177 203.262349 205.132137"></polyline>
                <polyline id="Fill-14" fill="#AEAEAF" points="180.365738 138.034597 179.48063 154.149315 182.10799 202.064516 186.148184 202.265927 192.20339 170.840323 197.544189 136.377218 180.365738 138.034597"></polyline>
                <polyline id="Fill-15" fill="#3B3387" points="186.039588 203.967581 181.56138 205.931976 179.486441 203.640242 181.780024 201.566613 186.14891 201.784355 186.039588 203.967581"></polyline>
                <path d="M203.85799,90.5621371 L191.25,89.2125 C191.25,89.2125 184.23632,89.9615323 179.476998,106.605 C176.829298,115.864476 176.023366,130.453548 175.829419,141.575444 C176.12724,143.162056 177.857143,150.111653 185.171913,148.932944 C197.733414,146.908306 204.419492,144.884032 209.889588,145.896169 C214.549758,146.908306 214.15569,140.497621 213.64322,135.605685 L211.786562,120.468992 L203.85799,90.5621371" id="Fill-16" fill="#353A85"></path>
                <path d="M201.423123,74.8810887 C198.245521,74.1810484 194.974576,73.5539516 191.793341,74.1835887 C191.096731,74.321129 190.34891,74.5635484 189.971186,75.1645161 C189.824455,75.3971371 189.747094,75.6656855 189.675545,75.9313306 C188.872518,78.9129435 187.854479,83.3331048 189.819007,86.0802823 C190.193462,86.6043145 190.696852,87.0202016 191.237288,87.3577016 C191.960048,87.8087903 192.760169,88.1158065 193.587893,88.2791129 C193.416828,89.0205242 193.178571,89.7463306 192.876392,90.4449194 C193.603874,91.5405242 196.997215,91.6718952 197.624818,90.6212903 C197.660048,89.7122177 197.694915,88.8027823 197.730145,87.8933468 C198.143462,87.7267742 198.542252,87.5239113 198.917433,87.2775 C200.367676,86.3230645 201.323245,84.8743548 201.878208,83.2539919 C202.482567,81.4895565 203.333172,79.8122177 203.88523,78.0140323 C204.086441,77.3589919 204.244794,76.6110484 203.900121,76.0187903 C203.53293,75.3884274 202.740436,75.1739516 202.027482,75.015 C201.826271,74.9703629 201.625061,74.9253629 201.423123,74.8810887" id="Fill-17" fill="#B97262"></path>
                <path d="M190.846126,76.5860081 C192.416586,75.5764113 194.773002,75.1420161 196.250121,75.2490726 C200.715254,75.5720565 202.35109,78.8483468 202.589346,82.9506048 C203.819492,81.3886694 206.127603,79.4235484 206.26707,77.4134274 C206.381114,75.7680242 206.15339,73.5245565 205.230872,72.1034274 C204.367554,70.77375 202.160412,70.0435887 200.847821,69.2731452 C199.610412,68.5469758 198.373366,67.8208065 197.135593,67.0942742 C196.87845,66.9433065 196.614044,66.7894355 196.319855,66.738629 C195.971913,66.6783871 195.617797,66.7669355 195.275666,66.8554839 C192.351211,67.6106855 189.427119,68.3658871 186.5023,69.1210887 C185.940436,69.26625 185.300484,69.4781855 185.093462,70.0196371 C184.967433,70.3495161 185.041525,70.7175 185.11707,71.0618952 C185.449395,72.5788306 186.086441,74.1295161 186.244431,75.6660484 C186.42276,76.5587903 186.955569,81.1346371 188.537651,80.6066129 C189.002542,79.8474194 189.071913,78.9125806 189.433656,78.0996774 C189.701332,77.4990726 190.20908,76.9953629 190.846126,76.5860081" id="Fill-18" fill="#322E7F"></path>
                <polyline id="Fill-19" fill="#353A85" points="191.25 89.2125 186.590194 90.6292742 169.57155 108.444194 168.558596 114.315242 176.694189 127.737581 178.891162 122.818065 175.44661 112.898468 180.917433 109.051694 188.211138 92.6539113 191.25 89.2125"></polyline>
                <polyline id="Fill-20" fill="#292949" points="162.898547 199.430927 163.227603 201.988306 158.437409 205.203266 155.54891 202.974677 157.779661 200.088145 162.569128 196.873185 162.898547 199.430927"></polyline>
                <polyline id="Fill-21" fill="#292949" points="163.060533 198.572298 159.366465 165.956008 163.810896 129.442137 162.81138 121.674919 142.959806 120.921532 142.243584 133.563266 145.575908 166.005726 158.113801 200.239113 163.060533 198.572298"></polyline>
                <polyline id="Fill-22" fill="#3B3387" points="141.096247 84.8333468 131.110896 87.5507661 119.562349 107.99746 125.032809 113.058508 132.73184 103.948548 141.096247 84.8333468"></polyline>
                <polyline id="Fill-23" fill="#292949" points="128.393462 124.576331 128.341162 157.490565 134.971671 199.861694 139.744068 199.814153 142.367433 160.630766 148.507264 121.412177 128.393462 124.576331"></polyline>
                <polyline id="Fill-24" fill="#292949" points="139.736804 201.825363 134.601574 204.455323 131.995278 201.902661 134.55 199.298468 139.711017 199.246935 139.736804 201.825363"></polyline>
                <path d="M165.865496,135.770806 C165.820097,134.344234 165.740557,133.153911 165.729298,132.728952 C165.626877,128.902863 165.285835,125.085484 164.806416,121.28625 C164.376755,117.881855 163.834504,109.430202 163.251211,106.046855 C162.769976,103.253589 161.092373,96.2807661 159.880024,93.6892742 C156.86586,87.2455645 157.797458,86.6504032 144.556053,84.7371774 C138.752906,83.8985081 137.381114,87.5122984 132.636683,91.6679032 C132.168886,92.077621 132.194673,94.5177823 132.086077,95.1641129 C131.895036,96.3021774 131.690194,97.4380645 131.455206,98.568871 C131.270702,99.4579839 131.067312,100.343831 130.838499,101.223871 L130.839225,101.223508 C130.839225,101.223508 126.856053,119.334194 124.222155,123.180605 C121.588257,127.026653 116.147215,132.404153 125.249274,135.687702 C126.862228,136.208468 128.485351,136.704194 130.164407,136.969476 C130.164407,136.969476 137.608475,136.142419 141.436925,136.171452 C144.962833,136.197581 148.503269,136.553952 151.969613,137.15129 C154.28753,137.538508 156.652663,138.101008 158.72615,139.183185 C160.704479,140.215645 162.132203,141.734758 164.139588,142.803508 C164.32954,142.904758 164.538015,143.009637 164.754116,142.979516 C165.906901,142.820202 165.961017,138.772742 165.865496,135.770806" id="Fill-25" fill="#3B3387"></path>
                <path d="M156.984988,52.0512097 C156.984988,52.0512097 155.087651,51.1109274 155.096005,50.8681452 C155.104722,50.6253629 155.423608,47.1952016 155.423608,47.1952016 L156.667191,46.4853629 L157.190194,45.0235887 C157.190194,45.0235887 155.76937,42.5380645 156.030508,41.8075403 C156.291646,41.0762903 158.188257,44.3083065 158.188257,44.3083065 L158.882688,46.2872177 L159.059927,49.4825806 L156.984988,52.0512097" id="Fill-26" fill="#EFBFA5"></path>
                <polyline id="Fill-27" fill="#EFBFA5" points="136.76477 101.029355 140.646247 98.0731452 139.453874 96.3606048 136.347458 97.7966129 136.160048 96.7253226 133.146973 99.6586694 134.1454 101.606371 136.76477 101.029355"></polyline>
                <polyline id="Fill-28" fill="#3B3387" points="136.272639 102.073427 133.159322 98.0085484 122.441404 104.467137 125.083293 113.090081 136.272639 102.073427"></polyline>
                <path d="M144.540799,86.5542339 C145.20908,86.8841129 146.785714,87.0020565 148.430993,86.3582661 C148.762228,86.2287097 148.985956,85.9093548 148.981235,85.5537097 C148.96816,84.5553629 148.887893,83.5577419 148.740799,82.5702823 C149.974939,82.1369758 151.400121,81.4870161 151.615133,80.197621 C151.683051,79.7918952 151.612591,79.3770968 151.542494,78.971371 C151.252663,77.2947581 150.96247,75.6181452 150.673002,73.9415323 C150.572397,73.36125 150.465617,72.7646371 150.15,72.2678226 C149.596489,71.3957661 148.521429,71.0143548 147.50339,70.837621 C144.904722,70.3872581 142.073245,70.9493952 140.058596,72.6499597 C139.522155,73.1025 139.037288,73.6468548 138.801211,74.3069758 C138.436562,75.3252823 138.709322,76.4484677 138.983898,77.4943548 C139.237772,78.4596774 139.491283,79.425 139.745157,80.3903226 C140.036804,81.5008065 140.458111,82.7629839 141.528814,83.1795968 C142.097215,83.4002419 142.768402,83.3360081 143.283051,83.6629839 C144.191041,84.2396371 144.068644,85.5885484 144.540799,86.5542339" id="Fill-29" fill="#EFBFA5"></path>
                <path d="M129.543705,69.8331048 C129.288741,69.4143145 129.013801,69.0104032 128.706174,68.6311694 C128.039709,67.8102823 127.218523,67.1069758 126.682446,66.1957258 C126.146368,65.2848387 125.957869,64.049879 126.60109,63.2108468 C127.016223,62.6693952 127.689952,62.3986694 128.344794,62.2063306 C130.502542,61.5719758 132.831356,61.5287903 135.011259,62.0833065 C137.087288,62.6113306 138.9454,63.4855645 141.035593,62.7056855 C142.999395,61.9729839 144.417676,62.2716532 146.469734,63.0032661 C148.691041,63.795121 151.672155,63.9816532 153.682809,65.0997581 C154.522155,65.5664516 155.192252,66.2958871 155.714165,67.1018952 C157.523608,69.8937097 157.533414,73.7430242 155.738862,76.5442742 C155.336077,77.1728226 154.854479,77.7469355 154.348547,78.2956452 C153.300726,79.4308065 152.047337,80.8334274 150.605811,81.2540323 C150.571308,79.9657258 151.746247,75.9033871 150.755811,74.8473387 C149.184262,73.1714516 145.631114,73.7560887 143.68184,74.1687097 C141.555327,74.6187097 139.659806,76.1233065 137.551453,76.4448387 C136.034383,76.676371 134.098184,75.9327823 132.808475,75.1496371 C131.216586,74.1817742 130.475303,71.3612903 129.543705,69.8331048" id="Fill-30" fill="#292949"></path>
                <polyline id="Fill-31" fill="#3B3387" points="151.893705 85.9870161 162.100242 80.6222177 155.096005 52.0512097 159.920702 49.4462903 172.111743 80.6222177 159.059927 96.3606048 151.893705 85.9870161"></polyline>
                <polyline id="Fill-32" fill="#292949" points="76.9543584 201.31875 76.7338983 203.483831 80.8478208 206.089476 83.2347458 204.143952 81.2880145 201.758952 77.1744552 199.153669 76.9543584 201.31875"></polyline>
                <polyline id="Fill-33" fill="#353A85" points="76.7952785 135.269637 76.1262712 141.845081 82.0020581 171.230444 76.7985472 200.598024 81.0094431 201.893589 94.6245763 166.976129 95.3713075 156.301331 93.5273608 134.188911 76.7952785 135.269637"></polyline>
                <polyline id="Fill-34" fill="#353A85" points="108.707869 137.508024 108.842978 165.28754 103.363801 201.067258 99.3355932 201.040403 97.0133172 167.97629 91.7230024 134.892581 108.707869 137.508024"></polyline>
                <polyline id="Fill-35" fill="#292949" points="99.3475787 202.737339 103.688862 204.942702 105.881477 202.78125 103.717918 200.590403 99.3621065 200.561371 99.3475787 202.737339"></polyline>
                <path d="M112.1023,133.431169 C109.196731,124.436613 108.886925,114.992056 108.041768,105.622258 C107.791162,102.858024 107.524939,100.03246 106.373245,97.5066532 C105.050847,94.6056048 102.864407,93.074879 100.317676,92.2383871 C97.0757869,91.173629 93.2498789,91.2349597 89.8790557,91.0299194 C86.6807506,90.9293952 83.8514528,102.942581 80.588862,108.766089 C78.5894673,112.334879 76.5294189,115.491411 75.1808717,119.384637 C73.8864407,123.120726 72.6435835,126.922863 71.8903148,130.810282 C70.7535109,136.679516 67.8457627,140.777782 70.6227603,142.774476 C70.8773608,142.858306 71.1225182,142.941774 71.3553269,143.024879 C75.9105327,144.655403 80.624092,145.862419 85.4237288,146.495685 C89.681477,147.057097 94.0060533,147.159435 98.2815981,146.738105 C104.133777,146.161815 109.803995,145.335484 114.963196,142.286008 C114.009443,139.334516 113.056053,136.383024 112.1023,133.431169" id="Fill-36" fill="#8CABEF"></path>
                <path d="M88.3144068,82.0887097 C90.1361985,76.5925403 98.1635593,74.6782258 100.029661,81.0660484 C100.590073,82.9854435 100.927845,85.0220565 100.546489,86.985 C100.165496,88.9483065 98.96477,90.8317742 97.1324455,91.6363306 L97.1012107,91.6493952 C97.1727603,92.1585484 97.2443099,92.6680645 97.3158596,93.1775806 C97.3311138,93.2871774 97.3441889,93.4080242 97.2824455,93.4998387 C97.2123487,93.6043548 97.0732446,93.6315726 96.9486683,93.6500806 C96.3399516,93.7408065 95.7312349,93.8315323 95.1225182,93.9222581 C94.8210654,93.9672581 94.5065375,94.0115323 94.2163438,93.918629 C93.5803874,93.7150403 93.3159806,92.9536694 93.2880145,92.2870161 C93.2811138,92.1277016 93.2829298,91.9665726 93.2854722,91.8054435 C89.683293,90.5722984 87.1231235,85.6814516 88.3144068,82.0887097" id="Fill-37" fill="#B97262"></path>
                <path d="M98.0938257,72.7036694 C99.5640436,72.4852016 100.815617,73.9095968 102.171792,74.6571774 C103.299879,75.2795565 104.579056,75.4443145 105.748547,75.96 C106.918039,76.4753226 108.067191,77.5516935 108.091889,78.8987903 C109.276998,78.2825806 110.560533,77.6507661 111.888378,77.90625 C113.216223,78.1620968 114.44891,79.7461694 113.920097,81.0518952 C113.446126,82.2208065 111.919613,82.49625 111.411501,83.647379 C110.608475,85.4677016 112.780387,88.2954435 111.298184,89.5028226 C110.941525,89.7931452 110.457022,89.8635484 110.106538,90.1622177 C109.671792,90.5334677 109.531961,91.1710887 109.338378,91.7375806 C108.460896,94.3069355 105.869128,95.985 103.308959,95.6416935 C101.717433,94.8962903 100.4477,93.3572177 99.8789346,91.5949597 C99.1935835,89.4705242 100.331114,88.72875 100.522881,86.7345968 C100.732809,84.5553629 100.039104,82.2476613 98.6662228,80.5550806 C97.7723971,79.4536694 96.4939467,78.5046774 95.1424939,78.3758468 C94.5933414,78.3235887 94.7662228,78.7812097 94.1484262,78.3566129 C93.8829298,78.1744355 93.5211864,77.4849194 93.4460048,77.1546774 C94.9242131,75.9665323 96.1601695,72.9910887 98.0938257,72.7036694" id="Fill-38" fill="#322E7F"></path>
                <path d="M82.1970944,75.5292339 C81.4387409,75.7404435 80.6153753,75.7092339 79.8929782,76.0256855 C78.8081114,76.5010887 78.8738499,77.6264516 78.566586,78.60375 C78.2266344,79.6862903 77.7323245,81.1389919 77.0179177,81.9805645 C76.5032688,82.5873387 75.7826877,82.9328226 75.1554479,83.4009677 C74.5285714,83.86875 73.951816,84.5600806 73.9652542,85.4034677 C73.9779661,86.2029435 74.5158596,86.9207661 74.5943099,87.7187903 C74.6901937,88.9091129 74.4842615,89.5184274 74.8514528,90.734879 C75.0410412,91.3627016 75.2531477,92.0275403 75.7245763,92.4557661 C76.3460048,93.0193548 77.2311138,93.0088306 78.0083535,92.8789113 C78.78523,92.7489919 79.5886199,92.5334274 80.3553269,92.7910887 C82.0173123,93.3495968 81.7071429,95.0294758 82.1495157,96.4371774 C82.8228814,98.5797581 85.3089588,99.8299597 87.2110169,99.0682258 C88.8236077,98.4222581 89.7566586,96.5514919 89.6840194,94.7043145 C89.6476998,93.7796371 89.2790557,92.9181048 89.2521792,91.9923387 C89.2263923,91.0995968 89.7301453,89.8635484 88.9205811,89.1551613 C88.7230024,88.9827823 88.4702179,88.8916935 88.2929782,88.695 C88.1498789,88.5360484 88.070339,88.3230242 88.0205811,88.11 C87.848063,87.3725806 88.0107748,86.5676613 88.4458838,86.0029839 C88.7589588,85.5972581 89.2071429,85.3004032 89.3989104,84.8108468 C89.6186441,84.2494355 89.4446731,83.5933065 89.4072639,82.9731048 C89.3175545,81.4739516 90.1380145,80.0038306 91.3877724,79.425 C92.2115012,79.0439516 92.9535109,78.8185887 93.6733656,78.2383065 C93.7830508,78.150121 95.4207022,76.7039516 95.4628329,77.0164113 C95.3894673,76.4724194 95.0716707,75.9966532 94.7498789,75.5600806 C94.220339,74.842621 93.6326877,74.1436694 92.8874092,73.7139919 C90.4765133,72.3244355 90.3602906,75.5539113 88.4248184,75.1289516 C87.9581114,75.0266129 87.6065375,74.5991129 87.1866828,74.343629 C86.3927361,73.8616935 85.4182809,74.0340726 84.6065375,74.3951613 C83.7947942,74.7566129 83.0509685,75.2918952 82.1970944,75.5292339" id="Fill-39" fill="#322E7F"></path>
                <polyline id="Fill-40" fill="#5D66D3" points="240.327603 147.649718 258.03414 141.712984 253.543584 172.280323 254.981477 200.861492 251.759201 200.861492 244.2523 175.481492 240.886925 150.252097 240.327603 147.649718"></polyline>
                <polyline id="Fill-41" fill="#292949" points="251.568886 200.481532 255.156174 200.493871 255.985351 203.542258 255.894189 203.56621 255.916707 203.569476 249.889831 206.908548 247.063075 207.141169 246.797215 203.913145 247.574092 203.377863 251.568886 200.481532"></polyline>
                <polyline id="Fill-42" fill="#5D66D3" points="226.55339 147.835161 230.432688 202.265927 233.483898 202.642621 238.06816 172.500605 244.918039 144.433669 226.55339 147.835161"></polyline>
                <polyline id="Fill-43" fill="#292949" points="230.280872 201.719395 225.612712 204.190403 225.98063 206.368548 234.224455 205.367298 233.831114 202.232903 230.280872 201.719395"></polyline>
                <path d="M262.862833,156.481694 C263.232567,147.578952 255.274576,119.268145 255.274576,119.268145 L255.276029,119.267782 C254.434504,116.607702 253.792373,113.901895 253.408111,111.189194 C253.134625,109.257823 247.343099,87.3087097 247.726634,87.2807661 C243.737288,87.5718145 236.044794,86.6293548 233.089467,89.4607258 C233.005569,89.5416532 232.924576,89.6254839 232.848305,89.7125806 C230.544552,92.3378226 229.347821,97.653629 228.258232,100.924839 C226.82724,105.222339 225.728208,109.630524 224.977482,114.096774 C224.321186,118.002339 223.931477,121.94746 223.655811,125.896573 C223.418644,129.291532 223.60678,132.667258 223.49092,136.007056 C223.363075,139.704315 222.253148,143.712581 221.425061,147.309315 C220.591525,150.931452 219.533172,154.510403 218.069128,157.931492 C222.029782,159.683226 226.441889,160.156452 230.773366,160.172782 C235.104843,160.189476 239.430508,159.772137 243.761622,159.838185 C247.424092,159.894798 251.131235,160.293266 254.719976,159.559839 C257.573608,158.975927 260.207506,157.706855 262.863196,156.481694 L262.862833,156.481694" id="Fill-44" fill="#D67086"></path>
                <path d="M234.068281,77.9715726 C232.247579,78.8704839 230.349516,81.187621 230.466828,83.3447177 C230.523123,84.3833468 231.098063,85.1904435 231.114407,86.3045565 C231.154722,88.5008468 234.487409,90.8002016 232.4477,92.9184677 C231.399153,94.0071774 229.760048,94.2205645 228.256053,94.3715323 C228.073366,94.3896774 227.881961,94.4070968 227.713075,94.3352419 C227.434867,94.2180242 227.299395,93.888871 227.305932,93.5872984 C227.312107,93.2857258 227.428692,92.9990323 227.519855,92.7116129 C228.47724,89.7053226 227.032082,86.1993145 226.86138,83.1360484 C226.691041,80.0789516 227.415254,76.7783468 229.92385,74.7860081 C231.605811,75.2984274 232.859201,76.0082661 233.686199,77.5589516 L234.068281,77.9715726" id="Fill-45" fill="#292949"></path>
                <path d="M235.199637,91.0193952 C233.125424,90.7581048 231.36247,89.2288306 230.396005,87.3762097 C229.429903,85.5239516 229.161864,83.3842742 229.152058,81.2954032 C229.119007,74.3443548 237.727482,73.875121 241.188015,78.8374597 C244.203995,83.1621774 241.230508,91.7778629 235.199637,91.0193952" id="Fill-46" fill="#EFBFA5"></path>
                <path d="M245.621186,91.8671371 C244.552663,91.5630242 243.49431,91.2273387 242.667312,90.3255242 C241.330024,88.8677419 240.930872,86.122379 240.30109,84.3060484 C239.63753,82.391371 238.853027,80.3228226 237.111501,79.2849194 C235.973971,78.6070161 234.829177,78.6592742 233.582688,78.8824597 C232.729177,79.0352419 232.759685,79.3633065 231.950847,79.0479435 C231.331235,78.80625 230.654964,77.8543548 230.40799,77.2689919 C229.991041,76.2811694 230.191889,75.1140726 230.715254,74.1785081 C231.520823,72.7385081 232.642373,71.8820565 234.214649,71.5376613 C239.733414,70.3288306 244.539225,72.7969355 247.16368,77.9018952 C248.425787,80.355121 248.438136,83.3599597 249.731114,85.7057661 C250.529056,87.1541129 251.722155,87.9895161 252.446731,89.5565323 C254.327724,93.6221371 257.760654,98.6200403 258.448184,103.071048 C258.473245,103.235444 258.489588,103.420161 258.38862,103.552984 C258.182324,103.822621 257.755932,103.626653 257.488983,103.416895 C255.930508,102.192097 254.372034,100.966935 252.813559,99.7421371 C252.201937,99.2609274 251.581598,98.7710081 251.125787,98.1402823 C249.991889,96.5692742 249.963923,94.2550403 248.440678,93.0570968 C247.609322,92.4035081 246.610896,92.1483871 245.621186,91.8671371" id="Fill-47" fill="#292949"></path>
                <path d="M271.468402,83.4463306 C272.510775,83.6404839 275.226392,82.9143145 275.850363,81.9566129 C277.290073,79.7465323 273.87385,80.4269758 272.640073,80.3972177 C272.781356,79.9689919 272.930993,79.5592742 272.985472,79.1208871 C273.035593,78.7191532 269.369492,79.7628629 269.016102,80.1468145 C268.168402,81.0675 268.555206,81.7631855 268.63184,82.9277419 C269.578329,83.0779839 270.523729,83.2699597 271.468402,83.4463306" id="Fill-48" fill="#EFBFA5"></path>
                <polyline id="Fill-49" fill="#D67086" points="242.637893 105.664355 262.671429 102.333629 271.896247 83.6415726 268.228692 80.6222177 258.46707 93.5658871 248.267433 93.1329435 238.826877 93.5415726 242.637893 105.664355"></polyline>
                <polyline id="Fill-50" fill="#EFBFA5" points="41.5736077 146.494597 24.0443099 140.053427 27.657385 170.736895 25.5639225 197.208508 25.5072639 197.384516 25.5493947 197.389597 25.4095642 199.153669 28.5010896 199.714718 36.8527845 174.202258 40.9398305 149.079919 41.5736077 146.494597"></polyline>
                <polyline id="Fill-51" fill="#292949" points="28.8228814 198.983105 25.2366828 198.892379 24.3207022 201.916089 24.411138 201.942944 24.3882567 201.945484 30.3174334 205.455847 33.1361985 205.768669 33.4946731 202.549718 32.7330508 201.992298 28.8228814 198.983105"></polyline>
                <polyline id="Fill-52" fill="#EFBFA5" points="53.5136804 147.021532 48.0937046 201.148185 45.0512107 201.893589 41.2975787 171.347298 35.2547215 143.096371 53.5136804 147.021532"></polyline>
                <polyline id="Fill-53" fill="#292949" points="48.2440678 200.776935 52.8399516 203.380766 52.409201 205.547298 44.1973366 204.310524 44.6807506 201.188831 48.2440678 200.776935"></polyline>
                <path d="M61.7324455,160.215242 C62.8412833,159.445524 62.8652542,158.105685 62.8630751,156.764032 C62.8598063,154.243669 62.4061743,151.667782 61.8279661,149.218911 C60.7271186,144.624556 59.47954,139.091371 58.9303874,133.138306 C57.5124697,117.753024 52.6496368,107.428427 52.6496368,107.428427 L51.0809927,103.247782 C50.7690073,102.704153 50.4453995,102.166331 50.1076271,101.636492 C48.1478208,98.5641532 44.7453995,93.3423387 41.1061743,92.4877016 C41.0302663,92.4699194 40.953632,92.4525 40.8766344,92.4358065 C37.0507264,91.5964113 32.1483051,91.9861694 28.690678,93.8445968 C28.0343826,94.1969758 27.4510896,94.6669355 26.8717918,95.133629 C25.1811138,96.4963306 23.8020581,97.2344758 23.0731235,99.3110081 C22.4404358,101.114274 22.2933414,103.081573 21.9443099,104.949798 C21.2353511,108.746129 20.8125908,112.587823 20.246368,116.40629 C19.185109,123.566734 18.2836562,130.75004 17.1479419,137.899234 C16.5635593,141.579073 15.9748184,145.265081 15.6987893,148.983024 C15.4547215,152.270565 12.4866828,155.608185 10.8188862,158.554234 C10.2384988,159.579435 18.5738499,162.23625 19.3205811,162.409718 C22.7782082,163.213911 26.4562954,163.008871 30.0207022,163.024839 C37.8315981,163.06004 45.6439467,162.819435 53.4377724,162.303024 C56.027724,162.131734 59.2194915,161.63746 61.5174334,160.349516 C61.5933414,160.306694 61.664891,160.262056 61.7324455,160.215242" id="Fill-54" fill="#474EBB"></path>
                <path d="M36.5865617,92.0152016 C36.5865617,92.0152016 32.1868039,90.8281452 31.5788136,100.747742 C30.9711864,110.667339 29.9578692,135.770081 28.5399516,142.653266 C27.1216707,149.536452 24.9940678,163.037177 24.9940678,163.037177 L38.4675545,163.50496 L53.8656174,162.28996 C53.8656174,162.28996 48.5978208,152.572863 47.7871671,145.69004 C46.9768765,138.806855 48.3951574,112.894476 44.9509685,103.177379 C41.5064165,93.4599194 40.7840194,92.1893952 36.5865617,92.0152016" id="Fill-55" fill="#8CABEF"></path>
                <polyline id="Fill-56" fill="#474EBB" points="56.4995157 114.109113 57.5124697 115.323387 61.159322 110.262702 46.5719128 94.0670565 41.1014528 92.4477823 43.7349879 99.5334677 56.4995157 114.109113"></polyline>
                <polyline id="Fill-57" fill="#EFBFA5" points="44.3070218 109.918306 41.1054479 107.480323 42.0886199 106.06754 44.6509685 107.252056 44.8056901 106.368387 47.2910412 108.787863 46.4673123 110.394435 44.3070218 109.918306"></polyline>
                <polyline id="Fill-58" fill="#474EBB" points="56.8478208 109.295202 56.7039952 109.610202 46.7244552 107.686815 45.2531477 110.957661 57.5124697 115.323387 56.8478208 109.295202"></polyline>
                <path d="M42.7231235,84.1558065 C43.388862,86.1532258 42.4256659,88.2831048 41.5797821,90.1030645 C40.8294189,91.7172581 40.5690073,92.7794758 42.4728814,93.2149597 C43.5457627,93.4606452 45.4496368,93.918629 46.390678,93.0977419 C47.1029056,92.4757258 46.7023002,90.5556048 46.3558111,89.7927823 C46.0910412,89.2103226 45.3904358,88.9145565 45.1412833,88.3252016 C45.038862,88.0824194 45.0239709,87.8124194 45.020339,87.5489516 C45.0054479,86.4718548 45.1543584,85.3929435 45.4608959,84.3604839 C45.6690073,83.6593548 45.9508475,82.9705645 46.0133172,82.2422177 C46.1044794,81.1854435 45.3570218,79.9544758 44.9640436,78.9837097 C44.2329298,77.1775403 41.6887409,74.7551613 39.5582324,76.1726613 C39.0733656,76.4956452 38.790799,77.0414516 38.5547215,77.5738306 C38.4138015,77.8917339 38.2794189,78.2234274 38.2754237,78.5710887 C38.2590799,79.9577419 39.5262712,80.1918145 40.4012107,80.8519355 C41.4802663,81.6655645 42.298184,82.8812903 42.7231235,84.1558065" id="Fill-59" fill="#292949"></path>
                <path d="M38.6713075,91.9495161 C40.5192494,91.5147581 41.9640436,89.9644355 42.6581114,88.1989113 C43.3525424,86.4333871 43.388862,84.4755242 43.1967312,82.5884274 C42.5578692,76.3083871 34.7393462,76.7115726 32.0920097,81.5247581 C29.7846247,85.7195565 33.2985472,93.2142339 38.6713075,91.9495161" id="Fill-60" fill="#EFBFA5"></path>
                <path d="M38.6694915,91.2730645 C38.6382567,91.9883468 38.607385,92.703629 38.5761501,93.4189113 C38.5717918,93.5237903 38.5630751,93.6384677 38.4897094,93.7135887 C38.4061743,93.7992339 38.2717918,93.8006855 38.1523002,93.7966935 C37.5686441,93.776371 36.9853511,93.7564113 36.4020581,93.7360887 C36.112954,93.7262903 35.8122276,93.7128629 35.5572639,93.5764113 C34.9990315,93.2770161 34.8835351,92.5210887 34.9728814,91.8947177 C35.0618644,91.2679839 35.2866828,90.6368952 35.153753,90.0181452 C36.3584746,90.611129 37.5029056,89.2709274 38.7076271,89.8639113 L38.6694915,91.2730645" id="Fill-61" fill="#EFBFA5"></path>
                <path d="M36.1478208,71.7009677 C34.0950363,72.3981048 32.7784504,74.4724597 30.7754237,75.3013306 C29.6262712,75.776371 28.2668281,75.8366129 27.3294189,76.6531452 C25.2286925,78.4825403 26.9171913,82.3213306 25.1912833,84.5074597 C24.8324455,84.9618145 24.3486683,85.3054839 23.9883777,85.75875 C23.211138,86.7367742 23.1094431,88.0715323 23.0404358,89.3181048 C23.0244552,89.598629 23.0219128,89.9041935 23.0705811,90.1865323 C23.3404358,93.0654435 27.5233656,92.8825403 29.1849879,92.6981855 C31.0085956,92.4956855 30.4009685,91.4835484 30.4009685,91.4835484 L30.3345036,91.402621 C30.1598063,90.2337097 30.640678,88.9867742 31.5599274,88.2420968 C31.9009685,87.9659274 32.3044794,87.7456452 32.5449153,87.3783871 C33.0846247,86.5545968 32.5692494,85.4629839 32.6487893,84.4813306 C32.9680387,80.5278629 39.6090799,81.374879 41.4828087,78.5605645 C43.7811138,75.108629 40.0249395,70.3850806 36.1478208,71.7009677" id="Fill-62" fill="#292949"></path>
                <path d="M57.8673123,17.0793145 L0.676634383,21.720121 C0.456174334,21.7379032 0.293825666,21.9433065 0.313438257,22.1788306 L3.90217918,64.7430242 C3.92215496,64.9785484 4.11682809,65.1552823 4.33692494,65.1371371 L17.2638015,64.0883468 L27.164891,75.5796774 C27.4543584,75.9153629 28.0125908,75.693629 27.9820823,75.254879 L27.1561743,63.2856048 L49.5145278,61.4714516 C56.3694915,60.915121 61.425908,54.5240323 60.8081114,47.1959274 L58.3020581,17.4734274 C58.2824455,17.2379032 58.0874092,17.0615323 57.8673123,17.0793145" id="Fill-63" fill="#D67086"></path>
                <polyline id="Fill-64" fill="#FFFFEE" points="51.4983051 26.2139516 15.8745763 29.1044758 15.751816 27.6485081 51.375908 24.757621 51.4983051 26.2139516"></polyline>
                <polyline id="Fill-65" fill="#FFFFEE" points="52.4346247 37.3173387 9.94539952 40.7652823 9.82263923 39.3089516 52.3118644 35.8610081 52.4346247 37.3173387"></polyline>
                <polyline id="Fill-66" fill="#FFFFEE" points="53.3709443 48.4207258 10.8817191 51.8686694 10.7589588 50.4127016 53.2478208 46.9647581 53.3709443 48.4207258"></polyline>
                <path d="M173.169007,31.6858065 C173.169007,19.3583468 187.338015,9.36471774 204.816102,9.36471774 C222.294552,9.36471774 236.463196,19.3583468 236.463196,31.6858065 C236.463196,44.013629 222.294552,54.0068952 204.816102,54.0068952 C204.121671,54.0068952 203.432324,53.9902016 202.748789,53.9589919 C202.43862,53.9444758 202.196368,54.2235484 202.2523,54.52875 L204.773971,68.2711694 C204.861864,68.7502016 204.26477,69.0434274 203.93862,68.68125 L187.472034,50.3996371 C187.428814,50.3517339 187.37615,50.3132661 187.318039,50.2856855 C178.790557,46.2868548 173.169007,39.450121 173.169007,31.6858065" id="Fill-67" fill="#3B3387"></path>
                <path d="M218.279056,34.4170161 C216.453995,34.4170161 216.450726,31.5827419 218.279056,31.5827419 C220.104479,31.5827419 220.107385,34.4170161 218.279056,34.4170161" id="Fill-68" fill="#ECE9DE"></path>
                <path d="M205.514165,34.4170161 C203.688741,34.4170161 203.685472,31.5827419 205.514165,31.5827419 C207.339225,31.5827419 207.342131,34.4170161 205.514165,34.4170161" id="Fill-69" fill="#ECE9DE"></path>
                <path d="M189.557506,34.4170161 C187.732082,34.4170161 187.729177,31.5827419 189.557506,31.5827419 C191.382567,31.5827419 191.385472,34.4170161 189.557506,34.4170161" id="Fill-70" fill="#ECE9DE"></path>
                <polyline id="Fill-71" fill="#EFBFA5" points="14.5387409 64.7139919 15.7383777 60.5133871 17.5572639 60.9470565 17.3734867 64.0056048 18.3290557 63.8114516 16.8646489 67.2811694 14.9128329 67.0852016 14.5387409 64.7139919"></polyline>
                <polyline id="Fill-72" fill="#474EBB" points="30.5854722 96.6106452 17.2877724 85.878871 17.7548426 66.2726613 13.8617433 66.0814113 8.17590799 89.107621 21.4914044 105.892621 30.5854722 96.6106452"></polyline>
                <polyline id="Fill-73" fill="#353A85" points="201.183777 91.6399597 209.850363 82.2846774 207.808475 56.9304435 211.616586 55.2592742 216.796852 80.9785887 215.211501 87.3885484 205.495642 100.781129 201.183777 91.6399597"></polyline>
                <polyline id="Fill-74" fill="#B97262" points="211.616586 55.2592742 211.616586 49.4462903 208.955448 47.8930645 207.675545 50.2512097 207.675545 52.6180645 206.29431 53.1860081 207.808475 56.9304435 211.616586 55.2592742"></polyline>
                <path d="M119.839104,0.439475806 L166.162228,0.350564516 C170.450121,0.342217742 173.932809,3.80903226 173.940799,8.09310484 L173.998184,37.9288306 C174.006538,42.1954839 170.564165,45.6681048 166.294068,45.7007661 L158.85,45.7577419 L150.386077,57.6718548 C150.138741,58.0195161 149.590315,57.8500403 149.583414,57.4232661 L149.386925,45.77625 L119.907748,45.7635484 C115.627119,45.7617339 112.15569,42.2981855 112.147337,38.0210081 L112.090315,8.21177419 C112.081961,3.92733871 115.551211,0.447459677 119.839104,0.439475806" id="Fill-75" fill="#474EBB"></path>
                <polyline id="Fill-76" fill="#FFFFEF" points="121.003148 10.9545968 158.009201 10.9640323 158.009564 9.42350806 121.003511 9.41407258 121.003148 10.9545968"></polyline>
                <polyline id="Fill-77" fill="#FFFFEF" points="121.000242 22.7021371 165.137651 22.7133871 165.138015 21.1728629 121.000605 21.1616129 121.000242 22.7021371"></polyline>
                <polyline id="Fill-78" fill="#FFFFEF" points="120.997337 34.4500403 165.134383 34.4609274 165.134746 32.9204032 120.997337 32.9091532 120.997337 34.4500403"></polyline>
                <path d="M118.91477,40.6556855 C118.817433,34.75125 113.980387,30.0378629 108.085351,30.0687097 C108.090073,29.8832661 108.093341,29.6970968 108.090436,29.5094758 C107.971308,22.2978629 102.023971,16.5480242 94.8065375,16.6670565 C90.8792978,16.7316532 87.3878935,18.5229435 85.0376513,21.3024194 C82.7807506,18.8158065 79.5065375,17.2745565 75.8836562,17.3340726 C69.4358354,17.4404032 64.251937,22.5725806 64.0060533,28.9335484 C63.7329298,28.9172177 63.4579903,28.9077823 63.1797821,28.9121371 C57.2291768,29.010121 52.4847458,33.9096774 52.5828087,39.8554839 C52.6619855,44.6385484 55.8515738,48.6391935 60.1932203,49.9710484 C59.6756659,51.2368548 59.3996368,52.6253226 59.4236077,54.0791129 C59.5187651,59.8333065 64.2639225,64.4204032 70.0223971,64.3253226 C70.4640436,64.3180645 70.8984262,64.2825 71.3244552,64.2218952 L71.5082324,75.3662903 C71.5234867,75.8493145 72.1474576,76.0322177 72.3188862,75.7832661 L79.2246973,65.7566129 C80.8914044,66.8228226 82.8784504,67.4295968 85.0060533,67.3943952 C88.8646489,67.3308871 92.1966102,65.1792339 93.9483051,62.0368548 C95.7559322,63.1270161 97.8806295,63.7417742 100.147337,63.7043952 C106.578087,63.5984274 111.704964,58.3036694 111.59891,51.8784677 C111.594189,51.5990323 111.576392,51.3228629 111.552421,51.0485081 C115.895521,49.6016129 118.99431,45.4725 118.91477,40.6556855" id="Fill-79" fill="#EED5D5"></path>
                <path d="M98.3952785,42.1359677 C96.8041162,42.1624597 96.8422518,44.6331048 98.4359564,44.6069758 C100.027119,44.5808468 99.9889831,42.1098387 98.3952785,42.1359677" id="Fill-80" fill="#D67086"></path>
                <path d="M87.2676755,42.3195968 C85.6765133,42.3457258 85.7142857,44.8167339 87.3083535,44.7902419 C88.8995157,44.7641129 88.8613801,42.2934677 87.2676755,42.3195968" id="Fill-81" fill="#D67086"></path>
                <path d="M73.3579903,42.5489516 C71.7668281,42.5750806 71.8049637,45.0457258 73.3986683,45.0195968 C74.9898305,44.9934677 74.9516949,42.5224597 73.3579903,42.5489516" id="Fill-82" fill="#D67086"></path>
                <polyline id="Fill-83" fill="#B97262" points="108.155448 61.3553226 105.747458 57.7095968 104.14322 58.6698387 105.23862 61.5313306 104.268886 61.6336694 106.709927 64.5027823 108.51247 63.7294355 108.155448 61.3553226"></polyline>
                <polyline id="Fill-84" fill="#8CABEF" points="100.283172 93.9912097 111.902542 82.3666935 105.557506 63.8081855 109.212712 62.456371 121.564649 82.7085484 105.647579 102.421452 100.283172 93.9912097"></polyline>
            </g>
        </g>
    </g>
</svg>