<?xml version="1.0" encoding="UTF-8"?>
<svg width="750px" height="619px" viewBox="0 0 750 619" version="1.1" xmlns="http://www.w3.org/2000/svg" xmlns:xlink="http://www.w3.org/1999/xlink">
    <!-- Generator: Sketch 51.3 (57544) - http://www.bohemiancoding.com/sketch -->
    <title>Group 89</title>
    <desc>Created with Sketch.</desc>
    <defs>
        <path d="M396.812,1.786 C244.914,1.786 106.128,30.868 0,78.87 L0,550.916 C100.514,596.378 230.332,624.844 372.828,627.732 L420.794,627.732 C574.902,624.61 714.16,591.562 817.582,539.466 L817.582,90.32" id="path-1"></path>
        <path d="M396.812,1.786 C244.914,1.786 106.128,30.868 0,78.87 L0,550.916 C100.514,596.378 230.332,624.844 372.828,627.732 L420.794,627.732 C574.902,624.61 714.16,591.562 817.582,539.466 L817.582,90.32 C708.82,35.534 560.432,1.786 396.812,1.786 Z" id="path-3"></path>
        <path d="M396.812,1.786 C244.914,1.786 106.128,30.868 0,78.87 L0,550.916 C100.514,596.378 230.332,624.844 372.828,627.732 L420.794,627.732 C574.902,624.61 714.16,591.562 817.582,539.466 L817.582,90.32 C708.82,35.534 560.432,1.786 396.812,1.786 Z" id="path-5"></path>
        <path d="M396.812,1.786 C244.914,1.786 106.128,30.868 0,78.87 L0,550.916 C100.514,596.378 230.332,624.844 372.828,627.732 L420.794,627.732 C574.902,624.61 714.16,591.562 817.582,539.466 L817.582,90.32 C708.82,35.534 560.432,1.786 396.812,1.786 Z" id="path-7"></path>
        <path d="M396.812,1.786 C244.914,1.786 106.128,30.868 0,78.87 L0,550.916 C100.514,596.378 230.332,624.844 372.828,627.732 L420.794,627.732 C574.902,624.61 714.16,591.562 817.582,539.466 L817.582,90.32 C708.82,35.534 560.432,1.786 396.812,1.786 Z" id="path-9"></path>
    </defs>
    <g id="Page-1" stroke="none" stroke-width="1" fill="none" fill-rule="evenodd">
        <g id="beranda" transform="translate(-735.000000, -280.000000)">
            <g id="Group-89" transform="translate(723.000000, 271.000000)">
                <g id="Group-5" transform="translate(12.000000, 8.214000)">
                    <path d="M23.6166,378.9606 C11.3766,352.0986 1.3246,323.5506 0.9026,294.0346 C0.3406,254.7786 16.7126,217.5046 32.7686,181.6786 C53.4186,135.6086 76.3606,86.8366 119.2826,60.2526 C168.8846,29.5266 231.7986,36.2166 289.7346,29.2986 C338.8526,23.4346 386.3586,7.1426 435.6086,2.5406 C484.8606,-2.0654 539.3166,7.4466 572.4326,44.1886 C579.7146,52.2666 585.7606,61.4426 593.5306,69.0526 C607.8166,83.0406 626.8606,90.7886 644.4486,100.2966 C680.4386,119.7546 712.1866,148.3606 731.1706,184.6026 C750.1566,220.8466 755.4166,265.0166 741.1226,303.3506 C734.3786,321.4386 723.5826,337.8586 717.5186,356.1826 C708.5126,383.3946 710.2006,413.9806 696.7746,439.3046 C686.5706,458.5546 668.7046,472.5426 650.2466,484.1206 C552.8966,545.1906 427.7406,552.3586 317.7106,519.1866 C291.8626,511.3966 266.5826,501.5126 240.1686,495.9306 C203.3806,488.1546 40.5686,423.7866 23.6166,378.9606" id="Fill-1" fill="#C2C2CC"></path>
                    <path d="M138.9436,317.0718 C131.3176,300.3418 125.0576,282.5558 124.7936,264.1698 C124.4436,239.7158 134.6436,216.4958 144.6456,194.1798 C157.5076,165.4798 171.7996,135.0978 198.5376,118.5358 C229.4376,99.3978 268.6276,103.5638 304.7196,99.2558 C335.3156,95.6018 364.9096,85.4538 395.5916,82.5858 C426.2716,79.7178 460.1936,85.6418 480.8236,108.5298 C485.3596,113.5638 489.1256,119.2798 493.9656,124.0198 C502.8636,132.7338 514.7296,137.5598 525.6856,143.4818 C548.1056,155.6038 567.8816,173.4238 579.7076,195.9998 C591.5336,218.5778 594.8116,246.0938 585.9076,269.9738 C581.7056,281.2398 574.9796,291.4698 571.2016,302.8838 C565.5936,319.8358 566.6436,338.8878 558.2796,354.6638 C551.9236,366.6558 540.7936,375.3678 529.2976,382.5818 C468.6516,420.6238 390.6896,425.0918 322.1456,404.4278 C306.0436,399.5718 290.2956,393.4158 273.8416,389.9398 C250.9256,385.0958 149.5036,344.9978 138.9436,317.0718" id="Fill-3" fill="#ADADC4"></path>
                </g>
                <g id="Group-88" transform="translate(0.000000, 0.214000)">
                    <g id="Group-8">
                        <mask id="mask-2" fill="white">
                            <use xlink:href="#path-1"></use>
                        </mask>
                        <g id="Clip-7"></g>
                        <path d="M491.7826,382.1284 L573.7126,363.1324 C573.7126,363.1324 597.9766,396.1804 657.3226,383.8684 L657.3226,370.7324 C657.3226,370.7324 723.4786,373.9064 738.3966,397.4104 L738.3966,627.7324 L543.3186,628.0004 L469.6946,627.7324 L468.1846,434.6664 C468.1846,434.6664 465.1806,397.5584 491.7826,382.1284" id="Fill-6" fill="#5F4465" mask="url(#mask-2)"></path>
                    </g>
                    <g id="Group-11">
                        <mask id="mask-4" fill="white">
                            <use xlink:href="#path-3"></use>
                        </mask>
                        <g id="Clip-10"></g>
                        <path d="M506.0502,378.8218 C506.0502,378.8218 573.0062,360.6278 548.2842,558.8718 L546.4502,611.5538 C546.4502,611.5538 581.5722,548.6118 588.5842,508.0678 C595.5822,467.5918 599.4262,390.2178 548.2322,368.8998 L506.0502,378.8218 Z" id="Fill-9" fill="#CB9E7D" mask="url(#mask-4)"></path>
                    </g>
                    <g id="Group-14">
                        <mask id="mask-6" fill="white">
                            <use xlink:href="#path-5"></use>
                        </mask>
                        <g id="Clip-13"></g>
                        <path d="M618.765,370.9488 C618.765,370.9488 718.769,350.1008 696.545,567.9188 L721.009,541.4208 C721.009,541.4208 736.581,392.2668 685.391,370.9488 L618.765,370.9488 Z" id="Fill-12" fill="#CB9E7D" mask="url(#mask-6)"></path>
                    </g>
                    <g id="Group-17">
                        <mask id="mask-8" fill="white">
                            <use xlink:href="#path-7"></use>
                        </mask>
                        <g id="Clip-16"></g>
                        <path d="M508.4778,378.2496 C508.4778,378.2496 524.3738,337.5076 610.1278,346.2136 C610.1278,346.2136 674.5018,350.3156 696.5438,376.1756 L508.4778,378.2496 Z" id="Fill-15" fill="#513656" mask="url(#mask-8)"></path>
                    </g>
                    <mask id="mask-10" fill="white">
                        <use xlink:href="#path-9"></use>
                    </mask>
                    <g id="Clip-19"></g>
                    <polygon id="Fill-18" fill="#FFC69E" mask="url(#mask-10)" points="573.712 388.662 657.322 388.662 657.322 286.732 573.712 286.732"></polygon>
                    <polygon id="Fill-20" fill="#F39570" mask="url(#mask-10)" points="573.7122 286.732 573.7122 317.064 591.2602 342.088 657.1642 368.352 657.1642 335.008"></polygon>
                    <path d="M760.5892,147.6294 L439.4312,187.3594 C439.4312,187.3594 429.9232,206.6374 457.3592,216.1494 C484.7952,225.6594 772.3072,231.0774 760.5892,147.6294" id="Fill-21" fill="#E75250" mask="url(#mask-10)"></path>
                    <path d="M594.5892,324.7672 L657.3212,354.9212 L694.6152,354.9212 L715.2132,216.3132 L716.0192,148.7352 C716.0192,148.7352 712.7312,82.3252 637.6552,82.3252 C562.5792,82.3252 538.3352,128.6292 543.3172,191.5492 C548.2992,254.4672 562.9712,272.2932 562.9712,272.2932 L594.5892,324.7672 Z" id="Fill-22" fill="#FFC69E" mask="url(#mask-10)"></path>
                    <path d="M560.2162,279.3024 L560.2142,279.3024 C550.0162,280.4584 540.7282,273.0604 539.5722,262.8624 L537.8322,247.5164 C536.6742,237.3204 544.0722,228.0304 554.2682,226.8744 C564.4662,225.7184 573.7582,233.1144 574.9142,243.3124 L576.6542,258.6584 C577.8102,268.8544 570.4142,278.1444 560.2162,279.3024" id="Fill-23" fill="#F39570" mask="url(#mask-10)"></path>
                    <path d="M635.138,242.7828 C632.448,242.7828 630.246,240.5808 630.246,237.8908 C630.246,235.1988 632.448,232.9988 635.138,232.9988 C637.83,232.9988 640.03,235.1988 640.03,237.8908 C640.03,240.5808 637.83,242.7828 635.138,242.7828" id="Fill-24" fill="#494949" mask="url(#mask-10)"></path>
                    <path d="M696.5442,243.6246 C693.8542,243.6246 691.6542,241.4226 691.6542,238.7326 C691.6542,236.0406 693.8542,233.8386 696.5442,233.8386 C699.2362,233.8386 701.4362,236.0406 701.4362,238.7326 C701.4362,241.4226 699.2362,243.6246 696.5442,243.6246" id="Fill-25" fill="#494949" mask="url(#mask-10)"></path>
                    <polygon id="Fill-26" fill="#F39570" mask="url(#mask-10)" points="662.7748 228.3756 658.7508 282.7316 693.1168 286.0656"></polygon>
                    <path d="M624.2766,284.734 L673.1166,309.314 C673.1166,309.314 636.0266,319.556 624.2766,284.734" id="Fill-27" fill="#FFFFFF" mask="url(#mask-10)"></path>
                    <path d="M532.1008,175.2438 L542.6928,231.7398 C542.6928,231.7398 564.4968,225.7438 569.6988,237.8898 L573.6968,270.7338 L603.6948,276.0338 L602.0948,177.6438 C602.0948,177.6438 687.6868,197.1058 725.6828,181.7758 L722.8828,144.6718 L532.1008,175.2438 Z" id="Fill-28" fill="#494949" mask="url(#mask-10)"></path>
                    <path d="M594.5892,171.1314 L504.0632,181.7754 C504.0632,181.7754 499.1492,107.8634 535.5992,88.5034 C572.0472,69.1414 661.9652,47.7914 661.9652,47.7914 L594.5892,171.1314 Z" id="Fill-29" fill="#C62D39" mask="url(#mask-10)"></path>
                    <path d="M594.5892,171.1314 C597.1732,171.7414 728.6792,154.2114 728.6792,154.2114 L721.6692,74.7874 L661.9652,47.7914 L594.5892,77.3994 L594.5892,171.1314 Z" id="Fill-30" fill="#E75250" mask="url(#mask-10)"></path>
                    <path d="M757.0658,148.065 L439.4318,187.359" id="Stroke-31" stroke="#C62D39" stroke-width="8" stroke-linecap="round" mask="url(#mask-10)"></path>
                    <polygon id="Fill-32" fill="#494949" mask="url(#mask-10)" points="619.836 224.11 646.368 224.11 646.368 217.258 619.836 217.258"></polygon>
                    <polygon id="Fill-33" fill="#494949" mask="url(#mask-10)" points="688.17 224.11 714.702 224.11 714.702 217.258 688.17 217.258"></polygon>
                    <polygon id="Fill-34" fill="#EDE05C" mask="url(#mask-10)" points="548.2844 558.8726 721.5984 534.7206 719.6884 606.7886 543.3184 627.9986"></polygon>
                    <polygon id="Fill-35" fill="#494949" mask="url(#mask-10)" points="721.599 558.5698 546.451 583.5858 544.683 608.9878 720.239 586.0198"></polygon>
                    <path d="M645.6302,265.0016 C645.6302,273.4256 638.8022,280.2536 630.3782,280.2536 C621.9542,280.2536 615.1262,273.4256 615.1262,265.0016 C615.1262,256.5776 621.9542,249.7496 630.3782,249.7496 C638.8022,249.7496 645.6302,256.5776 645.6302,265.0016" id="Fill-36" fill="#F39570" mask="url(#mask-10)"></path>
                    <path d="M709.7766,252.8862 C709.3046,252.8422 708.8246,252.8122 708.3386,252.8122 C699.9146,252.8122 693.0866,259.6422 693.0866,268.0662 C693.0866,275.4482 698.3326,281.6042 705.3006,283.0122 L709.7766,252.8862 Z" id="Fill-37" fill="#F39570" mask="url(#mask-10)"></path>
                    <polygon id="Fill-38" fill="#428E80" mask="url(#mask-10)" points="86.637 627.7496 43.631 627.7496 43.631 426.0096 67.135 415.0696 106.859 501.7356"></polygon>
                    <polygon id="Fill-39" fill="#51AFA1" mask="url(#mask-10)" points="106.8596 401.5698 199.7716 388.6618 292.4416 424.7338 292.4416 627.9998 72.9896 627.7318 79.7096 553.7898 55.6576 493.7218 67.1356 415.0698"></polygon>
                    <path d="M190.804,319.777 C190.804,319.777 217.048,310.609 220.148,276.033 L194.858,272.479 L190.804,319.777 Z" id="Fill-40" fill="#494949" mask="url(#mask-10)"></path>
                    <polygon id="Fill-41" fill="#FFC69E" mask="url(#mask-10)" points="199.7708 388.6616 145.3848 456.7316 106.8588 401.5696 108.6328 251.6456 191.0368 251.6456"></polygon>
                    <path d="M106.8596,378.2496 C106.8596,378.2496 149.0776,380.5896 182.2556,337.0496 L194.8576,311.5856 L192.9816,282.1496 L107.4376,352.6536 L106.8596,378.2496 Z" id="Fill-42" fill="#F39570" mask="url(#mask-10)"></path>
                    <path d="M50.3088,182.6412 L61.6568,328.6412 C61.6568,328.6412 102.2088,404.2192 173.6828,323.9672 L211.1228,257.5012 L212.3108,149.3572 L49.6308,162.6872 L50.3088,182.6412 Z" id="Fill-43" fill="#FFC69E" mask="url(#mask-10)"></path>
                    <path d="M102.1428,249.1812 L108.6328,291.4852 C108.6328,291.4852 91.0128,301.1332 87.0448,291.4912 L102.1428,249.1812 Z" id="Fill-44" fill="#F39570" mask="url(#mask-10)"></path>
                    <path d="M130.4172,245.4606 C127.9692,244.3406 126.8812,241.4246 127.9992,238.9766 C129.1172,236.5306 132.0352,235.4406 134.4812,236.5586 C136.9292,237.6766 138.0172,240.5926 136.8992,243.0406 C135.7832,245.4906 132.8652,246.5786 130.4172,245.4606" id="Fill-45" fill="#494949" mask="url(#mask-10)"></path>
                    <path d="M69.4026,246.5856 C66.9546,245.4676 65.8666,242.5496 66.9846,240.1016 C68.1026,237.6556 71.0186,236.5676 73.4666,237.6836 C75.9146,238.8016 77.0026,241.7176 75.8846,244.1676 C74.7666,246.6156 71.8506,247.7036 69.4026,246.5856" id="Fill-46" fill="#494949" mask="url(#mask-10)"></path>
                    <path d="M149.0774,266.898 C149.0774,275.322 142.2474,282.15 133.8254,282.15 C125.4014,282.15 118.5734,275.322 118.5734,266.898 C118.5734,258.474 125.4014,251.646 133.8254,251.646 C142.2474,251.646 149.0774,258.474 149.0774,266.898" id="Fill-47" fill="#F39570" mask="url(#mask-10)"></path>
                    <path d="M94.3626,319.0132 C94.3626,319.0132 124.6406,325.7212 139.1166,299.4032" id="Stroke-48" stroke="#F39570" stroke-width="4" stroke-linecap="round" mask="url(#mask-10)"></path>
                    <path d="M127.1184,216.4448 C127.1184,216.4448 143.7224,220.9708 152.2724,233.5488" id="Stroke-49" stroke="#494949" stroke-width="4" stroke-linecap="round" mask="url(#mask-10)"></path>
                    <path d="M198.0384,277.6948 L213.5784,277.6948 C222.1624,277.6948 229.1204,270.7368 229.1204,262.1548 L229.1204,249.2928 C229.1204,240.7088 222.1624,233.7508 213.5784,233.7508 C204.9964,233.7508 198.0384,240.7088 198.0384,249.2928 L198.0384,277.6948 Z" id="Fill-50" fill="#F39570" mask="url(#mask-10)"></path>
                    <path d="M75.8372,216.4448 C67.3472,218.9448 59.0072,223.7188 53.1372,230.3828" id="Stroke-51" stroke="#494949" stroke-width="4" stroke-linecap="round" mask="url(#mask-10)"></path>
                    <path d="M64.8832,255.1226 C61.5892,255.1226 58.5452,256.1786 56.0512,257.9546 L58.0772,284.0106 C60.1292,285.0366 62.4332,285.6286 64.8832,285.6286 C73.3072,285.6286 80.1352,278.7986 80.1352,270.3766 C80.1352,261.9526 73.3072,255.1226 64.8832,255.1226" id="Fill-52" fill="#F39570" mask="url(#mask-10)"></path>
                    <path d="M43.2952,202.7154 C43.2952,202.7154 137.3112,207.1854 156.5732,171.6094 C156.5732,171.6094 148.7212,237.9474 209.6912,261.4654 L227.9912,267.6374 C227.9912,267.6374 296.9992,165.7934 212.3112,129.6114 C212.3112,129.6114 9.4192,81.6054 43.2952,202.7154" id="Fill-53" fill="#494949" mask="url(#mask-10)"></path>
                    <path d="M43.2914,157.1616 L34.0874,81.5556 L76.8014,63.1756 L191.2234,79.4316 C191.2234,79.4316 236.0394,116.8216 214.1014,160.2636 C214.1014,160.2636 179.1394,140.7456 144.6414,146.1756 L43.2914,157.1616 Z" id="Fill-54" fill="#F2EFEA" mask="url(#mask-10)"></path>
                    <polygon id="Fill-55" fill="#E75250" mask="url(#mask-10)" points="68.094 130.07 83.706 130.07 83.706 90.772 68.094 90.772"></polygon>
                    <polygon id="Fill-56" fill="#E75250" mask="url(#mask-10)" points="56.252 118.228 95.55 118.228 95.55 102.614 56.252 102.614"></polygon>
                    <polygon id="Fill-57" fill="#428E80" mask="url(#mask-10)" points="222.1868 397.3862 246.2128 475.4542 243.8988 551.6902 236.0868 627.7322 292.4408 628.0002 292.4408 424.7342"></polygon>
                    <path d="M469.927,277.777 C482.281,279.179 493.535,270.217 494.937,257.863 L497.045,239.271 C498.447,226.917 489.483,215.663 477.131,214.261 C464.777,212.861 453.521,221.821 452.121,234.177 L450.011,252.767 C448.611,265.123 457.571,276.377 469.927,277.777" id="Fill-58" fill="#F39570" mask="url(#mask-10)"></path>
                    <polygon id="Fill-59" fill="#51AFA1" mask="url(#mask-10)" points="347.4788 394.6616 239.5988 435.3696 236.0868 627.7316 527.4788 627.7316 527.4788 435.3696 424.6168 394.6616"></polygon>
                    <path d="M439.3588,446.0152 C451.7968,398.1532 427.2328,390.0652 427.2328,390.0652 L350.6148,388.1412 C350.6148,388.1412 308.7788,402.5212 344.0888,504.0272" id="Stroke-60" stroke="#494949" stroke-width="4" stroke-linecap="round" mask="url(#mask-10)"></path>
                    <polygon id="Fill-61" fill="#FFC69E" mask="url(#mask-10)" points="425.5872 394.6616 388.3572 456.7316 348.4492 394.6616 348.4492 346.4076 425.5872 346.4076"></polygon>
                    <path d="M348.3626,355.3336 L348.3626,367.8676 C348.3626,367.8676 363.1146,374.3516 385.7526,374.3516 C408.3926,374.3516 425.5866,369.1316 425.5866,369.1316 L425.5866,352.6536 L348.3626,355.3336 Z" id="Fill-62" fill="#F39570" mask="url(#mask-10)"></path>
                    <path d="M300.1556,277.777 C287.8016,279.179 276.5476,270.217 275.1456,257.863 L273.0376,239.271 C271.6376,226.917 280.5976,215.663 292.9516,214.261 C305.3076,212.861 316.5616,221.821 317.9616,234.177 L320.0716,252.767 C321.4716,265.123 312.5096,276.377 300.1556,277.777" id="Fill-63" fill="#F39570" mask="url(#mask-10)"></path>
                    <path d="M389.933,360.9038 L379.591,360.9038 C337.141,360.9038 302.729,326.4918 302.729,284.0418 L302.729,176.1798 C302.729,133.7298 337.141,99.3178 379.591,99.3178 L389.933,99.3178 C432.383,99.3178 466.795,133.7298 466.795,176.1798 L466.795,284.0418 C466.795,326.4918 432.383,360.9038 389.933,360.9038" id="Fill-64" fill="#FFC69E" mask="url(#mask-10)"></path>
                    <path d="M342.2552,237.357 C339.8072,236.239 338.7192,233.321 339.8372,230.875 C340.9552,228.427 343.8712,227.339 346.3192,228.457 C348.7672,229.573 349.8552,232.491 348.7372,234.939 C347.6192,237.387 344.7032,238.475 342.2552,237.357" id="Fill-65" fill="#494949" mask="url(#mask-10)"></path>
                    <path d="M428.1478,237.7984 C425.4558,237.7984 423.2558,235.5964 423.2558,232.9064 C423.2558,230.2144 425.4558,228.0144 428.1478,228.0144 C430.8378,228.0144 433.0398,230.2144 433.0398,232.9064 C433.0398,235.5964 430.8378,237.7984 428.1478,237.7984" id="Fill-66" fill="#494949" mask="url(#mask-10)"></path>
                    <polygon id="Fill-67" fill="#494949" mask="url(#mask-10)" points="327.334 216.666 359.146 216.666 359.146 208.888 327.334 208.888"></polygon>
                    <polygon id="Fill-68" fill="#494949" mask="url(#mask-10)" points="412.242 216.666 444.052 216.666 444.052 208.888 412.242 208.888"></polygon>
                    <polygon id="Fill-69" fill="#F39570" mask="url(#mask-10)" points="383.3508 226.7272 367.3808 287.3072 400.1868 287.3072"></polygon>
                    <path d="M302.5482,288.562 C302.5482,288.562 318.2422,298.106 346.7142,298.106 L367.3802,287.306 L400.1862,287.306 L417.1082,298.106 C417.1082,298.106 440.5382,304.436 467.0122,287.294 C467.0122,287.294 466.1082,362.666 387.0862,362.666 C308.0602,362.666 302.5482,297.51 302.5482,288.562" id="Fill-70" fill="#494949" mask="url(#mask-10)"></path>
                    <path d="M355.3714,297.5366 C355.3714,297.5366 366.3434,311.5846 384.2714,311.5846 C402.1994,311.5846 410.8614,297.5366 410.8614,297.5366" id="Fill-71" fill="#FFC69E" mask="url(#mask-10)"></path>
                    <path d="M363.1848,299.9624 C363.1848,299.9624 371.0568,305.2424 384.5068,305.2424 C399.0868,305.2424 403.5768,300.6524 403.5768,300.6524" id="Stroke-72" stroke="#F39570" stroke-width="2" stroke-linecap="round" mask="url(#mask-10)"></path>
                    <path d="M354.6468,261.48 C354.6468,269.904 347.8188,276.734 339.3948,276.734 C330.9708,276.734 324.1428,269.904 324.1428,261.48 C324.1428,253.058 330.9708,246.228 339.3948,246.228 C347.8188,246.228 354.6468,253.058 354.6468,261.48" id="Fill-73" fill="#F39570" mask="url(#mask-10)"></path>
                    <path d="M446.1908,261.48 C446.1908,269.904 439.3628,276.734 430.9388,276.734 C422.5148,276.734 415.6868,269.904 415.6868,261.48 C415.6868,253.058 422.5148,246.228 430.9388,246.228 C439.3628,246.228 446.1908,253.058 446.1908,261.48" id="Fill-74" fill="#F39570" mask="url(#mask-10)"></path>
                    <path d="M303.1166,220.5426 L315.0206,154.0626 L349.5826,108.3706 C349.5826,108.3706 304.1106,102.1286 293.7566,147.3986 L295.1166,214.1166 L303.1166,220.5426 Z" id="Fill-75" fill="#494949" mask="url(#mask-10)"></path>
                    <path d="M466.2416,220.5426 L454.3376,154.0626 L419.7756,108.3706 C419.7756,108.3706 465.2476,102.1286 475.6016,147.3986 L474.2416,214.1166 L466.2416,220.5426 Z" id="Fill-76" fill="#494949" mask="url(#mask-10)"></path>
                    <path d="M323.5492,135.3746 C323.5492,135.3746 352.3532,159.3986 401.4432,147.2366 L385.6912,137.7986 C385.6912,137.7986 419.5912,150.5766 439.3492,139.8206 L417.6792,129.8466 C417.6792,129.8466 434.4172,140.1406 455.5012,136.9786 C455.5012,136.9786 444.0212,84.3146 372.0712,91.4346 C300.1212,98.5546 308.6872,123.1886 323.5492,135.3746" id="Fill-77" fill="#494949" mask="url(#mask-10)"></path>
                    <polygon id="Fill-78" fill="#F2EFEA" mask="url(#mask-10)" points="338.4672 573.9194 339.3352 627.7314 235.0572 627.7314 238.5692 435.3694 309.7832 408.4974"></polygon>
                    <polygon id="Fill-79" fill="#D8D8D8" mask="url(#mask-10)" points="309.7826 408.4976 270.3106 423.3916 312.8906 471.8936 284.9946 515.2456 338.4666 573.9196"></polygon>
                    <polygon id="Fill-80" fill="#F2EFEA" mask="url(#mask-10)" points="431.845 573.9194 430.977 627.7314 535.255 627.7314 531.743 435.3694 460.529 408.4974"></polygon>
                    <polygon id="Fill-81" fill="#D8D8D8" mask="url(#mask-10)" points="460.5286 408.4976 500.0006 423.3916 457.4206 471.8936 485.3186 515.2456 431.8446 573.9196"></polygon>
                    <path d="M364.2484,516.402 C364.2484,524.502 357.6824,531.068 349.5824,531.068 C341.4824,531.068 334.9164,524.502 334.9164,516.402 C334.9164,508.302 341.4824,501.736 349.5824,501.736 C357.6824,501.736 364.2484,508.302 364.2484,516.402" id="Fill-82" fill="#494949" mask="url(#mask-10)"></path>
                    <path d="M359.767,516.402 C359.767,522.028 355.207,526.588 349.583,526.588 C343.959,526.588 339.399,522.028 339.399,516.402 C339.399,510.776 343.959,506.218 349.583,506.218 C355.207,506.218 359.767,510.776 359.767,516.402" id="Fill-83" fill="#777777" mask="url(#mask-10)"></path>
                    <path d="M414.2552,514.6538 C414.2552,514.6538 389.8512,503.3898 400.3832,486.6878 C410.9172,469.9838 439.7792,446.0838 439.7792,446.0838" id="Stroke-84" stroke="#494949" stroke-width="4" stroke-linecap="round" mask="url(#mask-10)"></path>
                    <path d="M429.3762,518.734 C429.3762,518.734 456.1942,520.514 454.9322,500.808 C453.6702,481.102 439.7542,446.308 439.7542,446.308" id="Stroke-85" stroke="#494949" stroke-width="4" stroke-linecap="round" mask="url(#mask-10)"></path>
                    <path d="M418.3606,518.2926 C416.8046,520.9886 414.0766,522.3286 412.2686,521.2826 C410.4626,520.2406 410.2566,517.2086 411.8146,514.5126 C413.3706,511.8166 416.0966,510.4786 417.9046,511.5206 C419.7126,512.5646 419.9166,515.5946 418.3606,518.2926" id="Fill-86" fill="#494949" mask="url(#mask-10)"></path>
                    <path d="M433.0326,518.3218 C433.8406,521.3278 432.8646,524.2038 430.8486,524.7458 C428.8326,525.2878 426.5426,523.2918 425.7346,520.2858 C424.9246,517.2798 425.9026,514.4038 427.9166,513.8618 C429.9326,513.3198 432.2246,515.3158 433.0326,518.3218" id="Fill-87" fill="#494949" mask="url(#mask-10)"></path>
                </g>
            </g>
        </g>
    </g>
</svg>