<?xml version="1.0" encoding="UTF-8"?>
<svg width="300px" height="221px" viewBox="0 0 300 221" version="1.1" xmlns="http://www.w3.org/2000/svg" xmlns:xlink="http://www.w3.org/1999/xlink">
    <!-- Generator: Sketch 51.3 (57544) - http://www.bohemiancoding.com/sketch -->
    <title>Group</title>
    <desc>Created with Sketch.</desc>
    <defs></defs>
    <g id="Page-1" stroke="none" stroke-width="1" fill="none" fill-rule="evenodd">
        <g id="Desktop-HD-Copy-12" transform="translate(-652.000000, -499.000000)">
            <g id="Group" transform="translate(652.000000, 499.000000)">
                <polyline id="Fill-4" fill="#FFFFFE" points="0.317378049 87.507622 68.1503049 116.882012 299.682622 85.810061 0.317378049 87.507622"></polyline>
                <polyline id="Fill-5" fill="#A5B5B6" points="61.7158537 192.425305 61.7158537 220.445122 299.682622 85.810061 61.7158537 192.425305"></polyline>
                <polyline id="Fill-6" fill="#ABBBBC" points="0.317378049 87.507622 56.4484756 125.889329 56.4484756 143.978049 68.1503049 125.889329 299.682622 85.810061 68.1503049 116.882012 0.317378049 87.507622"></polyline>
                <path d="M229.131402,68.3881098 C229.124085,68.2801829 229.097561,68.1713415 229.025305,68.0634146 C228.638415,67.4908537 228.016463,67.1551829 227.360671,67.0911585 C227.034146,66.9439024 226.651829,66.8597561 226.257622,66.8314024 C225.259756,66.7609756 224.221646,66.8185976 223.224695,66.8634146 C221.945122,66.920122 221.283841,66.9786585 220.165244,66.272561 C219.709756,65.9844512 219.227744,66.3329268 219.149085,66.7280488 C218.519817,67.1533537 217.908841,67.6042683 217.328963,68.0963415 C217.139634,68.2573171 216.950305,68.4512195 216.824085,68.6597561 C216.277134,68.5902439 215.815244,69.3759146 216.362195,69.8012195 C216.49939,69.9091463 216.6375,70.0006098 216.776524,70.0829268 C216.855183,70.4368902 217.086585,70.7240854 217.557622,70.7890244 C217.603354,70.7945122 217.648171,70.7780488 217.693902,70.7780488 C218.309451,71.0085366 219.057622,70.854878 219.875305,70.7176829 C222.80122,70.2292683 225.721646,69.7170732 228.643902,69.2167683 C229.082927,69.1417683 229.246646,68.7301829 229.131402,68.3881098" id="Fill-7" fill="#F6C8AD"></path>
                <path d="M216.026524,70.3289634 C216.28811,70.5128049 216.553354,70.4615854 216.743598,70.3070122 C216.753659,70.3015244 216.762805,70.3033537 216.77378,70.2969512 C218.689939,69.2378049 220.512805,68.1045732 221.52622,66.0914634 C221.597561,65.9496951 221.597561,65.8253049 221.568293,65.7137195 C221.582927,65.567378 221.55,65.4118902 221.434756,65.2646341 C220.544817,64.1442073 219.590854,63.085061 218.594817,62.0615854 C218.589329,62.0533537 218.589329,62.0442073 218.582927,62.0359756 C214.178963,56.0332317 208.116768,51.4920732 203.629573,45.4929878 C203.139329,44.8371951 202.178963,45.6731707 202.667378,46.3271341 L204.555183,59.5655488 L216.026524,70.3289634" id="Fill-8" fill="#115D5E"></path>
                <path d="M178.60061,110.499695 C177.94939,109.760671 177.468293,107.326829 177.369512,107.290244 C177.346646,107.012195 177.497561,105.789329 177.497561,105.789329 C175.896951,106.187195 174.3,106.601524 172.708537,107.033232 C172.656402,107.047866 172.618902,107.075305 172.587805,107.108232 C172.447866,107.060671 172.275915,107.106402 172.255793,107.294817 C172.128659,108.469207 171.778354,110.860976 172.96372,111.671341 C173.012195,111.721646 173.080793,111.753659 173.172256,111.737195 C175.168902,111.395122 178.781707,110.459451 178.60061,110.499695" id="Fill-9" fill="#F6C8AD"></path>
                <path d="M234.718902,102.303659 C234.746341,100.218293 234.720732,98.1338415 234.639329,96.0503049 C234.639329,96.0503049 229.48811,96.4710366 229.509146,96.8085366 C229.610671,98.5033537 229.731402,100.197256 229.869512,101.890244 C229.873171,101.937805 229.903354,101.964329 229.925305,101.999085 C229.835671,102.130793 229.852134,102.338415 230.04878,102.397866 C231.217683,102.747256 233.586585,103.557622 234.622866,102.493902 C234.630183,102.488415 234.633841,102.482012 234.641159,102.476524 C234.678659,102.432622 234.696951,102.385976 234.702439,102.339329 C234.705183,102.324695 234.718902,102.320122 234.718902,102.303659" id="Fill-10" fill="#F6C8AD"></path>
                <path d="M227.1,87.7371951 C227.1,87.7381098 227.1,87.7390244 227.1,87.739939 C227.099085,87.7335366 227.099085,87.7262195 227.099085,87.7198171 C227.099085,87.7262195 227.1,87.7317073 227.1,87.7371951 Z M238.121341,75.6118902 C238.108537,75.1692073 238.089329,74.7237805 238.05,74.2829268 C238.050915,72.4646341 237.705183,70.6966463 236.271951,69.6237805 C233.944207,67.8823171 229.669207,68.9588415 227.158537,69.2551829 C220.752439,70.0115854 214.408537,71.1329268 208.110366,72.5204268 C207.782927,72.5917683 207.800305,74.3222561 208.001524,75.3759146 C208.06189,75.6969512 208.642683,81.0347561 208.653659,81.095122 C208.946341,82.7314024 208.830183,85.0939024 209.152134,85.2192073 C208.091159,85.4634146 219.771037,83.3131098 226.635366,81.7335366 C226.135976,87.2661585 228.921951,97.9719512 228.993293,97.9856707 C229.020732,98.0652439 230.272866,98.5820122 230.837195,98.7256098 C231.471951,98.8884146 232.137805,98.8865854 232.787195,98.832622 C233.67439,98.7594512 234.581707,98.6204268 235.017988,97.7643293 C235.018902,97.7615854 235.018902,97.7597561 235.019817,97.7579268 C235.082927,97.7240854 235.134146,97.6664634 235.153354,97.5777439 C236.155793,92.6963415 236.925915,87.7810976 237.407012,82.827439 C237.485671,82.3692073 237.57622,81.9091463 237.694207,81.4490854 C237.737195,81.282622 237.737195,81.1179878 237.719817,80.9560976 C238.218293,79.2411585 238.169817,77.382622 238.121341,75.6118902 Z" id="Fill-11" fill="#13121A"></path>
                <path d="M212.059756,102.429878 C211.156098,92.6743902 209.926829,82.9655488 208.45061,73.2832317 C208.429573,72.7957317 208.178049,71.4457317 208.172561,71.4045732 C208.133232,71.1493902 193.743293,73.4689024 193.778049,73.65 C193.810061,73.8128049 193.843902,73.9737805 193.876829,74.1365854 C193.874085,74.3240854 194.11372,75.4042683 194.20061,75.7445122 C195.479268,82.1634146 196.876829,88.5539634 198.397866,94.9179878 C198.402439,94.9417683 198.405183,94.9664634 198.408841,94.9902439 C198.423476,95.0743902 198.451829,95.1512195 198.47378,95.2307927 C198.644817,95.9442073 198.817683,96.6567073 198.991463,97.3692073 C193.064634,98.6926829 187.227439,100.065549 181.758841,102.50122 C181.498171,102.57439 181.269512,102.679573 181.07378,102.814024 C179.296646,103.639939 177.558841,104.578354 175.873171,105.676829 C175.777134,105.739024 175.756098,105.829573 175.778963,105.91189 C175.760671,105.942073 175.733232,105.962195 175.731402,106.007012 C175.646341,108.279878 176.726524,111.707012 179.466768,111.243293 C179.94878,111.216768 180.432622,111.186585 180.916463,111.158232 C181.408537,111.203049 181.906098,111.17378 182.419207,111.071341 C189.508537,110.625 196.691159,109.911585 203.55,108.131707 C204.158232,107.97439 204.92378,107.787805 205.740549,107.555488 C206.435671,107.477744 207.068598,107.277439 207.693293,106.916159 C209.977134,106.048171 212.095427,104.702744 212.059756,102.429878" id="Fill-12" fill="#1A1926"></path>
                <path d="M178.256707,117.653049 C178.167073,116.502439 177.087805,115.688415 175.971951,115.674695 C175.294207,115.666463 174.466463,116.098171 173.806098,115.892378 C172.509146,115.48811 173.20061,111.730793 173.121951,111.624695 C172.2,110.369817 172.459756,108.402439 172.664634,106.945427 C172.667378,106.930793 172.669207,106.914329 172.671037,106.89878 C172.671951,106.893293 172.666463,106.890549 172.667378,106.885061 C172.667378,106.868598 172.671951,106.853963 172.669207,106.836585 C172.548476,106.092988 171.589024,106.021646 170.972561,105.927439 C169.903354,105.764634 168.831402,105.834146 167.781402,106.082927 C167.667073,105.945732 167.427439,105.919207 167.361585,106.134146 C166.172561,110.040549 165.408841,116.023171 168.007317,119.564634 C168.068598,119.646951 168.149085,119.667988 168.225,119.656098 C168.257927,119.720122 168.310976,119.770427 168.403354,119.781402 C171.769207,120.182927 175.028963,119.588415 178.029878,118.014329 C178.098476,117.978659 178.137805,117.924695 178.156098,117.866159 C178.218293,117.817683 178.264024,117.751829 178.256707,117.653049" id="Fill-13" fill="#0A090B"></path>
                <path d="M243.482927,105.225 C242.055183,105.097866 240.681402,105.330183 239.257317,105.341159 C237.919207,105.35122 236.957927,105.106098 236.067073,104.035976 C235.630793,103.51189 235.353659,102.88811 234.985061,102.318293 C234.893598,102.177439 234.746341,102.188415 234.643902,102.268902 C234.638415,102.268902 234.633841,102.267073 234.626524,102.267988 C233.097256,102.454573 231.597256,102.359451 230.102744,101.991768 C229.934451,101.95061 229.8375,102.068598 229.82561,102.203963 C229.746037,102.233232 229.677439,102.293598 229.656402,102.397866 C229.141463,104.810671 229.107622,107.206098 229.546646,109.631707 C229.587805,109.859451 229.842988,109.892378 229.980183,109.785366 C230.003963,109.793598 230.01311,109.814634 230.043293,109.816463 C235.66372,110.138415 241.145122,109.489939 246.541463,107.872866 C246.61372,107.850915 247.007927,107.68628 246.997866,107.485976 C246.902744,105.633841 245.010366,105.36128 243.482927,105.225" id="Fill-14" fill="#0A090B"></path>
                <path d="M205.778963,4.93262195 C205.040854,2.5097561 202.35,-0.25152439 199.656402,0.364939024 C197.644207,0.826829268 196.417683,3.10152439 194.534451,3.80121951 C192.167378,4.68292683 189.367683,3.30182927 186.899085,4.07926829 C184.272256,4.9070122 182.560976,7.01067073 181.858537,9.52591463 C181.798171,9.47286585 181.749695,9.41067073 181.681098,9.36402439 C181.051829,8.94420732 180.267988,8.93414634 179.658841,9.38506098 C178.99939,9.87164634 179.791463,10.8676829 180.450915,10.3810976 C180.740854,10.1661585 180.985976,10.3490854 181.169817,10.6307927 C176.792378,13.5878049 175.769817,18.8314024 177.589939,23.8820122 C179.807927,30.0320122 185.289329,31.4807927 191.239024,31.0198171 C191.529878,30.9969512 191.689024,30.8195122 191.742988,30.6064024 C191.774085,30.5807927 191.808841,30.5652439 191.837195,30.5304878 C194.079878,27.8707317 194.949695,24.4445122 196.859451,21.5643293 C197.721951,20.2655488 198.710671,19.0554878 199.510976,17.7155488 C200.641463,15.825 200.970732,13.6765244 202.913415,12.310061 C203.039634,12.2204268 203.100915,12.1106707 203.133841,11.9963415 C205.014329,10.0829268 206.629573,7.72134146 205.778963,4.93262195" id="Fill-15" fill="#1A1926"></path>
                <path d="M238.921646,14.4164634 C238.92439,14.4182927 238.927134,14.420122 238.929878,14.4219512 C238.927134,14.4246951 238.922561,14.4265244 238.917988,14.4292683 C238.919817,14.4246951 238.919817,14.4210366 238.921646,14.4164634 Z M237.083232,15.8908537 C237.077744,15.8862805 237.075,15.8771341 237.069512,15.872561 C237.072256,15.8698171 237.075,15.8661585 237.077744,15.8634146 C237.079573,15.872561 237.081402,15.8817073 237.083232,15.8908537 Z M243.271646,11.4338415 C243.379573,10.7405488 242.702744,10.3317073 241.690244,10.6518293 C239.910366,11.2143293 238.120427,13.0079268 236.590244,14.0597561 C234.502134,15.4948171 232.412195,16.929878 230.324085,18.3658537 C230.304878,18.3786585 230.295732,18.395122 230.280183,18.4106707 C230.121037,18.4335366 229.971951,18.5597561 229.995732,18.767378 C230.059756,19.3362805 230.753963,23.8161585 231.393293,23.7704268 C231.503963,23.7621951 231.606402,23.6716463 231.646646,23.5719512 C231.64939,23.5646341 231.652134,23.5573171 231.654878,23.5509146 C232.482622,23.0185976 233.391768,22.7231707 234.34939,22.5987805 C234.579878,22.6463415 235.732317,23.089939 236.196037,23.117378 C237.137195,23.1731707 238.944512,21.5277439 239.144817,21.2387195 C239.844512,20.7128049 240.160061,20.164939 240.02378,18.947561 C239.98811,18.6256098 239.539024,17.3094512 239.468598,16.7277439 C239.399085,16.1515244 239.028659,15.7454268 238.867683,15.2158537 C240.185671,14.4082317 242.704573,12.4088415 242.768598,12.3420732 C242.87378,12.2295732 243.332927,11.5573171 243.271646,11.4338415 Z" id="Fill-16" fill="#F6C8AD"></path>
                <path d="M194.533537,20.8170732 C194.52622,20.8088415 194.521646,20.7987805 194.5125,20.792378 C194.531707,20.7439024 194.539939,20.7466463 194.533537,20.8170732 Z M204.745427,23.1521341 C203.733841,19.2466463 202.679268,15.3521341 201.645732,11.4530488 C201.645732,11.4503049 201.648476,11.4484756 201.647561,11.4448171 C201.6375,11.3643293 201.61189,11.2829268 201.578963,11.2051829 C201.570732,11.1658537 201.543293,11.1329268 201.545122,11.089939 C201.529573,10.9728659 201.453659,10.9234756 201.367683,10.902439 C201.208537,10.7698171 201.001829,10.7460366 200.792378,10.9746951 C200.753963,11.0176829 200.724695,11.0762195 200.692683,11.1320122 C199.553963,12.3493902 198.289939,13.3353659 196.779878,14.0661585 C196.086585,14.4027439 195.122561,14.5335366 194.646951,15.2067073 C194.453049,15.4820122 194.547256,15.8341463 194.479573,16.1588415 C193.965549,18.6237805 195.411585,20.6314024 192.447256,22.3664634 C192.357622,22.4185976 192.268902,22.520122 192.297256,22.6353659 C192.464634,23.3222561 192.632012,24.0091463 192.79939,24.695122 C192.768293,24.6978659 192.739939,24.6859756 192.707012,24.7042683 C192.620122,24.7518293 192.531402,24.7829268 192.443598,24.8185976 C192.411585,24.8167683 192.385061,24.7993902 192.350305,24.8103659 C192.223171,24.8478659 192.12439,24.8496951 192.035671,24.8378049 C191.928659,24.5990854 191.810671,24.3667683 191.681707,24.1390244 C191.679878,24.129878 191.68628,24.1234756 191.683537,24.1152439 C191.624085,23.9131098 191.547256,23.727439 191.456707,23.5490854 C191.447561,23.5280488 191.440244,23.5070122 191.431098,23.4859756 C191.439329,23.4411585 191.4375,23.3935976 191.409146,23.3405488 C190.262195,21.1070122 186.294512,19.4871951 184.781707,22.3234756 C183.010061,25.6509146 187.683841,28.670122 190.069207,29.8591463 C190.110366,29.8801829 190.14878,29.8865854 190.185366,29.8847561 C190.189024,29.8865854 190.192683,29.8875 190.195427,29.8893293 C190.195427,29.8911585 190.194512,29.8920732 190.193598,29.8929878 C190.200915,29.8957317 190.206402,29.8957317 190.212805,29.897561 C190.314329,29.9533537 190.417683,29.989939 190.527439,30.0109756 C190.901524,31.1634146 191.228049,32.3277439 191.481402,33.514939 C191.476829,33.5405488 191.456707,33.5570122 191.460366,33.5881098 C191.557317,34.3902439 191.721951,35.1676829 191.940549,35.9432927 C191.93872,35.9615854 191.924085,35.972561 191.926829,35.9935976 C191.961585,36.2615854 191.995427,36.5295732 192.029268,36.797561 C192.032012,36.8204268 192.050305,36.8268293 192.055793,36.8460366 C192.064939,36.9054878 192.075,36.964939 192.084146,37.0234756 C192.084146,37.0262195 192.08689,37.0271341 192.087805,37.029878 C192.016463,37.1533537 192.032012,37.3161585 192.205793,37.3628049 C193.739634,37.7707317 195.277134,37.8777439 196.850305,37.667378 C197.017683,37.6454268 197.07622,37.5009146 197.051524,37.3719512 C197.082622,37.3664634 197.112805,37.3618902 197.142988,37.3554878 C197.148476,37.370122 197.152134,37.3847561 197.157622,37.3993902 C197.251829,37.6664634 197.707317,37.5411585 197.642378,37.2603659 C197.546341,36.8478659 197.428354,36.4408537 197.327744,36.0292683 C197.211585,35.2490854 197.094512,34.4698171 196.978354,33.6887195 C200.2875,33.0265244 203.742073,31.4240854 205.085671,29.089939 C206.136585,27.2643293 205.221037,24.985061 204.745427,23.1521341 Z" id="Fill-17" fill="#F6C8AD"></path>
                <path d="M232.716768,24.4445122 C232.315244,22.5109756 231.602744,20.7283537 230.595732,19.0408537 C230.608537,18.5981707 230.237195,18.160061 229.761585,18.439939 C218.949695,24.8185976 208.116768,31.1634146 197.268293,37.479878 C195.563415,36.7344512 193.530183,36.392378 191.025,36.3375 C190.805488,36.3329268 190.63811,36.4253049 190.520122,36.5579268 C190.430488,36.552439 190.33628,36.5643293 190.235671,36.6045732 C185.7,38.4 187.035366,44.7054878 187.334451,48.6283537 C187.939024,56.5628049 191.210671,63.9594512 191.608537,71.9103659 C191.608537,71.9121951 191.609451,71.9131098 191.609451,71.9158537 C191.292073,72.2012195 191.240854,72.7847561 191.757622,72.9713415 C197.331402,74.9908537 205.210061,74.4320122 209.912195,70.6454268 C210.254268,70.370122 210.179268,69.9603659 209.942378,69.7143293 C209.955183,69.6484756 209.966159,69.582622 209.956098,69.504878 C209.029573,62.6807927 207.488415,55.9646341 205.214634,49.4771341 C205.313415,49.3198171 203.392683,44.6853659 203.228963,44.2966463 C203.1,43.9911585 202.966463,43.7021341 202.832012,43.4176829 C212.712805,37.5375 222.464634,31.4496951 232.07378,25.1332317 C232.440549,25.1496951 232.812805,24.9045732 232.716768,24.4445122" id="Fill-18" fill="#007478"></path>
                <path d="M195.624695,47.5884146 C198.02378,46.3271341 200.42378,45.064939 202.822866,43.8036585 C203.112805,43.6518293 202.855793,43.2118902 202.566768,43.3646341 C200.166768,44.6259146 197.766768,45.8871951 195.367683,47.1493902 C195.076829,47.3012195 195.333841,47.7411585 195.624695,47.5884146" id="Fill-19" fill="#115D5E"></path>
                <path d="M147.73628,52.9289634 C140.253659,44.597561 125.250915,48.5432927 121.253049,58.4286585 C118.962805,64.0920732 118.978354,70.5914634 119.003963,76.6015244 C119.039634,85.1213415 120.200305,93.3996951 124.254878,100.9875 C124.378354,101.217988 124.698476,101.140244 124.753354,100.952744 C124.944512,100.985671 125.135671,101.009451 125.325915,101.035061 C125.495122,101.077134 125.675305,101.102744 125.866463,101.112805 C129.001829,101.439329 132.439939,101.562805 134.960671,99.579878 C139.367378,96.1125 138.865244,85.7515244 138.999695,85.592378 C139.41128,85.3097561 139.710366,74.4667683 146.035976,63.2743902 C149.732927,59.764939 150.457317,56.7073171 147.73628,52.9289634" id="Fill-20" fill="#482641"></path>
                <path d="M151.882317,70.6335366 C150.887195,66.6301829 148.731402,58.3097561 148.734146,58.2667683 C148.585061,57.664939 147.893598,58.2439024 147.860671,58.3006098 C146.683537,59.5335366 145.381098,60.5286585 143.829878,61.2603659 C143.116463,61.5969512 141.653963,62.1237805 141.455488,63.3768293 C141.053049,65.9204268 142.362805,67.960061 139.313415,69.7033537 C139.221037,69.7564024 139.129573,69.8588415 139.157012,69.9777439 C139.319817,70.6746951 139.482622,71.372561 139.645427,72.0695122 C139.616159,72.0731707 138.957622,72.2396341 138.867073,72.2259146 C138.759146,71.9817073 138.269817,70.7432927 138.242378,70.6884146 C137.091768,68.3935976 133.050915,66.6960366 131.475915,69.5817073 C129.629268,72.9658537 134.378049,76.1003049 136.803659,77.342378 C136.846646,77.3634146 137.160366,77.4777439 137.271037,77.5006098 C137.642378,78.6832317 138.782012,84.627439 138.791159,84.6887195 C138.791159,84.6914634 138.912805,85.0362805 138.912805,85.0362805 C140.476829,85.4698171 144.535976,85.2759146 144.472866,84.9878049 C144.378659,84.5652439 143.941463,82.1277439 143.830793,81.3283537 C147.221341,80.6844512 150.770122,79.0820122 152.168598,76.7094512 C153.261585,74.8527439 152.34878,72.5121951 151.882317,70.6335366" id="Fill-21" fill="#F6C8AD"></path>
                <path d="M154.377439,120.264329 C154.400305,120.19939 153.372256,104.897561 151.596037,94.8137195 C149.71372,87.6905488 146.516159,84.7902439 140.100915,83.720122 C139.878659,83.6835366 139.056402,83.8948171 138.948476,83.9204268 C134.095427,85.0765244 134.840854,91.6079268 134.571037,95.6222561 C134.025915,103.741463 136.256707,111.705183 135.49939,119.811585 C135.49939,119.813415 135.500305,119.815244 135.500305,119.817073 C135.137195,120.060366 135,120.642988 135.495732,120.907317 C140.843598,123.76372 148.899695,124.349085 154.210976,121.202744 C154.597866,120.973171 154.581402,120.547866 154.377439,120.264329" id="Fill-22" fill="#E15967"></path>
                <path d="M102.338415,63.9832317 C101.939634,63.6942073 101.502439,63.5140244 101.05061,63.402439 C101.021341,63.357622 101.003049,63.310061 100.971037,63.2661585 C100.071037,62.0551829 98.4713415,61.4789634 97.002439,61.8329268 C96.6164634,61.9253049 96.2515244,62.0753049 95.9158537,62.267378 C95.3780488,60.7920732 94.1085366,59.5682927 92.3286585,59.314939 C92.2472561,59.3030488 92.1658537,59.3103659 92.0835366,59.3085366 C91.3344512,59.0213415 90.5240854,58.9783537 89.7594512,59.1795732 C88.6317073,58.7780488 87.6027439,59.2097561 86.9085366,60.0384146 C86.7868902,59.9716463 86.6707317,59.9021341 86.539939,59.8454268 C83.6057927,58.5667683 80.3304878,61.0015244 79.9509146,63.9429878 C79.8027439,63.9356707 79.6554878,63.9210366 79.5054878,63.927439 C76.5292683,64.0518293 75,66.6685976 74.9734756,69.3356707 C74.8280488,69.3612805 74.679878,69.3786585 74.5362805,69.4079268 C72.5771341,69.8003049 71.5820122,71.8490854 72.4509146,73.6445122 C72.6310976,74.0167683 72.8716463,74.3487805 73.1506098,74.6414634 C73.1231707,74.7393293 73.0847561,74.8317073 73.0637195,74.9314024 C72.8021341,75.2743902 72.5652439,75.6402439 72.3905488,76.0490854 C71.4795732,78.1829268 72.0219512,80.4045732 73.1908537,82.2658537 C72.8515244,83.2042683 72.8359756,84.2661585 73.2942073,85.4131098 C74.2792683,87.8789634 77.2618902,90.0256098 79.8960366,90.1737805 C80.1356707,90.1875 80.3689024,90.1664634 80.6030488,90.15 C80.4009146,91.8631098 81.1353659,93.654878 82.9902439,94.5009146 C83.3167683,94.65 83.6551829,94.7378049 83.9945122,94.7945122 C85.3536585,95.3945122 86.945122,95.1731707 88.414939,94.7542683 C91.6344512,93.8359756 91.557622,89.6259146 91.5896341,89.5628049 C92.2271341,88.3088415 93.460061,85.4240854 94.6929878,84.2039634 C96.9512195,82.0317073 103.637195,72.3164634 104.344207,71.0368902 C105.385061,69.1554878 104.175,65.3176829 102.338415,63.9832317" id="Fill-23" fill="#1E1818"></path>
                <path d="M104.12561,82.9884146 C103.130488,78.985061 100.974695,70.6655488 100.977439,70.6216463 C100.829268,70.0207317 100.13689,70.5996951 100.103963,70.6554878 C98.9268293,71.8893293 97.6243902,72.8844512 96.0740854,73.6161585 C95.3606707,73.9527439 93.8981707,74.4795732 93.6987805,75.7317073 C93.2963415,78.2753049 94.6070122,80.3158537 91.557622,82.0591463 C91.4643293,82.1112805 91.3737805,82.2146341 91.4012195,82.3335366 C91.5640244,83.0304878 91.7268293,83.727439 91.8887195,84.4253049 C91.8603659,84.4289634 91.2009146,84.5954268 91.1103659,84.5817073 C91.0033537,84.3365854 90.5140244,83.0981707 90.4865854,83.0442073 C89.335061,80.7493902 85.2942073,79.0518293 83.720122,81.9365854 C81.872561,85.3216463 86.6222561,88.4560976 89.0478659,89.6972561 C89.0908537,89.7192073 89.4045732,89.8335366 89.5152439,89.8564024 C89.8856707,91.0390244 91.0262195,96.9832317 91.0344512,97.0445122 C91.0353659,97.0463415 91.1570122,97.3911585 91.1570122,97.3911585 C92.720122,97.8256098 96.7792683,97.6317073 96.7161585,97.3435976 C96.6228659,96.920122 96.1856707,94.4835366 96.075,93.6841463 C99.4655488,93.0402439 103.013415,91.4378049 104.41189,89.0643293 C105.505793,87.2085366 104.592988,84.8679878 104.12561,82.9884146" id="Fill-24" fill="#E89D7C"></path>
                <path d="M106.621646,132.620122 C106.643598,132.555183 105.616463,117.252439 103.839329,107.168598 C101.957927,100.046341 98.7603659,97.145122 92.3442073,96.0759146 C92.1228659,96.0393293 91.2996951,96.2506098 91.1926829,96.2762195 C86.3396341,97.4323171 87.085061,103.96372 86.8143293,107.978049 C86.2692073,116.097256 88.5009146,124.060976 87.7435976,132.167378 C87.7435976,132.169207 87.7445122,132.171037 87.7445122,132.172866 C87.3814024,132.415244 87.2442073,132.99878 87.739939,133.26311 C93.0868902,136.119512 101.142988,136.704878 106.454268,133.557622 C106.841159,133.328049 106.82561,132.903659 106.621646,132.620122" id="Fill-25" fill="#4C3A5C"></path>
                <polyline id="Fill-26" fill="#FFFFFE" points="299.682622 85.810061 10.1652439 215.521646 68.1503049 125.889329 299.682622 85.810061"></polyline>
            </g>
        </g>
    </g>
</svg>