<?xml version="1.0" encoding="UTF-8"?>
<svg width="664px" height="871px" viewBox="0 0 664 871" version="1.1" xmlns="http://www.w3.org/2000/svg" xmlns:xlink="http://www.w3.org/1999/xlink">
    <!-- Generator: Sketch 51.3 (57544) - http://www.bohemiancoding.com/sketch -->
    <title>Group</title>
    <desc>Created with Sketch.</desc>
    <defs></defs>
    <g id="Page-1" stroke="none" stroke-width="1" fill="none" fill-rule="evenodd">
        <g id="59940" transform="translate(-229.000000, -153.000000)">
            <g id="Group" transform="translate(229.000000, 153.000000)">
                <polygon id="Fill-3" fill="#7F7F7F" points="229.777921 775.971331 66.8460134 732.877133 0 641.033923 357.936781 433 393.08784 481.294947 66.5830055 670.455155 229.787921 713.925407 515.055514 547.816515 588.905738 566.611218 664 662.970078 306.062219 871"></polygon>
                <polyline id="Fill-4" fill="#898883" points="67 670.857836 66.9789576 678 0 586.142164 0.0200403799 579 67 670.857836"></polyline>
                <polyline id="Fill-5" fill="#BAB9B1" points="230 713.893265 229.979993 721 67 678.107731 67.0210068 671 230 713.893265"></polyline>
                <polyline id="Fill-6" fill="#E8E8E8" points="425.136511 463 67 670.840553 67.2738337 671.217009 230.100952 714.357222 230.616639 715 589 504.771557 425.136511 463"></polyline>
                <polyline id="Fill-7" fill="#F4F4F4" points="664 600.235203 589.614382 504.192778 588.854844 504 230 713.731533 305.820633 808 664 600.235203"></polyline>
                <polyline id="Fill-8" fill="#CECECE" points="424.845973 462.689552 357.989175 371 0 578.685872 66.5827499 670 425 462.728493 424.845973 462.689552"></polyline>
                <polyline id="Fill-9" fill="#C6C5C1" points="664 601 663.979997 608.136187 306 816 306.020003 808.863813 664 601"></polyline>
                <polyline id="Fill-10" fill="#919087" points="306 808.870184 305.980079 816 230 721.127819 230.019921 714 306 808.870184"></polyline>
                <path d="M379.657804,327.430415 C380.355191,327.240794 381.036547,327.022383 381.715899,326.8 C382.152768,326.65704 382.594647,326.525 383.024502,326.369134 C383.762972,326.10009 384.480399,325.794314 385.196825,325.48556 C385.54652,325.333664 385.905234,325.200632 386.24992,325.040794 C387.300009,324.552347 388.328055,324.026173 389.328044,323.450361 L427,301.759116 C426.001012,302.333935 424.971965,302.861101 423.922877,303.349549 C423.57719,303.510379 423.21547,303.644404 422.864772,303.795307 C422.150351,304.103069 421.432923,304.408845 420.696458,304.677888 C420.267605,304.833755 419.824723,304.965794 419.388856,305.107762 C418.708502,305.331137 418.027147,305.549549 417.330761,305.73917 C416.854814,305.868231 416.368847,305.977437 415.885886,306.090614 C415.204531,306.251444 414.519167,306.403339 413.824785,306.531408 C413.290723,306.629693 412.750648,306.715072 412.20857,306.794495 C411.612383,306.882852 411.011187,306.96426 410.403979,307.030776 C409.835849,307.091336 409.262708,307.138989 408.686562,307.179693 C408.070336,307.224368 407.451104,307.260108 406.824858,307.281949 C406.239693,307.300812 405.650521,307.308755 405.057341,307.307762 C404.423079,307.307762 403.784809,307.297834 403.141529,307.274007 C402.539331,307.252166 401.934127,307.219404 401.323913,307.176715 C400.672617,307.13204 400.017313,307.075451 399.358001,307.005957 C398.690673,306.937455 398.019337,306.859025 397.343994,306.764711 C396.853017,306.697202 396.361038,306.625722 395.867055,306.544314 C395.118566,306.423195 394.363063,306.280235 393.604553,306.129332 C393.123596,306.033032 392.643641,305.941697 392.158677,305.833484 C391.33604,305.649819 390.504385,305.438357 389.671728,305.219946 C389.242875,305.107762 388.81803,305.009477 388.387172,304.888357 C387.260932,304.571661 386.125673,304.221209 384.981396,303.841968 C384.838111,303.794314 384.69683,303.756588 384.552543,303.707942 C383.264981,303.273105 381.966397,302.792599 380.657793,302.277347 C380.255994,302.118502 379.848182,301.937816 379.444379,301.772022 C378.532565,301.397744 377.617745,301.014531 376.696912,300.600542 C376.193912,300.375181 375.687905,300.130957 375.1829,299.89269 C374.347237,299.500542 373.510573,299.098466 372.666894,298.673556 C372.128823,298.401534 371.587747,298.117599 371.04667,297.832671 C369.924437,297.241968 368.803206,296.647292 367.671956,296 L330,317.691245 C330.695384,318.08935 331.388763,318.476534 332.079137,318.851805 C332.513,319.088087 332.940851,319.295578 333.371709,319.522924 C333.914789,319.808845 334.456868,320.09278 334.99594,320.364801 C335.838617,320.789711 336.675282,321.190794 337.510944,321.583935 C338.015949,321.821209 338.521956,322.066426 339.023955,322.29278 C339.944787,322.705776 340.857603,323.087996 341.769418,323.461282 C342.174223,323.628069 342.583036,323.809747 342.98684,323.968592 C344.280414,324.478881 345.566973,324.954422 346.841509,325.386282 L346.880587,325.399188 C347.025876,325.447834 347.170163,325.486552 347.315452,325.534206 C348.457725,325.912455 349.59098,326.263899 350.715217,326.579603 C351.145072,326.699729 351.569917,326.8 351.998771,326.911191 C352.832429,327.129603 353.663082,327.341065 354.486721,327.523736 C354.971686,327.632942 355.451641,327.723285 355.932598,327.819585 C356.691107,327.97148 357.445608,328.11444 358.1951,328.236552 C358.690084,328.316968 359.181061,328.387455 359.671036,328.455957 C360.028748,328.506588 360.392472,328.573105 360.748179,328.615794 C361.063807,328.654513 361.371419,328.665433 361.685043,328.697202 C362.345357,328.765704 362.999659,328.823285 363.650955,328.86796 C364.261169,328.91065 364.867375,328.943412 365.469573,328.965253 C366.112853,328.989079 366.751123,329 367.385385,329 C367.977564,329 368.567738,328.993051 369.152902,328.972202 C369.779148,328.951354 370.39838,328.915614 371.014606,328.871931 C371.590753,328.830235 372.163893,328.782581 372.731022,328.721029 C373.339232,328.656498 373.939426,328.57509 374.537616,328.486733 C374.860258,328.439079 375.19292,328.413267 375.512556,328.359657 C375.729989,328.322924 375.936399,328.262365 376.151828,328.222653 C376.848213,328.094585 377.531573,327.94269 378.212929,327.782852 C378.696892,327.669675 379.181857,327.559477 379.657804,327.430415" id="Fill-12" fill="#9B5C5D"></path>
                <path d="M320.428856,311.659134 C320.96086,312.037305 321.488848,312.42448 322.023863,312.792646 C322.932284,313.416928 323.848735,314.013198 324.765186,314.608467 C325.216887,314.901599 325.662565,315.208738 326.116274,315.494868 C327.489445,316.36226 328.869643,317.199638 330.260882,318 L368,296.141119 C366.609765,295.341757 365.229567,294.503378 363.855392,293.635986 C363.401684,293.348856 362.952994,293.041717 362.500289,292.746584 C361.584842,292.152315 360.671402,291.557046 359.764989,290.933765 C359.22897,290.565598 358.698974,290.176422 358.164963,289.798251 C357.350898,289.218989 356.535828,288.641728 355.727785,288.040457 C355.165668,287.621267 354.607567,287.18607 354.049465,286.755876 C353.290607,286.173613 352.533757,285.589349 351.781926,284.987076 C351.13248,284.465841 350.488053,283.929598 349.843627,283.395357 C349.150015,282.819096 348.456403,282.242836 347.768813,281.650568 C347.132417,281.10232 346.502043,280.541067 345.870665,279.977812 C345.191106,279.373539 344.511547,278.767265 343.838011,278.146984 C343.210648,277.567722 342.589308,276.976455 341.967968,276.384187 C341.30447,275.752902 340.641975,275.120616 339.98751,274.475324 C339.372193,273.870051 338.763902,273.252772 338.155612,272.635493 C337.50717,271.977195 336.859732,271.316897 336.21932,270.644593 C335.61906,270.014308 335.024822,269.375019 334.431588,268.734729 C333.798203,268.05042 333.167829,267.36411 332.543477,266.666795 C331.958274,266.0145 331.378089,265.353201 330.800915,264.6889 C330.184594,263.981581 329.570281,263.270259 328.962994,262.549934 C328.392847,261.874628 327.828723,261.19232 327.266606,260.50701 C326.668353,259.77768 326.074115,259.044349 325.484896,258.305015 C324.931813,257.6087 324.383749,256.907383 323.839701,256.202064 C323.258512,255.450724 322.681339,254.695383 322.110188,253.933038 C321.575173,253.218715 321.044173,252.49939 320.518193,251.777064 C319.958083,251.006715 319.400985,250.232365 318.850914,249.453013 C318.332963,248.720682 317.821036,247.984349 317.312119,247.244014 C316.771082,246.456658 316.236067,245.665301 315.706071,244.86794 C315.207192,244.118602 314.712329,243.365261 314.223488,242.608919 C313.70353,241.805556 313.190598,240.997191 312.682686,240.186824 C312.202879,239.422479 311.729094,238.656132 311.260329,237.885784 C310.762454,237.067414 310.27261,236.246043 309.785776,235.42167 C309.328053,234.643318 308.872336,233.861965 308.423647,233.07761 C307.948859,232.246235 307.483105,231.411857 307.020362,230.574479 C306.583718,229.784122 306.149081,228.992764 305.724482,228.197404 C305.271777,227.354023 304.830114,226.50764 304.390459,225.658256 C303.977905,224.858895 303.566355,224.060534 303.163839,223.256171 C302.735225,222.398783 302.316649,221.538394 301.901084,220.678005 C301.511617,219.871641 301.124158,219.064276 300.746737,218.25591 C300.375338,217.45955 300.015985,216.660189 299.656632,215.860827 C299.202923,214.853372 298.755237,213.843916 298.319597,212.830458 C297.983331,212.047103 297.653087,211.261748 297.327862,210.475393 C296.907278,209.462935 296.497736,208.448477 296.098232,207.432017 C295.78706,206.643661 295.479903,205.855304 295.180777,205.064947 C294.793318,204.040484 294.418908,203.01402 294.05052,201.987556 C293.769462,201.203201 293.488403,200.418847 293.218387,199.633492 C292.860037,198.59002 292.52076,197.544548 292.183489,196.499075 C291.924514,195.695712 291.661524,194.89435 291.414594,194.089986 C291.206811,193.41368 291.011074,192.736374 290.812326,192.059068 C290.525245,191.080625 290.243183,190.100182 289.975173,189.12174 C289.783451,188.422424 289.600763,187.725109 289.419079,187.026793 C289.169138,186.063357 288.928231,185.099922 288.697361,184.136486 C288.528726,183.43717 288.364106,182.738855 288.206513,182.039538 C287.987689,181.071101 287.782918,180.102663 287.584169,179.136226 C287.442636,178.451917 287.301103,177.765606 287.170612,177.081297 C286.971863,176.042828 286.792187,175.007359 286.616525,173.972892 C286.518155,173.391629 286.412758,172.808365 286.322418,172.228103 C286.126681,170.977538 285.957042,169.731975 285.797441,168.489413 C285.750263,168.122247 285.692044,167.756082 285.647878,167.390916 C285.455152,165.786191 285.292539,164.188469 285.161044,162.59775 C285.126916,162.186564 285.108848,161.77938 285.078734,161.367193 C284.994417,160.225677 284.921141,159.085162 284.868944,157.950649 C284.78563,156.087807 284.734438,154.232968 284.739457,152.395138 C284.743472,150.934477 284.787638,149.506832 284.847865,148.094193 C284.863925,147.715022 284.884001,147.338852 284.904077,146.963682 C284.969322,145.760138 285.05364,144.573602 285.159037,143.407074 C285.178108,143.19898 285.191158,142.985884 285.211233,142.779791 C285.338713,141.464196 285.498314,140.176614 285.677991,138.908041 C285.743237,138.445832 285.820528,137.994628 285.8928,137.538421 C286.033329,136.65102 286.182892,135.771623 286.348516,134.909233 C286.43986,134.432017 286.536223,133.958803 286.634593,133.48759 C286.812262,132.645209 287.004988,131.815835 287.205744,130.997465 C287.312145,130.565269 287.415534,130.131073 287.527958,129.706881 C287.777899,128.768457 288.047916,127.853043 288.328974,126.948634 C288.413292,126.677512 288.488575,126.395384 288.575904,126.127263 C288.952321,124.96974 289.355841,123.840229 289.784455,122.739732 C289.892863,122.460605 290.013317,122.195486 290.124737,121.921362 C290.456988,121.103992 290.797269,120.297628 291.15863,119.514274 C291.327265,119.144106 291.505938,118.784944 291.682603,118.42278 C292.009835,117.748475 292.346102,117.084175 292.695417,116.434882 C292.891154,116.070717 293.088899,115.709554 293.291663,115.353393 C293.659046,114.708101 294.039479,114.078816 294.427942,113.459537 C294.624682,113.147395 294.815401,112.830252 295.016157,112.526115 C295.522062,111.758768 296.047039,111.014431 296.586069,110.291104 C296.681428,110.164047 296.76976,110.026985 296.866123,109.900928 C297.506535,109.059547 298.173045,108.253183 298.858627,107.47283 C299.058379,107.244727 299.268169,107.031631 299.47294,106.80853 C299.970815,106.265284 300.475716,105.732043 300.994671,105.220812 C301.259669,104.961695 301.528682,104.710581 301.798698,104.459468 C302.285532,104.004262 302.782403,103.560061 303.288308,103.131868 C303.571374,102.891759 303.855444,102.653652 304.143529,102.422547 C304.684566,101.988351 305.238653,101.575164 305.798762,101.171982 C306.058741,100.983897 306.312697,100.789809 306.576691,100.608727 C307.402802,100.043472 308.244974,99.5012266 309.111236,99 L271.371114,120.857881 C270.505856,121.359108 269.663684,121.901353 268.836569,122.468609 C268.573579,122.64769 268.318619,122.843779 268.059644,123.029863 C267.499534,123.433045 266.945448,123.847232 266.40441,124.280428 C266.116325,124.512533 265.832256,124.750641 265.54919,124.990749 C265.043285,125.419943 264.547417,125.862143 264.05958,126.318349 C263.789563,126.569463 263.519546,126.819576 263.255552,127.079694 C262.736598,127.590925 262.233704,128.123165 261.736833,128.66541 C261.531058,128.889512 261.320264,129.102608 261.118505,129.332712 C260.433927,130.112064 259.767417,130.918429 259.127005,131.759809 C259.029638,131.887867 258.939298,132.02693 258.841931,132.156989 C258.304909,132.878315 257.78194,133.61965 257.277038,134.384996 C257.075279,134.689133 256.88456,135.007277 256.688823,135.318418 C256.301364,135.937698 255.919928,136.564981 255.552544,137.211274 C255.349781,137.567435 255.151032,137.931599 254.955295,138.296764 C254.606983,138.943056 254.270717,139.605356 253.944489,140.27766 C253.767823,140.642825 253.58915,141.002988 253.417504,141.375156 C253.059155,142.155509 252.718873,142.957871 252.38863,143.77224 C252.275202,144.049365 252.153745,144.317486 252.044333,144.600614 C251.616723,145.700111 251.214207,146.828621 250.836786,147.986144 C250.749457,148.255266 250.674173,148.537394 250.589856,148.810517 C250.308797,149.711925 250.03878,150.627338 249.789843,151.563762 C249.676416,151.989954 249.573027,152.427152 249.465622,152.861348 C249.263862,153.677717 249.07214,154.504091 248.895475,155.346472 C248.796101,155.817685 248.700742,156.289898 248.608394,156.769115 C248.44277,157.631505 248.294211,158.509902 248.152678,159.398303 C248.081409,159.853509 248.005122,160.304713 247.938873,160.767922 C247.912774,160.956008 247.877642,161.137089 247.851544,161.327175 C247.704992,162.412666 247.580523,163.519166 247.471111,164.638672 C247.451036,164.845766 247.437986,165.058862 247.418915,165.265956 C247.313518,166.432483 247.230204,167.61902 247.164958,168.823564 C247.144883,169.198734 247.124807,169.574904 247.108747,169.953075 C247.047516,171.365713 247.005357,172.792358 247.000338,174.254019 C246.995319,176.09185 247.046512,177.946688 247.129826,179.810531 C247.136852,179.958598 247.132837,180.103663 247.139864,180.25173 C247.189049,181.239177 247.26634,182.233626 247.338612,183.227075 C247.369729,183.637261 247.387797,184.044445 247.421926,184.456631 C247.553421,186.04735 247.716033,187.645072 247.908759,189.250798 C247.952926,189.614963 248.011145,189.982129 248.058322,190.347294 C248.217923,191.590856 248.387562,192.83742 248.583299,194.086985 C248.67364,194.668247 248.78004,195.250511 248.878411,195.831773 C249.003883,196.57611 249.11731,197.317445 249.254828,198.063782 C249.308029,198.355914 249.375282,198.649047 249.431494,198.941179 C249.560981,199.623487 249.703518,200.305796 249.844047,200.989105 C250.042796,201.960544 250.24857,202.930982 250.468398,203.903422 C250.624988,204.598736 250.788604,205.294051 250.956235,205.989365 C251.188109,206.956802 251.43002,207.923239 251.680965,208.890677 C251.861645,209.586991 252.045337,210.282306 252.235051,210.97862 C252.504064,211.959064 252.786126,212.938506 253.072204,213.91895 C253.270952,214.596256 253.467693,215.272562 253.675476,215.949868 C253.754774,216.210986 253.826043,216.472104 253.907349,216.732221 C254.075984,217.274467 254.269713,217.814711 254.443367,218.357956 C254.780637,219.403429 255.121923,220.447901 255.480272,221.492373 C255.749285,222.277728 256.030344,223.061082 256.311402,223.846437 C256.679789,224.873902 257.054199,225.899365 257.441658,226.923829 C257.741789,227.714186 258.047941,228.502542 258.358109,229.290899 C258.759621,230.308359 259.169164,231.321817 259.58774,232.334274 C259.913969,233.12063 260.244212,233.905985 260.580478,234.69134 C261.015115,235.700796 261.461797,236.708252 261.914502,237.714707 C262.129311,238.191922 262.32806,238.67314 262.546884,239.149355 C262.697451,239.474502 262.858055,239.794647 263.009626,240.118793 C263.38504,240.925158 263.770491,241.727521 264.157951,242.527882 C264.574519,243.395275 264.996107,244.258665 265.427732,245.120054 C265.827237,245.919416 266.235775,246.714775 266.647325,247.510135 C267.088988,248.36352 267.532659,249.213905 267.987371,250.062288 C268.410967,250.853646 268.841588,251.640002 269.277229,252.426357 C269.741979,253.267737 270.210744,254.107117 270.68754,254.942495 C271.134222,255.722847 271.586927,256.498198 272.043647,257.274549 C272.531484,258.101923 273.023336,258.927296 273.523218,259.748667 C273.989976,260.518015 274.464764,261.28136 274.94156,262.043705 C275.450476,262.855071 275.963408,263.663437 276.483366,264.467801 C276.97321,265.225143 277.46707,265.977483 277.966953,266.727822 C278.497952,267.525183 279.032967,268.31654 279.574005,269.104897 C280.080913,269.843231 280.592841,270.577562 281.108784,271.308893 C281.660863,272.090246 282.218965,272.867598 282.782086,273.638946 C283.307062,274.361273 283.836055,275.078597 284.370066,275.790919 C284.941216,276.553264 285.519394,277.309606 286.100582,278.062946 C286.644631,278.766264 287.190687,279.46558 287.742767,280.160895 C288.333993,280.90323 288.930238,281.637562 289.530499,282.369893 C290.091612,283.053202 290.654732,283.73451 291.223876,284.408815 C291.831163,285.130141 292.445476,285.840462 293.062801,286.548782 C293.639974,287.212082 294.217148,287.872381 294.801348,288.523675 C295.427707,289.221991 296.061092,289.911302 296.695481,290.596612 C297.286707,291.236902 297.879941,291.87519 298.479198,292.503474 C299.11961,293.175778 299.767048,293.836077 300.41549,294.494374 C301.02378,295.111653 301.632071,295.727932 302.247388,296.334206 C302.90386,296.979498 303.565351,297.611783 304.22885,298.244069 C304.85019,298.835337 305.47153,299.426604 306.099896,300.005866 C306.772429,300.626146 307.451988,301.23142 308.131547,301.837694 C308.761921,302.398947 309.393298,302.962202 310.030699,303.51045 C310.717284,304.101717 311.410896,304.677978 312.104508,305.254238 C312.748935,305.78948 313.392358,306.324722 314.042807,306.846958 C314.252597,307.015034 314.458372,307.194115 314.669166,307.36019 C315.211207,307.790385 315.76429,308.195568 316.309343,308.615758 C316.869452,309.044952 317.42655,309.480149 317.988667,309.899338 C318.797714,310.50161 319.613787,311.079872 320.428856,311.659134" id="Fill-13" fill="#A36162"></path>
                <path d="M455.308081,388.830898 L329,535 C353.952839,520.548645 376.307133,502.042838 395.140561,480.247908 L493,367 L455.308081,388.830898" id="Fill-14" fill="#995B5C"></path>
                <path d="M228.619929,29.372489 C228.996461,29.1942397 229.380002,29.0280751 229.760539,28.8558681 C230.34937,28.5910118 230.937199,28.3271626 231.532038,28.0764051 C231.940615,27.9052052 232.3552,27.7420618 232.767782,27.5779113 C233.348601,27.3462879 233.931424,27.1176857 234.519253,26.9001612 C234.945855,26.7430601 235.375461,26.5909943 235.806069,26.4409426 C236.391895,26.2365098 236.980726,26.0381194 237.572561,25.8477854 C238.009177,25.7078043 238.448798,25.5698373 238.890421,25.4369057 C239.491269,25.2546281 240.096122,25.0824212 240.704981,24.9152495 C241.144601,24.7944025 241.586224,24.6735556 242.028849,24.5607651 C242.655733,24.4006428 243.288626,24.2526053 243.922521,24.1075889 C244.355131,24.0078901 244.787742,23.9041631 245.223356,23.8125208 C245.89931,23.6695186 246.582274,23.5416222 247.264236,23.4157399 C247.670809,23.3402106 248.074379,23.2586388 248.482955,23.1891518 C249.049755,23.0934813 249.624566,23.0139237 250.195372,22.9293308 C250.679054,22.8568226 251.159732,22.7792792 251.64742,22.7168416 C252.230243,22.6423193 252.819073,22.5829028 253.406903,22.5194582 C253.892588,22.4670911 254.376271,22.4066676 254.863959,22.36135 C255.463805,22.3079759 256.068659,22.2697077 256.671509,22.2274113 C257.159197,22.1941784 257.641878,22.1518819 258.132571,22.1256984 C258.751444,22.0934726 259.37933,22.0773596 260.004211,22.0582255 C260.485891,22.0421126 260.963565,22.0169361 261.447247,22.0098867 C262.103173,21.997802 262.766108,22.0058585 263.428042,22.0098867 C263.888692,22.0108938 264.346338,22.0038444 264.809992,22.0129079 C265.527004,22.0249926 266.253028,22.0592326 266.976048,22.0894443 C267.390633,22.1065643 267.803215,22.1126067 268.219803,22.1367761 C269.170144,22.187129 270.127495,22.2596372 271.086849,22.3391947 C271.282124,22.3543006 271.475397,22.3633641 271.671674,22.3804841 C272.832311,22.482197 273.999959,22.6050581 275.174616,22.7490674 L275.259736,22.7611521 C277.107343,22.9867331 278.97598,23.2767659 280.857635,23.6060739 C281.122008,23.6523986 281.382375,23.6926809 281.646748,23.7400127 C283.461308,24.0703277 285.293894,24.4540169 287.138497,24.8789954 C287.482983,24.958553 287.825466,25.0381106 288.169952,25.1216964 C290.012552,25.5627879 291.86817,26.0461758 293.737808,26.5839449 C294.040235,26.6705519 294.344664,26.7632013 294.647091,26.8528294 C296.599846,27.4288667 298.564619,28.0421651 300.546415,28.7229364 L300.759716,28.7984658 C302.712471,29.4711807 304.680247,30.2053261 306.658038,30.9807608 C306.930422,31.087509 307.201805,31.1892219 307.47419,31.2969771 C309.411924,32.0693907 311.362676,32.8971925 313.322441,33.7682978 C313.68996,33.9324483 314.056477,34.0955917 314.425998,34.2627634 C316.376751,35.1459534 318.33952,36.073454 320.313305,37.0563427 C320.637763,37.2184791 320.965225,37.3876649 321.290684,37.5518153 C323.348588,38.5910994 325.413501,39.6706657 327.491433,40.8166979 C328.774243,41.5246598 330.060057,42.2507487 331.349877,43 L369,20.9967862 C367.730208,20.2596196 366.464422,19.5425942 365.201641,18.8447029 L365.14456,18.8144912 C363.063624,17.6664449 360.996708,16.5878856 358.938804,15.5486016 C358.613345,15.3844511 358.288887,15.2152653 357.964429,15.0531289 C355.989643,14.0712472 354.026874,13.1417326 352.074118,12.2585425 C351.7066,12.0913709 351.340083,11.9282275 350.973565,11.7660911 C349.011797,10.8949858 347.061045,10.0651699 345.123311,9.29376332 C344.851928,9.18500104 344.582548,9.08530228 344.311165,8.97855411 C342.332373,8.20311933 340.363595,7.46796687 338.41084,6.79525202 L338.24761,6.73482853 L338.196538,6.7187156 C336.215743,6.03895134 334.250971,5.42565292 332.298215,4.85062271 C331.994787,4.76099453 331.690358,4.66733812 331.38693,4.57972406 C329.517292,4.04396912 327.663676,3.55957414 325.821076,3.11848267 C325.47659,3.0359039 325.132104,2.95533924 324.787618,2.87678871 C322.944017,2.45080311 321.111431,2.06711395 319.296871,1.73780593 C319.032498,1.68946714 318.771129,1.64817775 318.508759,1.60286013 C316.626103,1.27455917 314.757466,0.984526422 312.909859,0.756931277 L312.848773,0.747867754 L312.823738,0.745853637 C311.64908,0.602851378 310.481433,0.479990283 309.321797,0.37727035 C309.12552,0.360150361 308.933248,0.352093896 308.736971,0.335980965 C307.777618,0.256423371 306.819266,0.183915183 305.869926,0.132555217 C305.452337,0.110399937 305.040756,0.10335053 304.62517,0.0862305412 C303.90215,0.0560187964 303.177127,0.022785877 302.460115,0.00868706276 C301.996461,-0.000376460696 301.538815,0.0076800046 301.077164,0.00566588828 C300.416231,0.00264471379 299.753296,-0.00541175151 299.09737,0.00566588828 C298.613688,0.0137223536 298.136014,0.0378917495 297.655336,0.0540046801 C297.030454,0.0741458433 296.402568,0.0892517157 295.782693,0.122484635 C295.293002,0.149675205 294.810321,0.19096459 294.324636,0.225204568 C293.719783,0.26750101 293.113928,0.304762162 292.515083,0.359143303 C292.025392,0.403453862 291.542711,0.462870294 291.058027,0.516244376 C290.470198,0.578681982 289.880365,0.638098414 289.297543,0.713627776 C288.809855,0.77707244 288.328175,0.854615919 287.844493,0.926117048 C287.272686,1.00970288 286.699878,1.09026753 286.133078,1.18593805 L285.882725,1.22420626 C285.557266,1.28060152 285.238816,1.35210265 284.91536,1.41252614 C284.231395,1.53840841 283.549433,1.66529774 282.873479,1.80930706 C282.436863,1.90094935 282.005254,2.00366928 281.571642,2.10336804 C280.938749,2.24939147 280.305856,2.39742902 279.679973,2.55654421 C279.235346,2.67134884 278.795725,2.79219582 278.356105,2.9130428 C277.747246,3.08021446 277.141391,3.2524214 276.540544,3.43369187 C276.09892,3.56662355 275.660302,3.70358346 275.222684,3.8445716 C274.629848,4.03490559 274.042018,4.23329605 273.456192,4.43772886 C273.025584,4.58778053 272.595978,4.73883925 272.169376,4.89694738 C271.580545,5.11447194 270.997723,5.34307415 270.416903,5.57469752 C270.004321,5.738848 269.591739,5.90199143 269.183163,6.07319131 C268.58632,6.3239488 267.996488,6.58779804 267.407657,6.85466845 C267.028122,7.02586834 266.646584,7.19203293 266.271054,7.36927517 C265.624141,7.67441379 264.986241,7.99868652 264.348341,8.32195219 C264.04291,8.47804621 263.73147,8.62608376 263.428042,8.786206 C262.491721,9.2796645 261.564413,9.79024299 260.651124,10.3239838 L223,32.3282047 C223.91429,31.7934568 224.839596,31.2838853 225.775917,30.7894198 C226.082349,30.6282905 226.396793,30.4792459 226.705228,30.3221448 C227.339122,29.9988791 227.97502,29.6776276 228.619929,29.372489" id="Fill-15" fill="#A36162"></path>
                <path d="M330.716543,318.0377 C284.778057,291.479075 247.653018,227.089949 247.802958,174.217936 C247.952897,121.370947 285.319838,100.035361 331.258325,126.593986 C377.207807,153.159618 414.319851,217.554749 414.169912,270.401739 C414.019972,323.272751 376.665026,344.603332 330.716543,318.0377 Z M331.49523,42.8792144 C247.539064,-5.65861717 179.273575,33.3109825 179.000685,129.91419 C178.896727,166.528517 190.639994,206.055655 205.262102,244.788025 L329.734939,536 L455.674185,389.56171 C472.057583,364.607633 482.895215,342.649446 482.999174,305.668766 C483.273063,209.065559 415.438401,91.4100391 331.49523,42.8792144 Z" id="Fill-16" fill="#C77677"></path>
                <path d="M498.074463,358.699221 C498.374204,358.209483 498.672945,357.719745 498.96769,357.233006 C499.561177,356.251531 500.142674,355.271056 500.716178,354.29258 C500.971957,353.853815 501.232731,353.41505 501.484513,352.976284 C502.289816,351.576034 503.080133,350.173785 503.840475,348.767537 L503.899424,348.655597 C504.634788,347.295326 505.344174,345.926059 506.035576,344.552794 C506.259382,344.11103 506.473197,343.664269 506.692008,343.219507 C507.180585,342.226039 507.659171,341.226574 508.124769,340.222112 C508.356568,339.72138 508.586369,339.21765 508.813173,338.714919 C509.268779,337.698463 509.709398,336.675011 510.141024,335.643563 C510.33086,335.189806 510.526691,334.737048 510.71253,334.280293 C511.311012,332.804083 511.889512,331.31588 512.436039,329.805688 L512.50398,329.603796 C513.021532,328.161568 513.511109,326.696353 513.980703,325.214146 C514.134569,324.726407 514.278445,324.229673 514.427316,323.737936 C514.759029,322.642523 515.077754,321.538114 515.380492,320.419713 C515.53236,319.861012 515.681231,319.299313 515.825107,318.733615 C516.117854,317.589228 516.393615,316.425851 516.657387,315.25048 C516.771288,314.742752 516.892184,314.24102 517.000091,313.728295 C517.354784,312.047195 517.688495,310.343107 517.98324,308.597042 C518.001224,308.485102 518.015212,308.369164 518.033197,308.257224 C518.266995,306.855974 518.484806,305.438733 518.677639,303.990508 C518.710611,303.749637 518.731593,303.495773 518.763565,303.252903 C518.837501,302.667216 518.900446,302.067537 518.967389,301.473855 C519.114262,300.198538 519.248146,298.907229 519.363046,297.594932 C519.420996,296.92529 519.476948,296.249652 519.526905,295.571015 C519.627817,294.221737 519.708747,292.847473 519.776688,291.456218 C519.806663,290.832552 519.843631,290.217881 519.86761,289.585219 C519.942545,287.565301 519.993501,285.510401 519.999496,283.395533 C520.003492,281.71943 519.98351,280.037331 519.947541,278.349234 C519.935551,277.804526 519.914569,277.256819 519.898583,276.711111 C519.864612,275.553731 519.825646,274.395351 519.772692,273.232973 C519.761701,272.970114 519.757705,272.710253 519.744716,272.447394 C519.732726,272.208522 519.709746,271.965652 519.696758,271.72578 C519.573864,269.374039 519.421995,267.013303 519.224166,264.641572 C519.203185,264.378713 519.175209,264.112855 519.152229,263.848997 C518.948405,261.500254 518.710611,259.143516 518.43385,256.778781 C518.408872,256.558899 518.38789,256.341016 518.360913,256.121134 C518.073162,253.715421 517.741449,251.301713 517.380761,248.882009 C517.316817,248.451239 517.25487,248.021469 517.187928,247.5917 C516.824243,245.228964 516.425588,242.862231 515.992962,240.490501 C515.95999,240.3056 515.934013,240.121698 515.900042,239.936797 C515.85608,239.694927 515.800129,239.453056 515.755167,239.212185 C515.287572,236.716521 514.791002,234.216859 514.250469,231.7132 C514.188523,231.426353 514.12258,231.140506 514.059634,230.854659 C513.494124,228.274041 512.89664,225.691423 512.256194,223.105807 L512.198245,222.866935 C511.551804,220.269326 510.858404,217.668718 510.138027,215.06911 C510.040112,214.719297 509.948191,214.370484 509.849277,214.02267 C509.149882,211.535002 508.41252,209.046334 507.646183,206.559665 C507.574245,206.327789 507.512298,206.093914 507.439362,205.861039 C507.386407,205.688132 507.323462,205.517223 507.269508,205.344316 C506.305343,202.259967 505.29122,199.178616 504.226141,196.101264 C504.122231,195.800425 504.022318,195.499586 503.916409,195.197747 C502.797377,191.988465 501.624392,188.78618 500.400451,185.59089 C500.3435,185.442969 500.289547,185.294049 500.232596,185.144129 C498.951704,181.814912 497.614861,178.494689 496.223065,175.18646 C496.17111,175.063526 496.117156,174.940592 496.065201,174.817657 C494.717367,171.622368 493.317578,168.439072 491.868832,165.268769 C491.819874,165.160827 491.774913,165.050886 491.724956,164.940945 C491.633036,164.741052 491.533122,164.544157 491.441202,164.345264 C490.185288,161.614725 488.897402,158.896181 487.569551,156.189629 C487.429672,155.904782 487.285796,155.620934 487.145917,155.336086 C485.796085,152.60255 484.414281,149.880007 482.99351,147.175455 C482.86562,146.931586 482.733734,146.689715 482.604846,146.444846 C481.159097,143.706312 479.681375,140.98377 478.166685,138.279217 C478.052784,138.074327 477.934886,137.872435 477.819985,137.669544 C476.27732,134.928011 474.703681,132.20347 473.091076,129.502916 C473.002153,129.353995 472.910233,129.206074 472.820311,129.057154 C471.174734,126.306627 469.495187,123.576088 467.778672,120.871536 L467.612816,120.612675 C465.856335,117.849154 464.066883,115.108621 462.240463,112.399072 L462.20949,112.353096 C460.377075,109.632553 458.507693,106.941993 456.608336,104.280418 L456.484443,104.103513 C454.61506,101.488912 452.712706,98.9052953 450.781377,96.3516623 C450.693453,96.2367238 450.608526,96.1207859 450.521601,96.0058474 C448.625242,93.5031872 446.694912,91.0335092 444.740603,88.5948147 C444.614711,88.4358998 444.489819,88.2759854 444.362929,88.1180699 C442.437595,85.7243514 440.483286,83.3646146 438.504997,81.0368607 C438.341139,80.843964 438.179279,80.6470694 438.014421,80.4541726 C436.061111,78.1653979 434.080824,75.9136033 432.078556,73.6927922 C431.880728,73.4729099 431.684897,73.2510287 431.486069,73.0311464 C429.504783,70.8453165 427.49752,68.6964668 425.470273,66.5796001 C425.244469,66.3437263 425.019663,66.1048542 424.79186,65.867981 C422.777603,63.7790992 420.740365,61.7291966 418.683145,59.7122763 C418.436358,59.4704058 418.19157,59.2265363 417.943785,58.9856653 C415.898554,56.9927322 413.831342,55.042776 411.747145,53.1268017 C411.477379,52.8789344 411.208611,52.6290681 410.937845,52.3822003 C408.86364,50.4912126 406.769452,48.6422024 404.658278,46.8311719 C404.369528,46.5823051 404.081777,46.3324389 403.792027,46.085571 C401.687848,44.2945298 399.566683,42.5474651 397.429532,40.8403789 C397.259678,40.7044517 397.093822,40.5585298 396.923969,40.4226026 C396.782092,40.309663 396.635219,40.2057187 396.493341,40.0917797 C394.496069,38.5106261 392.484809,36.9684517 390.46156,35.4632574 C390.124851,35.2123917 389.787143,34.963525 389.448436,34.7146582 C387.411198,33.2144613 385.360972,31.7512446 383.297757,30.3320043 C382.991022,30.1201178 382.683289,29.9132285 382.375555,29.7043403 C380.258386,28.2611129 378.132226,26.8548657 375.991078,25.5005907 C375.78026,25.3666624 375.568444,25.2387309 375.357626,25.1058021 C373.105574,23.6905597 370.841533,22.3152959 368.564503,21 L331,42.8373099 C333.27703,44.1526058 335.540072,45.5288691 337.793123,46.943112 C338.003941,47.0760408 338.216757,47.2049718 338.427574,47.3369012 C340.567723,48.6921757 342.694883,50.0994223 344.810053,51.5406508 C345.118786,51.7505384 345.427519,51.9574277 345.734253,52.1683148 C347.796469,53.5885545 349.844697,55.0507717 351.880936,56.5499692 C352.221641,56.7998354 352.561347,57.0507011 352.900054,57.3025663 C354.922305,58.8067611 356.930567,60.347936 358.924842,61.9270907 C359.240569,62.1769569 359.554298,62.4288221 359.868026,62.6806872 C362.003179,64.3867739 364.123345,66.1328392 366.225526,67.9218815 C366.516275,68.1687493 366.806024,68.4206145 367.095773,68.6694813 C369.204949,70.4805118 371.298138,72.3285225 373.372343,74.2195102 C373.643109,74.4663781 373.912876,74.7182432 374.183642,74.9661105 C376.266839,76.8800859 378.333052,78.8300421 380.376284,80.8199768 C380.626068,81.0638463 380.872855,81.3097146 381.12164,81.5535841 C383.176862,83.567506 385.214099,85.6174086 387.227357,87.7062904 C387.454161,87.9421641 387.680965,88.1830352 387.908768,88.4199084 C389.934016,90.5347762 391.941279,92.6826264 393.922565,94.8684563 C394.120394,95.0883386 394.316225,95.3102198 394.515053,95.5301021 C396.515322,97.7499138 398.49461,100.000709 400.446921,102.288484 C400.614776,102.484379 400.778634,102.683273 400.944491,102.880167 C402.920781,105.205922 404.874091,107.562661 406.798426,109.95538 C406.925317,110.113295 407.050209,110.27321 407.177099,110.431125 C409.130409,112.870819 411.05974,115.339498 412.957099,117.842158 C413.044023,117.958096 413.129949,118.075033 413.215875,118.189972 C415.147204,120.743605 417.050557,123.327222 418.918941,125.941822 L419.042834,126.117728 C420.944189,128.779303 422.811573,131.469863 424.644987,134.190406 L424.675961,134.236382 C426.500382,136.943932 428.286837,139.680467 430.042318,142.440989 C430.099269,142.530941 430.159217,142.620893 430.216168,142.711844 C431.932683,145.415397 433.611231,148.146935 435.256807,150.896463 C435.34573,151.044384 435.437651,151.192305 435.526574,151.340225 C437.140178,154.044778 438.715815,156.772318 440.261477,159.516848 C440.373381,159.715742 440.487282,159.912636 440.599185,160.11153 C442.113875,162.814083 443.590597,165.537625 445.036347,168.273161 C445.167233,168.522028 445.300118,168.767896 445.432004,169.016763 C446.850777,171.721315 448.231582,174.440859 449.581415,177.174396 C449.722293,177.459243 449.865169,177.742092 450.006047,178.027939 C451.333899,180.735489 452.623783,183.458032 453.880695,186.190569 C454.020574,186.494407 454.163451,186.798244 454.302331,187.102081 C455.751077,190.273384 457.150866,193.458678 458.500699,196.655967 C458.552654,196.778901 458.606607,196.901835 458.658562,197.02377 C460.050358,200.332998 461.387201,203.65522 462.669092,206.986437 C462.725044,207.13036 462.777998,207.275282 462.832951,207.419205 C464.05889,210.619492 465.232875,213.826775 466.353905,217.039055 C466.456816,217.336896 466.556729,217.633737 466.65964,217.931577 C467.724719,221.012928 468.74084,224.099276 469.706005,227.187622 C469.831896,227.588408 469.955789,227.989193 470.078682,228.390978 C470.846019,230.879646 471.58438,233.369313 472.284774,235.85898 C472.382689,236.208793 472.476608,236.557606 472.572525,236.90642 C473.293901,239.507027 473.987301,242.105636 474.633742,244.704245 L474.690693,244.943117 C475.332138,247.527734 475.929621,250.111351 476.494132,252.69097 C476.557078,252.976817 476.625019,253.263663 476.685966,253.551509 C477.226499,256.054169 477.724068,258.553831 478.190665,261.050495 C478.270596,261.475267 478.351526,261.902039 478.429458,262.32881 C478.861085,264.699541 479.258741,267.067274 479.623425,269.42801 C479.689368,269.858779 479.752314,270.289549 479.816258,270.719319 C480.175947,273.138024 480.509659,275.552731 480.79641,277.958443 C480.822388,278.177326 480.844369,278.397209 480.869347,278.617091 C481.145109,280.980825 481.383902,283.337564 481.587726,285.686307 C481.610706,285.951165 481.637683,286.215023 481.660663,286.478882 C481.857493,288.850613 482.01036,291.211349 482.132255,293.564089 C482.158232,294.06682 482.186208,294.569551 482.209188,295.070283 C482.261143,296.23366 482.301109,297.39204 482.33408,298.549421 C482.350066,299.095128 482.371048,299.642835 482.382039,300.186544 C482.419007,301.873641 482.439989,303.557739 482.433994,305.232843 C482.427999,307.34871 482.378042,309.401611 482.302108,311.42153 C482.279128,312.057189 482.24216,312.67286 482.211187,313.298525 C482.143245,314.686782 482.064314,316.058048 481.963401,317.403328 C481.912445,318.085962 481.857493,318.7626 481.798544,319.43424 C481.682644,320.746538 481.550758,322.036847 481.403885,323.311165 C481.334945,323.904847 481.272998,324.505526 481.198063,325.090213 C480.981251,326.789303 480.741458,328.459409 480.469693,330.095533 C480.45071,330.206474 480.436722,330.322412 480.418737,330.433352 C480.122993,332.179418 479.79128,333.885504 479.435588,335.565605 C479.326682,336.07933 479.206786,336.581061 479.092884,337.088789 C478.829112,338.262161 478.55435,339.425539 478.260604,340.571925 C478.11573,341.136623 477.967857,341.698322 477.816988,342.257023 C477.513251,343.376423 477.193527,344.480832 476.862813,345.575246 C476.713942,346.066983 476.570067,346.563717 476.415201,347.051456 C475.946606,348.533663 475.458029,349.998878 474.939477,351.442106 L474.870537,351.641999 C474.325009,353.154189 473.746509,354.641393 473.148027,356.117603 C472.962188,356.575358 472.767356,357.027116 472.576522,357.481872 C472.144895,358.511321 471.704276,359.535773 471.247671,360.551229 C471.021866,361.055959 470.793064,361.55869 470.560266,362.060421 C470.094669,363.064884 469.616083,364.063349 469.127505,365.057817 C468.908695,365.501579 468.69488,365.94834 468.472072,366.390104 C467.779671,367.764368 467.070285,369.131636 466.334921,370.491908 L466.275972,370.605847 C465.514631,372.012094 464.725314,373.412344 463.92001,374.813594 C463.668228,375.25136 463.407454,375.691125 463.150676,376.12889 C462.577172,377.109365 461.996674,378.088841 461.404187,379.070316 C461.107443,379.558055 460.8107,380.046793 460.508961,380.535531 C459.903485,381.522003 459.287018,382.509475 458.661559,383.498945 C458.391793,383.926716 458.125024,384.353487 457.85226,384.781258 C456.959032,386.180509 456.051817,387.584758 455.121622,389 L492.686125,367.161691 C493.61632,365.746448 494.523535,364.343199 495.416762,362.944948 C495.690526,362.516177 495.956296,362.088406 496.226062,361.662634 C496.851521,360.672165 497.468987,359.683694 498.074463,358.699221" id="Fill-17" fill="#9B5C5D"></path>
            </g>
        </g>
    </g>
</svg>