<?xml version="1.0" encoding="UTF-8"?>
<svg width="219px" height="49px" viewBox="0 0 219 49" version="1.1" xmlns="http://www.w3.org/2000/svg" xmlns:xlink="http://www.w3.org/1999/xlink">
    <!-- Generator: Sketch 51.3 (57544) - http://www.bohemiancoding.com/sketch -->
    <title>Group 3</title>
    <desc>Created with Sketch.</desc>
    <defs></defs>
    <g id="Page-1" stroke="none" stroke-width="1" fill="none" fill-rule="evenodd">
        <g id="lapor-form" transform="translate(-142.000000, -31.000000)" fill="#FFFFFF">
            <g id="Group-4">
                <g id="Group-3" transform="translate(142.000000, 31.000000)">
                    <path d="M64.752,33.504 C65.0240014,33.7280011 65.3719979,34.0279981 65.796,34.404 C66.2200021,34.7800019 66.7039973,35.1519982 67.248,35.52 C68.0640041,36.0640027 68.871996,36.4879985 69.672,36.792 C70.472004,37.0960015 71.3119956,37.248 72.192,37.248 C73.0080041,37.248 73.6919972,37.1560009 74.244,36.972 C74.7960028,36.7879991 75.2319984,36.5440015 75.552,36.24 C75.8720016,35.9359985 76.0999993,35.584002 76.236,35.184 C76.3720007,34.783998 76.44,34.3600022 76.44,33.912 C76.44,33.4159975 76.2520019,32.972002 75.876,32.58 C75.4999981,32.187998 75.0400027,31.8400015 74.496,31.536 C73.9519973,31.2319985 73.384003,30.9720011 72.792,30.756 C72.199997,30.5399989 71.6880022,30.3600007 71.256,30.216 C69.3359904,29.5439966 67.6560072,28.8200039 66.216,28.044 C64.7759928,27.2679961 63.5760048,26.4040048 62.616,25.452 C61.6559952,24.4999952 60.9360024,23.4520057 60.456,22.308 C59.9759976,21.1639943 59.736,19.888007 59.736,18.48 C59.736,16.9919926 60.035997,15.6400061 60.636,14.424 C61.236003,13.2079939 62.0919944,12.1680043 63.204,11.304 C64.3160056,10.4399957 65.6559922,9.77200236 67.224,9.3 C68.7920078,8.82799764 70.5439903,8.592 72.48,8.592 C73.9360073,8.592 75.3319933,8.75599836 76.668,9.084 C78.0040067,9.41200164 79.3199935,9.9359964 80.616,10.656 C81.1600027,10.9760016 81.6759976,11.3079983 82.164,11.652 C82.6520024,11.9960017 83.0799982,12.3279984 83.448,12.648 C83.8160018,12.9680016 84.1079989,13.2719986 84.324,13.56 C84.5400011,13.8480014 84.648,14.095999 84.648,14.304 C84.648,14.512001 84.5960005,14.7039991 84.492,14.88 C84.3879995,15.0560009 84.232001,15.2559989 84.024,15.48 L80.352,19.392 C80.0799986,19.6640014 79.8080014,19.8 79.536,19.8 C79.3119989,19.8 79.1080009,19.7360006 78.924,19.608 C78.7399991,19.4799994 78.5360011,19.320001 78.312,19.128 L78.096,18.936 C77.7759984,18.6639986 77.420002,18.3840014 77.028,18.096 C76.635998,17.8079986 76.2160022,17.5480012 75.768,17.316 C75.3199978,17.0839988 74.8480025,16.8920008 74.352,16.74 C73.8559975,16.5879992 73.3520026,16.512 72.84,16.512 C72.3119974,16.512 71.8160023,16.5559996 71.352,16.644 C70.8879977,16.7320004 70.4800018,16.871999 70.128,17.064 C69.7759982,17.256001 69.496001,17.5079984 69.288,17.82 C69.079999,18.1320016 68.976,18.5119978 68.976,18.96 C68.976,19.4080022 69.0879989,19.7959984 69.312,20.124 C69.5360011,20.4520016 69.8719978,20.7559986 70.32,21.036 C70.7680022,21.3160014 71.3239967,21.5799988 71.988,21.828 C72.6520033,22.0760012 73.4239956,22.3439986 74.304,22.632 C76.0000085,23.1920028 77.5639928,23.7799969 78.996,24.396 C80.4280072,25.0120031 81.6639948,25.7399958 82.704,26.58 C83.7440052,27.4200042 84.5559971,28.4239942 85.14,29.592 C85.7240029,30.7600058 86.016,32.1759917 86.016,33.84 C86.016,35.6000088 85.6560036,37.1959928 84.936,38.628 C84.2159964,40.0600072 83.2280063,41.279995 81.972,42.288 C80.7159937,43.296005 79.2400085,44.0759972 77.544,44.628 C75.8479915,45.1800028 74.0240098,45.456 72.072,45.456 C70.2319908,45.456 68.4240089,45.1280033 66.648,44.472 C64.8719911,43.8159967 63.2160077,42.9360055 61.68,41.832 C61.0399968,41.3679977 60.5000022,40.9120022 60.06,40.464 C59.6199978,40.0159978 59.2720013,39.6560014 59.016,39.384 L58.944,39.312 C58.9279999,39.2799998 58.9120001,39.26 58.896,39.252 C58.8799999,39.244 58.8640001,39.2320001 58.848,39.216 C58.8319999,39.1839998 58.8160001,39.164 58.8,39.156 C58.7839999,39.148 58.7680001,39.1360001 58.752,39.12 C58.3839982,38.719998 58.2,38.4000012 58.2,38.16 C58.2,37.8879986 58.3839982,37.5840017 58.752,37.248 L62.904,33.288 C63.2400017,33.0479988 63.511999,32.928 63.72,32.928 C63.8640007,32.928 64.0159992,32.9759995 64.176,33.072 C64.3360008,33.1680005 64.5279989,33.311999 64.752,33.504 Z M91.296,10.464 C91.296,10.1279983 91.3839991,9.860001 91.56,9.66 C91.7360009,9.459999 91.9999982,9.36 92.352,9.36 L107.688,9.36 C108.792006,9.36 109.831995,9.51199848 110.808,9.816 C111.784005,10.1200015 112.679996,10.5399973 113.496,11.076 C114.312004,11.6120027 115.047997,12.2519963 115.704,12.996 C116.360003,13.7400037 116.915998,14.5439957 117.372,15.408 C117.828002,16.2720043 118.175999,17.1799952 118.416,18.132 C118.656001,19.0840048 118.776,20.0479951 118.776,21.024 C118.776,22.4640072 118.516003,23.8719931 117.996,25.248 C117.475997,26.6240069 116.736005,27.8479946 115.776,28.92 C114.815995,29.9920054 113.664007,30.8599967 112.32,31.524 C110.975993,32.1880033 109.488008,32.5279999 107.856,32.544 L100.584,32.544 L100.584,43.968 C100.584,44.6560034 100.216004,45 99.48,45 L92.352,45 C92.0319984,45 91.776001,44.9160008 91.584,44.748 C91.391999,44.5799992 91.296,44.3200018 91.296,43.968 L91.296,10.464 Z M109.368,20.976 C109.368,20.4959976 109.284001,20.0160024 109.116,19.536 C108.947999,19.0559976 108.704002,18.6280019 108.384,18.252 C108.063998,17.8759981 107.676002,17.5680012 107.22,17.328 C106.763998,17.0879988 106.248003,16.968 105.672,16.968 L100.584,16.968 L100.584,24.984 L105.672,24.984 C106.248003,24.984 106.767998,24.8680012 107.232,24.636 C107.696002,24.4039988 108.083998,24.1040018 108.396,23.736 C108.708002,23.3679982 108.947999,22.9440024 109.116,22.464 C109.284001,21.9839976 109.368,21.4880026 109.368,20.976 Z M124.08,10.416 C124.08,10.1279986 124.167999,9.88000104 124.344,9.672 C124.520001,9.46399896 124.783998,9.36 125.136,9.36 L132.192,9.36 C132.432001,9.36 132.687999,9.45599904 132.96,9.648 C133.232001,9.84000096 133.368,10.0959984 133.368,10.416 L133.368,43.944 C133.368,44.6480035 132.976004,45 132.192,45 L125.136,45 C124.431996,45 124.08,44.6480035 124.08,43.944 L124.08,10.416 Z M141.144,10.464 C141.144,10.1279983 141.231999,9.860001 141.408,9.66 C141.584001,9.459999 141.847998,9.36 142.2,9.36 L157.704,9.36 C159.352008,9.36 160.895993,9.66799692 162.336,10.284 C163.776007,10.9000031 165.031995,11.7359947 166.104,12.792 C167.176005,13.8480053 168.019997,15.0839929 168.636,16.5 C169.252003,17.9160071 169.56,19.423992 169.56,21.024 C169.56,22.1120054 169.412001,23.1479951 169.116,24.132 C168.819999,25.1160049 168.408003,26.0359957 167.88,26.892 C167.351997,27.7480043 166.724004,28.5239965 165.996,29.22 C165.267996,29.9160035 164.472004,30.5119975 163.608,31.008 L169.776,42.624 C169.888001,42.8480011 170.031999,43.1119985 170.208,43.416 C170.384001,43.7200015 170.472,43.9839989 170.472,44.208 C170.472,44.4640013 170.388001,44.6599993 170.22,44.796 C170.051999,44.9320007 169.824001,45 169.536,45 L161.304,45 C161.031999,45 160.788001,44.9200008 160.572,44.76 C160.355999,44.5999992 160.216,44.3840014 160.152,44.112 L154.32,33.144 L150.432,33.144 L150.432,43.968 C150.432,44.6560034 150.064004,45 149.328,45 L142.2,45 C141.879998,45 141.624001,44.9160008 141.432,44.748 C141.239999,44.5799992 141.144,44.3200018 141.144,43.968 L141.144,10.464 Z M159.936,21.12 C159.936,20.6399976 159.848001,20.1600024 159.672,19.68 C159.495999,19.1999976 159.248002,18.760002 158.928,18.36 C158.607998,17.959998 158.224002,17.6240014 157.776,17.352 C157.327998,17.0799986 156.832003,16.9040004 156.288,16.824 C155.839998,16.7919998 155.420002,16.7640001 155.028,16.74 C154.635998,16.7159999 154.208002,16.704 153.744,16.704 L150.432,16.704 L150.432,25.512 L154.848,25.512 C155.136001,25.512 155.391999,25.5040001 155.616,25.488 C155.840001,25.4719999 156.087999,25.4480002 156.36,25.416 C156.920003,25.3519997 157.423998,25.1880013 157.872,24.924 C158.320002,24.6599987 158.695998,24.332002 159,23.94 C159.304002,23.547998 159.535999,23.1080024 159.696,22.62 C159.856001,22.1319976 159.936,21.6320026 159.936,21.12 Z M174.96,10.416 C174.96,10.1279986 175.047999,9.88000104 175.224,9.672 C175.400001,9.46399896 175.663998,9.36 176.016,9.36 L183.072,9.36 C183.312001,9.36 183.567999,9.45599904 183.84,9.648 C184.112001,9.84000096 184.248,10.0959984 184.248,10.416 L184.248,43.944 C184.248,44.6480035 183.856004,45 183.072,45 L176.016,45 C175.311996,45 174.96,44.6480035 174.96,43.944 L174.96,10.416 Z M190.032,10.416 C190.032,10.0959984 190.139999,9.84000096 190.356,9.648 C190.572001,9.45599904 190.839998,9.36 191.16,9.36 L217.008,9.36 C217.296001,9.36 217.551999,9.44799912 217.776,9.624 C218.000001,9.80000088 218.128,10.0639982 218.16,10.416 L218.16,16.392 C218.16,16.6800014 218.060001,16.9559987 217.86,17.22 C217.659999,17.4840013 217.376002,17.616 217.008,17.616 L208.728,17.616 L208.728,43.872 C208.728,44.1600014 208.624001,44.4199988 208.416,44.652 C208.207999,44.8840012 207.936002,45 207.6,45 L200.544,45 C200.271999,45 200.016001,44.8920011 199.776,44.676 C199.535999,44.4599989 199.416,44.1920016 199.416,43.872 L199.416,17.616 L191.16,17.616 C190.839998,17.616 190.572001,17.512001 190.356,17.304 C190.139999,17.095999 190.032,16.792002 190.032,16.392 L190.032,10.416 Z" id="SPIRIT"></path>
                    <path d="M40.0474132,20.4260505 C39.1236709,22.7728159 37.2931746,24.8082612 35.4509987,26.6726399 C33.3773564,28.7714826 31.3019445,30.8664294 29.2874076,33.0081273 C26.1757054,36.3164786 22.8222729,39.3839907 19.4033645,42.4320232 C13.1070517,34.302638 5.66296252,25.8293486 5.50546622,15.7601454 C5.44317554,11.764694 6.86382757,6.48606565 12.1086313,5.46781172 C18.1929435,4.28628298 19.4316784,11.0180925 19.7756928,14.7904134 C19.9406215,16.595999 22.8463398,18.226622 24.4729757,16.4674334 C26.3901835,14.3940913 28.420647,12.3940635 30.6103765,10.5307473 C32.0696063,9.28900881 34.2777398,7.35910771 36.5662141,8.11527194 C38.7863811,8.84947729 39.9571626,11.1657836 40.483094,12.9940364 C41.1912965,15.456263 40.9895597,18.032534 40.0474132,20.4260505 Z M45.6298608,11.2167849 C44.2937966,7.20220806 40.5103462,3.01904383 35.1901566,3.22517384 C32.0979202,3.34488508 29.5209976,4.88306833 27.3404702,6.65713231 C26.2967475,7.50644463 25.2954957,8.39684128 24.3253893,9.31273856 C23.4186353,6.15703681 21.7311244,3.15717219 18.4644034,1.64448956 C14.0460128,-0.401581031 8.34677026,0.706987597 4.8680486,3.6771015 C0.894540818,7.06974651 -0.268454335,12.2279553 0.0497235843,16.8789851 C0.413557734,22.1923226 2.49427852,27.2626959 5.3171785,31.958706 C8.5704504,37.3715668 12.8210809,42.2747694 16.6094863,47.4071234 C16.994202,47.9284694 17.4981901,48.2433312 18.0400482,48.3966891 C18.9407854,48.7466143 20.0294565,48.6864045 20.9309016,47.8870309 C24.8254843,44.4341761 28.7904979,41.0578231 32.300011,37.3017943 C36.0112609,33.3297185 40.5135315,29.5998986 43.5063151,25.181562 C46.3384172,21.0005228 47.1853579,15.890836 45.6298608,11.2167849 Z" id="Fill-245"></path>
                </g>
            </g>
        </g>
    </g>
</svg>