<?xml version="1.0" encoding="UTF-8"?>
<svg width="300px" height="245px" viewBox="0 0 300 245" version="1.1" xmlns="http://www.w3.org/2000/svg" xmlns:xlink="http://www.w3.org/1999/xlink">
    <!-- Generator: Sketch 51.3 (57544) - http://www.bohemiancoding.com/sketch -->
    <title>Group</title>
    <desc>Created with Sketch.</desc>
    <defs></defs>
    <g id="Page-1" stroke="none" stroke-width="1" fill="none" fill-rule="evenodd">
        <g id="Desktop-HD-Copy-12" transform="translate(-584.000000, -720.000000)">
            <g id="Group" transform="translate(584.000000, 720.000000)">
                <path d="M184.70565,8.64180791 C184.70565,8.64180791 188.025424,2.71412429 188.973446,2.95084746 C189.922034,3.18813559 188.736723,6.03389831 188.736723,6.03389831 C188.736723,6.03389831 197.984746,8.16779661 198.221469,9.11638418 C198.458757,10.0649718 186.60226,11.4875706 186.60226,11.4875706 L184.70565,8.64180791" id="Fill-4" fill="#EC912D"></path>
                <path d="M159.481356,24.1355932 C159.481356,24.1355932 177.814689,29.9112994 184.594915,8.06271186 L187.859887,10.5740113 C187.859887,10.5740113 186.603955,34.6830508 161.239548,33.1762712 C160.988701,33.1615819 161.239548,34.180791 161.239548,34.180791 C161.239548,34.180791 159.481356,30.1627119 159.481356,24.1355932" id="Fill-5" fill="#007C91"></path>
                <path d="M164.169492,56.9514124 C164.169492,56.9514124 176.223729,103.49548 178.567797,112.536158 C178.567797,112.536158 183.925424,113.540678 184.260452,114.545198 C184.594915,115.549718 174.884746,115.884746 173.880226,115.214689 C172.875706,114.545198 155.128814,75.0333333 150.440678,58.6259887 L164.169492,56.9514124" id="Fill-6" fill="#2E1C15"></path>
                <path d="M140.403955,56.9514124 C140.403955,56.9514124 128.349153,103.49548 126.005085,112.536158 C126.005085,112.536158 120.648023,113.540678 120.312994,114.545198 C119.977966,115.549718 129.688701,115.884746 130.69322,115.214689 C131.69774,114.545198 149.444633,75.0333333 154.132203,58.6259887 L140.403955,56.9514124" id="Fill-7" fill="#2E1C15"></path>
                <path d="M143.074011,23.8016949 C143.074011,23.8016949 137.716384,50.2548023 138.720904,58.6259887 C138.720904,58.6259887 157.137853,62.3090395 166.848023,57.9559322 C166.848023,57.9559322 165.174011,34.1819209 160.820904,24.4711864 C160.820904,24.4711864 157.807345,20.7881356 143.074011,23.8016949" id="Fill-8" fill="#00A1A0"></path>
                <path d="M149.184746,18.8627119 L148.682486,23.3830508 C148.682486,23.3830508 156.719209,27.2033898 156.719209,23.6344633 C156.719209,22.880791 155.463277,18.1096045 155.463277,18.1096045 L149.184746,18.8627119" id="Fill-9" fill="#EC912D"></path>
                <path d="M159.213559,12.5514124 C159.213559,17.6158192 159.748588,21.720904 154.684181,21.720904 C149.619774,21.720904 145.514124,17.6158192 145.514124,12.5514124 C145.514124,7.48700565 142.862712,3.3819209 154.684181,3.3819209 C159.748588,3.3819209 159.213559,7.48700565 159.213559,12.5514124" id="Fill-10" fill="#EC912D"></path>
                <path d="M149.514689,6.64745763 C149.514689,6.64745763 156.79774,10.6655367 160.313559,5.3920904 C160.313559,5.3920904 155.79322,-0.886440678 149.263842,1.87570621 C142.733898,4.63841808 144.742938,7.14971751 144.742938,7.14971751 C144.742938,7.14971751 142.231638,8.40564972 142.985311,11.6700565 C143.738418,14.9350282 147.00339,17.4463277 147.00339,17.4463277 C147.00339,17.4463277 152.528249,12.4237288 148.510169,7.90338983 L149.514689,6.64745763" id="Fill-11" fill="#2E1C15"></path>
                <path d="M157.80226,11.5446328 C157.80226,11.5446328 160.188136,14.5581921 160.438983,16.0649718 C160.564972,16.4418079 157.927684,16.4418079 157.927684,16.4418079 C157.927684,16.4418079 156.923164,13.679096 157.80226,11.5446328" id="Fill-12" fill="#E3662A"></path>
                <path d="M65.9418079,240.779661 C65.9418079,242.750847 51.2694915,244.348588 33.1706215,244.348588 C15.0711864,244.348588 0.398870056,242.750847 0.398870056,240.779661 C0.398870056,238.808475 15.0711864,237.210169 33.1706215,237.210169 C51.2694915,237.210169 65.9418079,238.808475 65.9418079,240.779661" id="Fill-13" fill="#F6C697"></path>
                <path d="M300,240.779661 C300,242.750847 285.327684,244.348588 267.228249,244.348588 C249.129379,244.348588 234.457062,242.750847 234.457062,240.779661 C234.457062,238.808475 249.129379,237.210169 267.228249,237.210169 C285.327684,237.210169 300,238.808475 300,240.779661" id="Fill-14" fill="#F6C697"></path>
                <path d="M233.942938,239.774011 C233.942938,242.062712 196.840678,243.917514 151.072316,243.917514 C105.30452,243.917514 68.2022599,242.062712 68.2022599,239.774011 C68.2022599,237.485876 105.30452,235.630508 151.072316,235.630508 C196.840678,235.630508 233.942938,237.485876 233.942938,239.774011" id="Fill-15" fill="#F6C697"></path>
                <path d="M205.391525,203.825424 C205.391525,199.811864 202.959887,196.272881 199.255932,194.154802 L230.781356,194.154802 L230.781356,161.790395 C228.737853,165.959887 224.983051,168.765537 220.675706,168.765537 C214.190395,168.765537 208.933333,162.425989 208.933333,154.60565 C208.933333,146.785311 214.190395,140.445763 220.675706,140.445763 C224.983051,140.445763 228.737853,143.251412 230.781356,147.420904 L230.781356,115.055932 L199.240678,115.055932 C202.953672,117.172881 205.391525,120.716949 205.391525,124.736158 C205.391525,131.220904 199.051977,136.477966 191.231638,136.477966 C183.411864,136.477966 177.072316,131.220904 177.072316,124.736158 C177.072316,120.716949 179.510169,117.172881 183.223164,115.055932 L151.682486,115.055932 L151.682486,194.154802 L183.207345,194.154802 C179.50339,196.272881 177.072316,199.811864 177.072316,203.824859 C177.072316,210.310169 183.411864,215.567232 191.231638,215.567232 C199.051977,215.567232 205.391525,210.310169 205.391525,203.825424" id="Fill-16" fill="#ED9C30"></path>
                <path d="M221.362712,96.2768362 C221.958757,92.3084746 220.080226,88.4474576 216.731638,85.8028249 L247.90678,90.4847458 L252.588701,59.3090395 C254.132768,63.2864407 257.271751,66.2163842 261.240678,66.8124294 C267.653672,67.7757062 273.793785,62.2870056 274.955367,54.5536723 C276.116384,46.820339 271.859322,39.7700565 265.445763,38.8073446 C261.477401,38.2112994 257.616384,40.0898305 254.971751,43.4384181 L259.653672,12.2627119 L181.431638,0.516384181 L176.750282,31.6920904 C175.20565,27.7146893 172.067232,24.7847458 168.098305,24.1887006 C161.685311,23.2254237 155.545198,28.7141243 154.383616,36.4474576 C153.222034,44.180791 157.479661,51.2305085 163.892655,52.1937853 C167.861582,52.7898305 171.722599,50.9112994 174.366667,47.5627119 L169.685311,78.7384181 L200.860452,83.419774 C196.883051,84.9638418 193.953672,88.1028249 193.357627,92.0717514 C192.39435,98.4847458 197.883051,104.624859 205.616384,105.786441 C213.349718,106.947458 220.399435,102.690395 221.362712,96.2768362" id="Fill-17" fill="#A13C2B"></path>
                <path d="M142.012429,89.6762712 C135.527119,89.6762712 130.270056,83.3367232 130.270056,75.5163842 C130.270056,67.6966102 135.527119,61.3570621 142.012429,61.3570621 C146.023164,61.3570621 149.559887,63.7853107 151.678531,67.4853107 L151.678531,35.9672316 L119.910169,35.9672316 C123.628249,33.8508475 126.069492,30.3039548 126.069492,26.2819209 C126.069492,19.7971751 119.729944,14.540113 111.909605,14.540113 C104.089831,14.540113 97.7502825,19.7971751 97.7502825,26.2819209 C97.7502825,30.3039548 100.191525,33.8508475 103.90904,35.9672316 L72.579661,35.9672316 L72.579661,68.3316384 C74.6225989,64.1621469 78.3779661,61.3570621 82.6853107,61.3570621 C89.1700565,61.3570621 94.4271186,67.6966102 94.4271186,75.5163842 C94.4271186,83.3367232 89.1700565,89.6762712 82.6853107,89.6762712 C78.3779661,89.6762712 74.6225989,86.8706215 72.579661,82.7011299 L72.579661,115.066102 L151.678531,115.066102 L151.678531,83.5474576 C149.559887,87.2474576 146.023164,89.6762712 142.012429,89.6762712" id="Fill-18" fill="#DD4531"></path>
                <path d="M126.288701,184.049718 C126.288701,188.356497 123.483616,192.111864 119.313559,194.154802 L151.678531,194.154802 L151.678531,162.629944 C153.796045,166.333898 157.335593,168.764972 161.348588,168.765537 C167.833333,168.765537 173.09096,162.425989 173.09096,154.60565 C173.09096,146.785311 167.833333,140.445763 161.348588,140.445763 C157.335593,140.445763 153.796045,142.877401 151.678531,146.581356 L151.678531,115.055932 L120.175706,115.055932 C123.866667,112.936723 126.288701,109.40452 126.288701,105.4 C126.288701,98.9146893 119.949153,93.6576271 112.128814,93.6576271 C104.30904,93.6576271 97.9694915,98.9146893 97.9694915,105.4 C97.9694915,109.40452 100.391525,112.936723 104.082486,115.055932 L72.579661,115.055932 L72.579661,147.868362 C70.5926554,143.448023 66.7124294,140.445763 62.2497175,140.445763 C55.7644068,140.445763 50.5073446,146.785311 50.5073446,154.60565 C50.5073446,162.425989 55.7644068,168.765537 62.2497175,168.765537 C66.7124294,168.765537 70.5926554,165.763277 72.579661,161.342938 L72.579661,194.154802 L104.944068,194.154802 C100.774576,192.111864 97.9694915,188.356497 97.9694915,184.049718 C97.9694915,177.564407 104.30904,172.307345 112.128814,172.307345 C119.949153,172.307345 126.288701,177.564407 126.288701,184.049718" id="Fill-19" fill="#A13C2B"></path>
                <path d="M45.4542373,143.30113 C45.4542373,148.365537 45.9892655,152.471186 40.9248588,152.471186 C35.860452,152.471186 31.7553672,148.365537 31.7553672,143.30113 C31.7553672,138.237288 29.1039548,134.131638 40.9248588,134.131638 C45.9892655,134.131638 45.4542373,138.237288 45.4542373,143.30113" id="Fill-20" fill="#EC912D"></path>
                <path d="M34.7508475,148.196045 L31.2350282,150.958757 C31.2350282,150.958757 36.0067797,155.479096 37.7644068,155.228249 C38.7689266,154.976836 40.5271186,150.958757 40.5271186,150.958757 L34.7508475,148.196045" id="Fill-21" fill="#EC912D"></path>
                <path d="M69.7276836,176.655367 C69.7276836,176.655367 71.3361582,178.650282 72.1084746,177.491525 C72.880791,176.333333 72.6875706,167.645763 72.1084746,167.645763 C71.5293785,167.645763 70.5638418,173.630508 69.4056497,174.209605 C68.2474576,174.788701 69.7276836,176.655367 69.7276836,176.655367" id="Fill-22" fill="#EC912D"></path>
                <path d="M34.5836158,157.571751 C34.5836158,157.571751 46.9728814,176.323164 69.4079096,173.309605 L69.0728814,176.99322 C69.0728814,176.99322 46.6378531,185.69887 28.5564972,166.277966 C28.5564972,166.277966 24.2033898,162.259887 27.2169492,157.237288 C30.2305085,152.214124 34.5836158,157.571751 34.5836158,157.571751" id="Fill-23" fill="#006D80"></path>
                <path d="M13.6559322,169.793785 C13.6559322,169.793785 -0.910169492,191.893785 14.660452,207.966667 C14.660452,207.966667 7.1259887,230.568362 7.1259887,237.600565 L10.6418079,237.600565 C10.6418079,237.600565 24.7056497,210.980226 25.7101695,207.966667 C26.7146893,204.952542 18.1762712,187.875706 22.1943503,178.834463 L13.6559322,169.793785" id="Fill-24" fill="#2E1C15"></path>
                <path d="M12.480226,180.798305 C12.480226,180.798305 14.660452,203.697175 37.2621469,208.217514 C37.2621469,208.217514 43.3740113,228.248023 47.7338983,233.764972 L50.4920904,231.584746 C50.4920904,231.584746 46.6875706,206.259322 45.6073446,203.272316 C44.5265537,200.284746 27.2389831,192.181356 24.7853107,182.597175 L12.480226,180.798305" id="Fill-25" fill="#2E1C15"></path>
                <path d="M31.7175141,149.657627 C31.7175141,149.657627 15.3451977,157.587006 6.0180791,180.90904 C6.0180791,180.90904 21.159322,192.69096 30.3141243,190.861582 C30.3141243,190.861582 29.1514124,170.163277 38.8039548,154.480791 C38.8039548,154.480791 32.8610169,152.592655 31.7175141,149.657627" id="Fill-26" fill="#00A1A0"></path>
                <path d="M58.6926554,166.947458 C58.6926554,166.947458 61.0367232,162.762147 61.7062147,162.929379 C62.3757062,163.09661 61.5389831,165.106215 61.5389831,165.106215 C61.5389831,165.106215 68.0683616,166.612994 68.2355932,167.282486 C68.4033898,167.951977 60.0322034,168.956497 60.0322034,168.956497 L58.6926554,166.947458" id="Fill-27" fill="#EC912D"></path>
                <path d="M24.8728814,158.241808 C24.8728814,158.241808 33.2440678,173.309605 38.6016949,177.662712 C43.959322,182.015819 60.0322034,168.956497 60.0322034,168.956497 L58.6926554,166.277966 L44.2943503,170.296045 L33.9141243,154.223164 C33.9141243,154.223164 30.2305085,150.205085 26.5474576,152.214124 C22.8638418,154.223164 24.8728814,158.241808 24.8728814,158.241808" id="Fill-28" fill="#007C91"></path>
                <path d="M10.6418079,237.600565 C10.6418079,237.600565 12.6508475,240.614124 14.9112994,241.116384 C15.9158192,242.120904 8.63276836,241.618644 6.87514124,240.362712 C5.87062147,239.609605 7.1259887,237.600565 7.1259887,237.600565 L10.6418079,237.600565" id="Fill-29" fill="#2E1C15"></path>
                <path d="M50.0412429,231.042938 C50.0412429,231.042938 53.5881356,231.775706 55.5491525,230.545198 C56.9700565,230.554237 51.4350282,235.313559 49.3016949,235.655367 C48.0576271,235.825424 47.539548,233.513559 47.539548,233.513559 L50.0412429,231.042938" id="Fill-30" fill="#2E1C15"></path>
                <path d="M35.7553672,137.397175 C35.7553672,137.397175 43.0384181,141.415819 46.5542373,136.141808 C46.5542373,136.141808 42.0338983,129.863277 35.5045198,132.625989 C28.9751412,135.388136 30.9841808,137.899435 30.9841808,137.899435 C30.9841808,137.899435 28.4728814,139.155367 29.2259887,142.420339 C29.979661,145.684746 33.2440678,148.196045 33.2440678,148.196045 C33.2440678,148.196045 38.7689266,143.173446 34.7508475,138.653107 L35.7553672,137.397175" id="Fill-31" fill="#2E1C15"></path>
                <path d="M44.0429379,142.29435 C44.0429379,142.29435 46.4288136,145.30791 46.680226,146.814689 C46.8056497,147.191525 44.1683616,147.191525 44.1683616,147.191525 C44.1683616,147.191525 43.1638418,144.429379 44.0429379,142.29435" id="Fill-32" fill="#E3662A"></path>
                <path d="M224.585876,142.364407 C224.585876,142.364407 222.050847,142.740113 222.268362,141.364972 C222.485876,139.990395 228.516384,133.733898 228.942373,134.126554 C229.368362,134.519209 226.020904,139.573446 226.480226,140.784746 C226.938983,141.99548 224.585876,142.364407 224.585876,142.364407" id="Fill-33" fill="#EC912D"></path>
                <path d="M263.750282,152.589266 C263.750282,152.589266 241.851412,157.642938 227.667797,140.00113 L225.372881,142.901695 C225.372881,142.901695 235.633898,164.668927 262.120339,163.051977 C262.120339,163.051977 268.043503,163.138983 269.320339,157.422034 C270.59661,151.70565 263.750282,152.589266 263.750282,152.589266" id="Fill-34" fill="#006D80"></path>
                <path d="M258.428814,183.522599 C258.428814,183.522599 260.437853,206.29209 264.79096,216.002825 C269.144068,225.713559 272.492655,236.093785 272.492655,236.093785 L268.80904,238.772316 C268.80904,238.772316 275.171186,239.107345 277.180226,237.767797 C278.184746,235.758757 274.501695,203.278531 274.836158,196.581356 C275.171186,189.884746 274.501695,180.50904 274.501695,180.50904 C274.501695,180.50904 264.121469,178.164972 258.428814,183.522599" id="Fill-35" fill="#2E1C15"></path>
                <path d="M235.611299,234.713559 C237.215254,235.351977 239.537288,234.664407 240.392655,234.367797 C240.290395,231.093785 239.674576,210.796045 240.121469,208.121469 C240.60791,205.210169 255.048023,194.903955 255.681921,185.733333 L266.625424,182.025424 C266.625424,182.025424 268.475141,203.318079 248.577401,211.240678 C248.577401,211.240678 246.417514,230.007345 243.427684,236.081356 L243.429379,236.082486 C243.429379,236.082486 243.343503,238.281921 242.177966,238.335593 C240.171186,238.381356 234.314124,234.959887 235.611299,234.713559" id="Fill-36" fill="#2E1C15"></path>
                <path d="M258.324294,139.155367 C258.324294,144.219774 257.789831,148.324859 262.854237,148.324859 C267.918644,148.324859 272.023729,144.219774 272.023729,139.155367 C272.023729,134.09096 274.675141,129.985876 262.854237,129.985876 C257.789831,129.985876 258.324294,134.09096 258.324294,139.155367" id="Fill-37" fill="#EC912D"></path>
                <path d="M268.023164,133.251412 C268.023164,133.251412 260.740678,137.269492 257.224859,131.99548 C257.224859,131.99548 261.745198,125.717514 268.274576,128.479661 C274.803955,131.242373 272.794915,133.753672 272.794915,133.753672 C272.794915,133.753672 275.306215,135.009605 274.553107,138.274011 C273.799435,141.538983 270.535028,144.050282 270.535028,144.050282 C270.535028,144.050282 265.009605,139.027684 269.028249,134.507345 L268.023164,133.251412" id="Fill-38" fill="#2E1C15"></path>
                <path d="M259.736158,138.148588 C259.736158,138.148588 257.350282,141.162147 257.09887,142.668927 C256.973446,143.045763 259.610169,143.045763 259.610169,143.045763 C259.610169,143.045763 260.614689,140.283051 259.736158,138.148588" id="Fill-39" fill="#E3662A"></path>
                <path d="M261.609605,147.693785 L261.10791,150.875141 C261.10791,150.875141 265.79548,151.042373 267.135028,149.200565 L266.967232,145.517514 L261.609605,147.693785" id="Fill-40" fill="#EC912D"></path>
                <path d="M260.772881,150.037853 C260.772881,150.037853 255.415254,178.164972 254.410734,187.20565 C254.410734,187.20565 267.469492,193.567797 275.506215,184.862147 C275.506215,184.862147 276.677966,158.744068 267.30226,148.028814 C267.30226,148.028814 262.614689,150.205085 260.772881,150.037853" id="Fill-41" fill="#00A1A0"></path>
                <path d="M234.853107,167.133333 C234.853107,167.133333 232.573446,162.912429 231.90113,163.069492 C231.228814,163.226554 232.035593,165.248588 232.035593,165.248588 C232.035593,165.248588 225.483616,166.655367 225.306215,167.322599 C225.128249,167.989266 233.483051,169.121469 233.483051,169.121469 L234.853107,167.133333" id="Fill-42" fill="#EC912D"></path>
                <path d="M268.801695,158.944068 C268.801695,158.944068 260.201695,173.882486 254.777966,178.153672 C249.354802,182.424294 233.483051,169.121469 233.483051,169.121469 L234.863277,166.463842 L249.19887,170.70113 L259.823164,154.788701 C259.823164,154.788701 263.567232,150.827119 267.219209,152.89209 C270.871751,154.957062 268.801695,158.944068 268.801695,158.944068" id="Fill-43" fill="#007C91"></path>
                <path d="M175.090395,37.3983051 C175.090395,37.3983051 175.233898,35.040678 175.667797,34.5723164 C176.10113,34.1039548 177.50452,32.1033898 177.624294,32.7841808 C177.743503,33.4649718 177.20791,34.5288136 177.20791,34.5288136 C177.20791,34.5288136 180.525989,32.5016949 181.326554,33.0627119 C182.126554,33.6242938 179.49887,37.8214689 178.784746,38.6898305 C178.070056,39.5581921 176.610734,39.8870056 176.610734,39.8870056 L175.090395,37.3983051" id="Fill-44" fill="#EC912D"></path>
                <path d="M141.571751,29.1508475 C141.571751,29.1508475 149.942938,44.2186441 155.300565,48.5717514 C160.658192,52.9248588 176.730508,39.8661017 176.730508,39.8661017 L175.391525,37.1870056 L160.99322,41.2050847 L150.612429,25.1327684 C150.612429,25.1327684 146.929379,21.1146893 143.246328,23.1237288 C139.562712,25.1327684 141.571751,29.1508475 141.571751,29.1508475" id="Fill-45" fill="#007C91"></path>
            </g>
        </g>
    </g>
</svg>