<?xml version="1.0" encoding="UTF-8"?>
<svg width="300px" height="245px" viewBox="0 0 300 245" version="1.1" xmlns="http://www.w3.org/2000/svg" xmlns:xlink="http://www.w3.org/1999/xlink">
    <!-- Generator: Sketch 51.3 (57544) - http://www.bohemiancoding.com/sketch -->
    <title>Group</title>
    <desc>Created with Sketch.</desc>
    <defs></defs>
    <g id="Page-1" stroke="none" stroke-width="1" fill="none" fill-rule="evenodd">
        <g id="Desktop-HD-Copy-12" transform="translate(-238.000000, -485.000000)">
            <g id="Group" transform="translate(238.000000, 485.000000)">
                <path d="M159.481356,24.1081725 C159.481356,24.1081725 177.814689,29.8773169 184.594915,8.05355174 L187.859887,10.5619981 C187.859887,10.5619981 186.603955,34.6436471 161.239548,33.1385793 C160.988701,33.1239067 161.239548,34.1419578 161.239548,34.1419578 C161.239548,34.1419578 159.481356,30.1284437 159.481356,24.1081725" id="Fill-5" fill="#007C91"></path>
                <path d="M164.169492,56.8867094 C164.169492,56.8867094 176.223729,103.377898 178.567797,112.408305 C178.567797,112.408305 183.925424,113.411683 184.260452,114.415062 C184.594915,115.41844 174.884746,115.753088 173.880226,115.083793 C172.875706,114.415062 155.128814,74.9480872 150.440678,58.5593831 L164.169492,56.8867094" id="Fill-6" fill="#2E1C15"></path>
                <path d="M140.403955,56.8867094 C140.403955,56.8867094 128.349153,103.377898 126.005085,112.408305 C126.005085,112.408305 120.648023,113.411683 120.312994,114.415062 C119.977966,115.41844 129.688701,115.753088 130.69322,115.083793 C131.69774,114.415062 149.444633,74.9480872 154.132203,58.5593831 L140.403955,56.8867094" id="Fill-7" fill="#2E1C15"></path>
                <path d="M143.074011,23.7746536 C143.074011,23.7746536 137.716384,50.1977073 138.720904,58.5593831 C138.720904,58.5593831 157.137853,62.2382496 166.848023,57.8900879 C166.848023,57.8900879 165.174011,34.1430865 160.820904,24.4433845 C160.820904,24.4433845 157.807345,20.764518 143.074011,23.7746536" id="Fill-8" fill="#00A1A0"></path>
                <path d="M149.184746,18.8412818 L148.682486,23.3564851 C148.682486,23.3564851 156.719209,27.1724838 156.719209,23.6076119 C156.719209,22.8547959 155.463277,18.08903 155.463277,18.08903 L149.184746,18.8412818" id="Fill-9" fill="#EC912D"></path>
                <path d="M65.9418079,240.506109 C65.9418079,242.475056 51.2694915,244.070981 33.1706215,244.070981 C15.0711864,244.070981 0.398870056,242.475056 0.398870056,240.506109 C0.398870056,238.537162 15.0711864,236.940673 33.1706215,236.940673 C51.2694915,236.940673 65.9418079,238.537162 65.9418079,240.506109" id="Fill-13" fill="#F6C697"></path>
                <path d="M300,240.506109 C300,242.475056 285.327684,244.070981 267.228249,244.070981 C249.129379,244.070981 234.457062,242.475056 234.457062,240.506109 C234.457062,238.537162 249.129379,236.940673 267.228249,236.940673 C285.327684,236.940673 300,238.537162 300,240.506109" id="Fill-14" fill="#F6C697"></path>
                <path d="M233.942938,239.501602 C233.942938,241.787702 196.840678,243.640397 151.072316,243.640397 C105.30452,243.640397 68.2022599,241.787702 68.2022599,239.501602 C68.2022599,237.216066 105.30452,235.362806 151.072316,235.362806 C196.840678,235.362806 233.942938,237.216066 233.942938,239.501602" id="Fill-15" fill="#F6C697"></path>
                <path d="M205.391525,203.593856 C205.391525,199.584856 202.959887,196.049894 199.255932,193.934221 L230.781356,193.934221 L230.781356,161.606584 C228.737853,165.771338 224.983051,168.573801 220.675706,168.573801 C214.190395,168.573801 208.933333,162.241455 208.933333,154.430001 C208.933333,146.618547 214.190395,140.286201 220.675706,140.286201 C224.983051,140.286201 228.737853,143.088663 230.781356,147.253418 L230.781356,114.925216 L199.240678,114.925216 C202.953672,117.03976 205.391525,120.579801 205.391525,124.594444 C205.391525,131.071823 199.051977,136.322912 191.231638,136.322912 C183.411864,136.322912 177.072316,131.071823 177.072316,124.594444 C177.072316,120.579801 179.510169,117.03976 183.223164,114.925216 L151.682486,114.925216 L151.682486,193.934221 L183.207345,193.934221 C179.50339,196.049894 177.072316,199.584856 177.072316,203.593291 C177.072316,210.071234 183.411864,215.322324 191.231638,215.322324 C199.051977,215.322324 205.391525,210.071234 205.391525,203.593856" id="Fill-16" fill="#ED9C30"></path>
                <path d="M221.362712,96.1674551 C221.958757,92.203602 220.080226,88.3469716 216.731638,85.7053434 L247.90678,90.3819452 L252.588701,59.241658 C254.132768,63.2145403 257.271751,66.1411551 261.240678,66.7365231 C267.653672,67.6987056 273.793785,62.2162408 274.955367,54.4916934 C276.116384,46.7671459 271.859322,39.7248734 265.445763,38.7632552 C261.477401,38.1678872 257.616384,40.0442841 254.971751,43.3890673 L259.653672,12.2487801 L181.431638,0.515797512 L176.750282,31.6560847 C175.20565,27.6832023 172.067232,24.7565876 168.098305,24.1612195 C161.685311,23.1990371 155.545198,28.6815019 154.383616,36.4060493 C153.222034,44.1305967 157.479661,51.172305 163.892655,52.1344874 C167.861582,52.7298555 171.722599,50.8534586 174.366667,47.5086754 L169.685311,78.6489626 L200.860452,83.325 C196.883051,84.8673136 193.953672,88.0027304 193.357627,91.9671478 C192.39435,98.3728563 197.883051,104.505993 205.616384,105.666256 C213.349718,106.825954 220.399435,102.573728 221.362712,96.1674551" id="Fill-17" fill="#A13C2B"></path>
                <path d="M142.012429,89.5743891 C135.527119,89.5743891 130.270056,83.2420435 130.270056,75.4305893 C130.270056,67.6196994 135.527119,61.2873538 142.012429,61.2873538 C146.023164,61.2873538 149.559887,63.7128436 151.678531,67.40864 L151.678531,35.9263689 L119.910169,35.9263689 C123.628249,33.8123892 126.069492,30.2695262 126.069492,26.2520618 C126.069492,19.7746834 119.729944,14.5235938 111.909605,14.5235938 C104.089831,14.5235938 97.7502825,19.7746834 97.7502825,26.2520618 C97.7502825,30.2695262 100.191525,33.8123892 103.90904,35.9263689 L72.579661,35.9263689 L72.579661,68.2540062 C74.6225989,64.0892517 78.3779661,61.2873538 82.6853107,61.2873538 C89.1700565,61.2873538 94.4271186,67.6196994 94.4271186,75.4305893 C94.4271186,83.2420435 89.1700565,89.5743891 82.6853107,89.5743891 C78.3779661,89.5743891 74.6225989,86.7719269 72.579661,82.6071724 L72.579661,114.935374 L151.678531,114.935374 L151.678531,83.4525386 C149.559887,87.1483349 146.023164,89.5743891 142.012429,89.5743891" id="Fill-18" fill="#DD4531"></path>
                <path d="M126.288701,183.840617 C126.288701,188.142504 123.483616,191.893604 119.313559,193.934221 L151.678531,193.934221 L151.678531,162.445178 C153.796045,166.144925 157.335593,168.573236 161.348588,168.573801 C167.833333,168.573801 173.09096,162.241455 173.09096,154.430001 C173.09096,146.618547 167.833333,140.286201 161.348588,140.286201 C157.335593,140.286201 153.796045,142.715077 151.678531,146.414823 L151.678531,114.925216 L120.175706,114.925216 C123.866667,112.808415 126.288701,109.280224 126.288701,105.280254 C126.288701,98.8023113 119.949153,93.5512218 112.128814,93.5512218 C104.30904,93.5512218 97.9694915,98.8023113 97.9694915,105.280254 C97.9694915,109.280224 100.391525,112.808415 104.082486,114.925216 L72.579661,114.925216 L72.579661,147.700367 C70.5926554,143.28505 66.7124294,140.286201 62.2497175,140.286201 C55.7644068,140.286201 50.5073446,146.618547 50.5073446,154.430001 C50.5073446,162.241455 55.7644068,168.573801 62.2497175,168.573801 C66.7124294,168.573801 70.5926554,165.574952 72.579661,161.159635 L72.579661,193.934221 L104.944068,193.934221 C100.774576,191.893604 97.9694915,188.142504 97.9694915,183.840617 C97.9694915,177.362674 104.30904,172.111585 112.128814,172.111585 C119.949153,172.111585 126.288701,177.362674 126.288701,183.840617" id="Fill-19" fill="#A13C2B"></path>
                <path d="M45.4542373,143.138324 C45.4542373,148.196977 45.9892655,152.297962 40.9248588,152.297962 C35.860452,152.297962 31.7553672,148.196977 31.7553672,143.138324 C31.7553672,138.080235 29.1039548,133.97925 40.9248588,133.97925 C45.9892655,133.97925 45.4542373,138.080235 45.4542373,143.138324" id="Fill-20" fill="#EC912D"></path>
                <path d="M34.7508475,148.027678 L31.2350282,150.787251 C31.2350282,150.787251 36.0067797,155.302455 37.7644068,155.051892 C38.7689266,154.800765 40.5271186,150.787251 40.5271186,150.787251 L34.7508475,148.027678" id="Fill-21" fill="#EC912D"></path>
                <path d="M69.7276836,176.454667 C69.7276836,176.454667 71.3361582,178.447316 72.1084746,177.289876 C72.880791,176.132999 72.6875706,167.455299 72.1084746,167.455299 C71.5293785,167.455299 70.5638418,173.433245 69.4056497,174.011683 C68.2474576,174.590121 69.7276836,176.454667 69.7276836,176.454667" id="Fill-22" fill="#EC912D"></path>
                <path d="M34.5836158,157.392733 C34.5836158,157.392733 46.9728814,176.122841 69.4079096,173.112706 L69.0728814,176.792137 C69.0728814,176.792137 46.6378531,185.487896 28.5564972,166.089056 C28.5564972,166.089056 24.2033898,162.075542 27.2169492,157.058649 C30.2305085,152.041192 34.5836158,157.392733 34.5836158,157.392733" id="Fill-23" fill="#006D80"></path>
                <path d="M13.6559322,169.600881 C13.6559322,169.600881 -0.910169492,191.675773 14.660452,207.730394 C14.660452,207.730394 7.1259887,230.306411 7.1259887,237.330625 L10.6418079,237.330625 C10.6418079,237.330625 24.7056497,210.740529 25.7101695,207.730394 C26.7146893,204.719694 18.1762712,187.662259 22.1943503,178.631288 L13.6559322,169.600881" id="Fill-24" fill="#2E1C15"></path>
                <path d="M12.480226,180.592898 C12.480226,180.592898 14.660452,203.465753 37.2621469,207.980956 C37.2621469,207.980956 43.3740113,227.988708 47.7338983,233.499389 L50.4920904,231.32164 C50.4920904,231.32164 46.6875706,206.024989 45.6073446,203.041377 C44.5265537,200.0572 27.2389831,191.963017 24.7853107,182.389725 L12.480226,180.592898" id="Fill-25" fill="#2E1C15"></path>
                <path d="M31.7175141,149.4876 C31.7175141,149.4876 15.3451977,157.40797 6.0180791,180.703507 C6.0180791,180.703507 21.159322,192.472042 30.3141243,190.644742 C30.3141243,190.644742 29.1514124,169.969953 38.8039548,154.305284 C38.8039548,154.305284 32.8610169,152.419293 31.7175141,149.4876" id="Fill-26" fill="#00A1A0"></path>
                <path d="M58.6926554,166.757787 C58.6926554,166.757787 61.0367232,162.577231 61.7062147,162.744273 C62.3757062,162.911315 61.5389831,164.918636 61.5389831,164.918636 C61.5389831,164.918636 68.0683616,166.423704 68.2355932,167.092435 C68.4033898,167.761166 60.0322034,168.764544 60.0322034,168.764544 L58.6926554,166.757787" id="Fill-27" fill="#EC912D"></path>
                <path d="M24.8728814,158.062028 C24.8728814,158.062028 33.2440678,173.112706 38.6016949,177.460868 C43.959322,181.809029 60.0322034,168.764544 60.0322034,168.764544 L58.6926554,166.089056 L44.2943503,170.10257 L33.9141243,154.047949 C33.9141243,154.047949 30.2305085,150.034435 26.5474576,152.041192 C22.8638418,154.047949 24.8728814,158.062028 24.8728814,158.062028" id="Fill-28" fill="#007C91"></path>
                <path d="M10.6418079,237.330625 C10.6418079,237.330625 12.6508475,240.34076 14.9112994,240.84245 C15.9158192,241.845828 8.63276836,241.344139 6.87514124,240.089633 C5.87062147,239.337382 7.1259887,237.330625 7.1259887,237.330625 L10.6418079,237.330625" id="Fill-29" fill="#2E1C15"></path>
                <path d="M50.0412429,230.780448 C50.0412429,230.780448 53.5881356,231.512384 55.5491525,230.283273 C56.9700565,230.292302 51.4350282,235.046217 49.3016949,235.387637 C48.0576271,235.5575 47.539548,233.248262 47.539548,233.248262 L50.0412429,230.780448" id="Fill-30" fill="#2E1C15"></path>
                <path d="M35.7553672,137.241077 C35.7553672,137.241077 43.0384181,141.255155 46.5542373,135.987136 C46.5542373,135.987136 42.0338983,129.715738 35.5045198,132.475311 C28.9751412,135.23432 30.9841808,137.742766 30.9841808,137.742766 C30.9841808,137.742766 28.4728814,138.997271 29.2259887,142.258534 C29.979661,145.519232 33.2440678,148.027678 33.2440678,148.027678 C33.2440678,148.027678 38.7689266,143.010786 34.7508475,138.495582 L35.7553672,137.241077" id="Fill-31" fill="#2E1C15"></path>
                <path d="M44.0429379,142.132688 C44.0429379,142.132688 46.4288136,145.142824 46.680226,146.647892 C46.8056497,147.0243 44.1683616,147.0243 44.1683616,147.0243 C44.1683616,147.0243 43.1638418,144.265291 44.0429379,142.132688" id="Fill-32" fill="#E3662A"></path>
                <path d="M224.585876,142.202665 C224.585876,142.202665 222.050847,142.577945 222.268362,141.204366 C222.485876,139.831351 228.516384,133.581962 228.942373,133.974171 C229.368362,134.36638 226.020904,139.414876 226.480226,140.624799 C226.938983,141.834158 224.585876,142.202665 224.585876,142.202665" id="Fill-33" fill="#EC912D"></path>
                <path d="M263.750282,152.415907 C263.750282,152.415907 241.851412,157.463838 227.667797,139.842073 L225.372881,142.739343 C225.372881,142.739343 235.633898,164.481845 262.120339,162.866732 C262.120339,162.866732 268.043503,162.953639 269.320339,157.243185 C270.59661,151.533295 263.750282,152.415907 263.750282,152.415907" id="Fill-34" fill="#006D80"></path>
                <path d="M258.428814,183.314097 C258.428814,183.314097 260.437853,206.05772 264.79096,215.757422 C269.144068,225.457124 272.492655,235.825557 272.492655,235.825557 L268.80904,238.501045 C268.80904,238.501045 275.171186,238.835692 277.180226,237.497666 C278.184746,235.490909 274.501695,203.047584 274.836158,196.358018 C275.171186,189.669016 274.501695,180.303961 274.501695,180.303961 C274.501695,180.303961 264.121469,177.962557 258.428814,183.314097" id="Fill-35" fill="#2E1C15"></path>
                <path d="M235.611299,234.446899 C237.215254,235.084592 239.537288,234.397802 240.392655,234.101529 C240.290395,230.831237 239.674576,210.556558 240.121469,207.88502 C240.60791,204.977028 255.048023,194.682523 255.681921,185.52232 L266.625424,181.818623 C266.625424,181.818623 268.475141,203.087087 248.577401,211.000685 C248.577401,211.000685 246.417514,229.746031 243.427684,235.813142 L243.429379,235.81427 C243.429379,235.81427 243.343503,238.011207 242.177966,238.064818 C240.171186,238.110529 234.314124,234.692947 235.611299,234.446899" id="Fill-36" fill="#2E1C15"></path>
                <path d="M258.324294,138.997271 C258.324294,144.055925 257.789831,148.156345 262.854237,148.156345 C267.918644,148.156345 272.023729,144.055925 272.023729,138.997271 C272.023729,133.938618 274.675141,129.838197 262.854237,129.838197 C257.789831,129.838197 258.324294,133.938618 258.324294,138.997271" id="Fill-37" fill="#EC912D"></path>
                <path d="M268.023164,133.100024 C268.023164,133.100024 260.740678,137.113538 257.224859,131.845519 C257.224859,131.845519 261.745198,125.574685 268.274576,128.333694 C274.803955,131.093267 272.794915,133.601713 272.794915,133.601713 C272.794915,133.601713 275.306215,134.856219 274.553107,138.116917 C273.799435,141.378179 270.535028,143.886626 270.535028,143.886626 C270.535028,143.886626 265.009605,138.869733 269.028249,134.35453 L268.023164,133.100024" id="Fill-38" fill="#2E1C15"></path>
                <path d="M259.736158,137.991636 C259.736158,137.991636 257.350282,141.001771 257.09887,142.506839 C256.973446,142.883247 259.610169,142.883247 259.610169,142.883247 C259.610169,142.883247 260.614689,140.123674 259.736158,137.991636" id="Fill-39" fill="#E3662A"></path>
                <path d="M261.609605,147.525989 L261.10791,150.703731 C261.10791,150.703731 265.79548,150.870772 267.135028,149.031057 L266.967232,145.35219 L261.609605,147.525989" id="Fill-40" fill="#EC912D"></path>
                <path d="M260.772881,149.867394 C260.772881,149.867394 255.415254,177.962557 254.410734,186.992964 C254.410734,186.992964 267.469492,193.347882 275.506215,184.652123 C275.506215,184.652123 276.677966,158.563717 267.30226,147.860637 C267.30226,147.860637 262.614689,150.034435 260.772881,149.867394" id="Fill-41" fill="#00A1A0"></path>
                <path d="M234.853107,166.943452 C234.853107,166.943452 232.573446,162.727343 231.90113,162.884227 C231.228814,163.04111 232.035593,165.060847 232.035593,165.060847 C232.035593,165.060847 225.483616,166.466028 225.306215,167.132502 C225.128249,167.798411 233.483051,168.929328 233.483051,168.929328 L234.853107,166.943452" id="Fill-42" fill="#EC912D"></path>
                <path d="M268.801695,158.76349 C268.801695,158.76349 260.201695,173.684936 254.777966,177.95127 C249.354802,182.21704 233.483051,168.929328 233.483051,168.929328 L234.863277,166.274721 L249.19887,170.507195 L259.823164,154.612844 C259.823164,154.612844 263.567232,150.655762 267.219209,152.718388 C270.871751,154.781014 268.801695,158.76349 268.801695,158.76349" id="Fill-43" fill="#007C91"></path>
                <path d="M175.090395,37.3558165 C175.090395,37.3558165 175.233898,35.0008679 175.667797,34.5330384 C176.10113,34.065209 177.50452,32.0669169 177.624294,32.7469344 C177.743503,33.4269519 177.20791,34.489585 177.20791,34.489585 C177.20791,34.489585 180.525989,32.4647694 181.326554,33.025149 C182.126554,33.5860929 179.49887,37.7784996 178.784746,38.6458746 C178.070056,39.5132496 176.610734,39.8416896 176.610734,39.8416896 L175.090395,37.3558165" id="Fill-44" fill="#EC912D"></path>
                <path d="M141.571751,29.1177289 C141.571751,29.1177289 149.942938,44.1684068 155.300565,48.5165686 C160.658192,52.8647303 176.730508,39.8208094 176.730508,39.8208094 L175.391525,37.1447571 L160.99322,41.1582713 L150.612429,25.1042148 C150.612429,25.1042148 146.929379,21.0907007 143.246328,23.0974577 C139.562712,25.1042148 141.571751,29.1177289 141.571751,29.1177289" id="Fill-45" fill="#007C91"></path>
            </g>
        </g>
    </g>
</svg>